<ttFont>
    <TTGlyph name=".notdef" xMin="48" yMin="0" xMax="552" yMax="660">
      <contour>
        <pt x="48" y="660" on="1"/>
        <pt x="552" y="660" on="1"/>
        <pt x="552" y="0" on="1"/>
        <pt x="48" y="0" on="1"/>
      </contour>
      <contour>
        <pt x="241" y="340" on="1"/>
        <pt x="130" y="549" on="1"/>
        <pt x="130" y="133" on="1"/>
      </contour>
      <contour>
        <pt x="469" y="133" on="1"/>
        <pt x="469" y="549" on="1"/>
        <pt x="359" y="340" on="1"/>
      </contour>
      <contour>
        <pt x="404" y="75" on="1"/>
        <pt x="348" y="179" on="1"/>
        <pt x="302" y="279" on="1"/>
        <pt x="298" y="279" on="1"/>
        <pt x="251" y="179" on="1"/>
        <pt x="194" y="75" on="1"/>
      </contour>
      <contour>
        <pt x="302" y="401" on="1"/>
        <pt x="348" y="495" on="1"/>
        <pt x="396" y="584" on="1"/>
        <pt x="203" y="584" on="1"/>
        <pt x="252" y="495" on="1"/>
        <pt x="298" y="401" on="1"/>
      </contour>
    </TTGlyph>
    <TTGlyph name="A" xMin="20" yMin="0" xMax="580" yMax="654">
      <contour>
        <pt x="381" y="268" on="1"/>
        <pt x="358" y="348" on="1"/>
        <pt x="344" y="400" on="0"/>
        <pt x="314" y="510" on="0"/>
        <pt x="300" y="564" on="1"/>
        <pt x="296" y="564" on="1"/>
        <pt x="282" y="509" on="0"/>
        <pt x="253" y="400" on="0"/>
        <pt x="238" y="348" on="1"/>
        <pt x="215" y="268" on="1"/>
      </contour>
      <contour>
        <pt x="407" y="177" on="1"/>
        <pt x="189" y="177" on="1"/>
        <pt x="138" y="0" on="1"/>
        <pt x="20" y="0" on="1"/>
        <pt x="232" y="654" on="1"/>
        <pt x="368" y="654" on="1"/>
        <pt x="580" y="0" on="1"/>
        <pt x="457" y="0" on="1"/>
      </contour>
    </TTGlyph>
    <TTGlyph name="AE" xMin="-2" yMin="0" xMax="593" yMax="654">
      <contour>
        <pt x="314" y="261" on="1"/>
        <pt x="314" y="565" on="1"/>
        <pt x="311" y="565" on="1"/>
        <pt x="294" y="514" on="0"/>
        <pt x="260" y="414" on="0"/>
        <pt x="243" y="366" on="1"/>
        <pt x="207" y="261" on="1"/>
      </contour>
      <contour>
        <pt x="593" y="98" on="1"/>
        <pt x="593" y="0" on="1"/>
        <pt x="314" y="0" on="1"/>
        <pt x="314" y="170" on="1"/>
        <pt x="176" y="170" on="1"/>
        <pt x="118" y="0" on="1"/>
        <pt x="-2" y="0" on="1"/>
        <pt x="232" y="654" on="1"/>
        <pt x="584" y="654" on="1"/>
        <pt x="584" y="556" on="1"/>
        <pt x="418" y="556" on="1"/>
        <pt x="418" y="390" on="1"/>
        <pt x="550" y="390" on="1"/>
        <pt x="550" y="292" on="1"/>
        <pt x="418" y="292" on="1"/>
        <pt x="418" y="98" on="1"/>
      </contour>
    </TTGlyph>
    <TTGlyph name="Aacute" xMin="20" yMin="0" xMax="580" yMax="820">
      <component glyphName="A" x="0" y="0" flags="0x204"/>
      <component glyphName="uni0301.cap" x="0" y="0" flags="0x4"/>
    </TTGlyph>
    <TTGlyph name="Abreve" xMin="20" yMin="0" xMax="580" yMax="820">
      <component glyphName="A" x="0" y="0" flags="0x204"/>
      <component glyphName="uni0306.cap" x="0" y="0" flags="0x4"/>
    </TTGlyph>
    <TTGlyph name="Acircumflex" xMin="20" yMin="0" xMax="580" yMax="820">
      <component glyphName="A" x="0" y="0" flags="0x204"/>
      <component glyphName="uni0302.cap" x="0" y="0" flags="0x4"/>
    </TTGlyph>
    <TTGlyph name="Adieresis" xMin="20" yMin="0" xMax="580" yMax="827">
      <component glyphName="A" x="0" y="0" flags="0x204"/>
      <component glyphName="uni0308.cap" x="0" y="0" flags="0x4"/>
    </TTGlyph>
    <TTGlyph name="Agrave" xMin="20" yMin="0" xMax="580" yMax="820">
      <component glyphName="A" x="0" y="0" flags="0x204"/>
      <component glyphName="uni0300.cap" x="0" y="0" flags="0x4"/>
    </TTGlyph>
    <TTGlyph name="Amacron" xMin="20" yMin="0" xMax="580" yMax="800">
      <component glyphName="A" x="0" y="0" flags="0x204"/>
      <component glyphName="uni0304.cap" x="0" y="0" flags="0x4"/>
    </TTGlyph>
    <TTGlyph name="Aogonek" xMin="20" yMin="-218" xMax="606" yMax="654">
      <contour>
        <pt x="381" y="268" on="1"/>
        <pt x="358" y="348" on="1"/>
        <pt x="343" y="400" on="0"/>
        <pt x="314" y="510" on="0"/>
        <pt x="300" y="564" on="1"/>
        <pt x="296" y="564" on="1"/>
        <pt x="282" y="509" on="0"/>
        <pt x="253" y="400" on="0"/>
        <pt x="238" y="348" on="1"/>
        <pt x="215" y="268" on="1"/>
      </contour>
      <contour>
        <pt x="606" y="-186" on="1"/>
        <pt x="589" y="-200" on="0"/>
        <pt x="537" y="-218" on="0"/>
        <pt x="514" y="-218" on="1"/>
        <pt x="469" y="-218" on="0"/>
        <pt x="408" y="-172" on="0"/>
        <pt x="408" y="-127" on="1"/>
        <pt x="408" y="-105" on="0"/>
        <pt x="423" y="-66" on="0"/>
        <pt x="446" y="-33" on="0"/>
        <pt x="474" y="-8" on="0"/>
        <pt x="487" y="0" on="1"/>
        <pt x="457" y="0" on="1"/>
        <pt x="407" y="177" on="1"/>
        <pt x="189" y="177" on="1"/>
        <pt x="138" y="0" on="1"/>
        <pt x="20" y="0" on="1"/>
        <pt x="232" y="654" on="1"/>
        <pt x="368" y="654" on="1"/>
        <pt x="580" y="0" on="1"/>
        <pt x="561" y="-5" on="0"/>
        <pt x="530" y="-25" on="0"/>
        <pt x="507" y="-52" on="0"/>
        <pt x="495" y="-83" on="0"/>
        <pt x="495" y="-98" on="1"/>
        <pt x="495" y="-119" on="0"/>
        <pt x="520" y="-140" on="0"/>
        <pt x="537" y="-140" on="1"/>
        <pt x="561" y="-140" on="0"/>
        <pt x="578" y="-126" on="1"/>
      </contour>
    </TTGlyph>
    <TTGlyph name="Aring" xMin="20" yMin="0" xMax="580" yMax="884">
      <component glyphName="A" x="0" y="0" flags="0x204"/>
      <component glyphName="uni030A.cap" x="0" y="0" flags="0x4"/>
    </TTGlyph>
    <TTGlyph name="Atilde" xMin="20" yMin="0" xMax="580" yMax="829">
      <component glyphName="A" x="0" y="0" flags="0x204"/>
      <component glyphName="uni0303.cap" x="0" y="0" flags="0x4"/>
    </TTGlyph>
    <TTGlyph name="B" xMin="93" yMin="0" xMax="551" yMax="654">
      <contour>
        <pt x="93" y="654" on="1"/>
        <pt x="286" y="654" on="1"/>
        <pt x="336" y="654" on="0"/>
        <pt x="421" y="637" on="0"/>
        <pt x="483" y="600" on="0"/>
        <pt x="518" y="538" on="0"/>
        <pt x="518" y="493" on="1"/>
        <pt x="518" y="446" on="0"/>
        <pt x="462" y="366" on="0"/>
        <pt x="404" y="351" on="1"/>
        <pt x="404" y="347" on="1"/>
        <pt x="476" y="335" on="0"/>
        <pt x="551" y="258" on="0"/>
        <pt x="551" y="192" on="1"/>
        <pt x="551" y="143" on="0"/>
        <pt x="514" y="71" on="0"/>
        <pt x="447" y="23" on="0"/>
        <pt x="356" y="0" on="0"/>
        <pt x="302" y="0" on="1"/>
        <pt x="93" y="0" on="1"/>
      </contour>
      <contour>
        <pt x="275" y="383" on="1"/>
        <pt x="344" y="383" on="0"/>
        <pt x="404" y="433" on="0"/>
        <pt x="404" y="479" on="1"/>
        <pt x="404" y="524" on="0"/>
        <pt x="341" y="564" on="0"/>
        <pt x="278" y="564" on="1"/>
        <pt x="209" y="564" on="1"/>
        <pt x="209" y="383" on="1"/>
      </contour>
      <contour>
        <pt x="290" y="90" on="1"/>
        <pt x="362" y="90" on="0"/>
        <pt x="438" y="144" on="0"/>
        <pt x="438" y="200" on="1"/>
        <pt x="438" y="300" on="0"/>
        <pt x="290" y="300" on="1"/>
        <pt x="209" y="300" on="1"/>
        <pt x="209" y="90" on="1"/>
      </contour>
    </TTGlyph>
    <TTGlyph name="C" xMin="60" yMin="-12" xMax="561" yMax="666">
      <contour>
        <pt x="60" y="325" on="1"/>
        <pt x="60" y="405" on="0"/>
        <pt x="106" y="532" on="0"/>
        <pt x="187" y="620" on="0"/>
        <pt x="298" y="666" on="0"/>
        <pt x="363" y="666" on="1"/>
        <pt x="423" y="666" on="0"/>
        <pt x="517" y="616" on="0"/>
        <pt x="549" y="584" on="1"/>
        <pt x="484" y="512" on="1"/>
        <pt x="460" y="536" on="0"/>
        <pt x="401" y="565" on="0"/>
        <pt x="363" y="565" on="1"/>
        <pt x="322" y="565" on="0"/>
        <pt x="254" y="532" on="0"/>
        <pt x="206" y="471" on="0"/>
        <pt x="179" y="383" on="0"/>
        <pt x="179" y="328" on="1"/>
        <pt x="179" y="272" on="0"/>
        <pt x="206" y="183" on="0"/>
        <pt x="255" y="122" on="0"/>
        <pt x="324" y="89" on="0"/>
        <pt x="366" y="89" on="1"/>
        <pt x="406" y="89" on="0"/>
        <pt x="469" y="123" on="0"/>
        <pt x="497" y="154" on="1"/>
        <pt x="561" y="83" on="1"/>
        <pt x="521" y="37" on="0"/>
        <pt x="421" y="-12" on="0"/>
        <pt x="359" y="-12" on="1"/>
        <pt x="296" y="-12" on="0"/>
        <pt x="187" y="32" on="0"/>
        <pt x="106" y="118" on="0"/>
        <pt x="60" y="244" on="0"/>
      </contour>
    </TTGlyph>
    <TTGlyph name="Cacute" xMin="60" yMin="-12" xMax="561" yMax="820">
      <component glyphName="C" x="0" y="0" flags="0x204"/>
      <component glyphName="uni0301.cap" x="50" y="0" flags="0x4"/>
    </TTGlyph>
    <TTGlyph name="Ccaron" xMin="60" yMin="-12" xMax="561" yMax="820">
      <component glyphName="C" x="0" y="0" flags="0x204"/>
      <component glyphName="uni030C.cap" x="50" y="0" flags="0x4"/>
    </TTGlyph>
    <TTGlyph name="Ccedilla" xMin="60" yMin="-217" xMax="561" yMax="666">
      <component glyphName="C" x="0" y="0" flags="0x204"/>
      <component glyphName="uni0327.cap" x="47" y="0" flags="0x4"/>
    </TTGlyph>
    <TTGlyph name="Ccircumflex" xMin="60" yMin="-12" xMax="561" yMax="820">
      <component glyphName="C" x="0" y="0" flags="0x204"/>
      <component glyphName="uni0302.cap" x="50" y="0" flags="0x4"/>
    </TTGlyph>
    <TTGlyph name="Cdotaccent" xMin="60" yMin="-12" xMax="561" yMax="838">
      <component glyphName="C" x="0" y="0" flags="0x204"/>
      <component glyphName="uni0307.cap" x="50" y="0" flags="0x4"/>
    </TTGlyph>
    <TTGlyph name="D" xMin="75" yMin="0" xMax="552" yMax="654">
      <contour>
        <pt x="75" y="654" on="1"/>
        <pt x="244" y="654" on="1"/>
        <pt x="389" y="654" on="0"/>
        <pt x="552" y="492" on="0"/>
        <pt x="552" y="330" on="1"/>
        <pt x="552" y="249" on="0"/>
        <pt x="510" y="125" on="0"/>
        <pt x="432" y="42" on="0"/>
        <pt x="320" y="0" on="0"/>
        <pt x="250" y="0" on="1"/>
        <pt x="75" y="0" on="1"/>
      </contour>
      <contour>
        <pt x="237" y="94" on="1"/>
        <pt x="331" y="94" on="0"/>
        <pt x="433" y="209" on="0"/>
        <pt x="433" y="330" on="1"/>
        <pt x="433" y="450" on="0"/>
        <pt x="331" y="560" on="0"/>
        <pt x="237" y="560" on="1"/>
        <pt x="191" y="560" on="1"/>
        <pt x="191" y="94" on="1"/>
      </contour>
    </TTGlyph>
    <TTGlyph name="Dcaron" xMin="75" yMin="0" xMax="552" yMax="820">
      <component glyphName="D" x="0" y="0" flags="0x204"/>
      <component glyphName="uni030C.cap" x="-1" y="0" flags="0x4"/>
    </TTGlyph>
    <TTGlyph name="Dcroat" xMin="9" yMin="0" xMax="558" yMax="654">
      <component glyphName="Eth" x="0" y="0" flags="0x204"/>
    </TTGlyph>
    <TTGlyph name="E" xMin="104" yMin="0" xMax="532" yMax="654">
      <contour>
        <pt x="104" y="654" on="1"/>
        <pt x="522" y="654" on="1"/>
        <pt x="522" y="556" on="1"/>
        <pt x="220" y="556" on="1"/>
        <pt x="220" y="389" on="1"/>
        <pt x="476" y="389" on="1"/>
        <pt x="476" y="291" on="1"/>
        <pt x="220" y="291" on="1"/>
        <pt x="220" y="98" on="1"/>
        <pt x="532" y="98" on="1"/>
        <pt x="532" y="0" on="1"/>
        <pt x="104" y="0" on="1"/>
      </contour>
    </TTGlyph>
    <TTGlyph name="Eacute" xMin="104" yMin="0" xMax="532" yMax="820">
      <component glyphName="E" x="0" y="0" flags="0x204"/>
      <component glyphName="uni0301.cap" x="26" y="0" flags="0x4"/>
    </TTGlyph>
    <TTGlyph name="Ebreve" xMin="104" yMin="0" xMax="532" yMax="820">
      <component glyphName="E" x="0" y="0" flags="0x204"/>
      <component glyphName="uni0306.cap" x="26" y="0" flags="0x4"/>
    </TTGlyph>
    <TTGlyph name="Ecaron" xMin="104" yMin="0" xMax="532" yMax="820">
      <component glyphName="E" x="0" y="0" flags="0x204"/>
      <component glyphName="uni030C.cap" x="26" y="0" flags="0x4"/>
    </TTGlyph>
    <TTGlyph name="Ecircumflex" xMin="104" yMin="0" xMax="532" yMax="820">
      <component glyphName="E" x="0" y="0" flags="0x204"/>
      <component glyphName="uni0302.cap" x="26" y="0" flags="0x4"/>
    </TTGlyph>
    <TTGlyph name="Edieresis" xMin="104" yMin="0" xMax="532" yMax="827">
      <component glyphName="E" x="0" y="0" flags="0x204"/>
      <component glyphName="uni0308.cap" x="26" y="0" flags="0x4"/>
    </TTGlyph>
    <TTGlyph name="Edotaccent" xMin="104" yMin="0" xMax="532" yMax="838">
      <component glyphName="E" x="0" y="0" flags="0x204"/>
      <component glyphName="uni0307.cap" x="26" y="0" flags="0x4"/>
    </TTGlyph>
    <TTGlyph name="Egrave" xMin="104" yMin="0" xMax="532" yMax="820">
      <component glyphName="E" x="0" y="0" flags="0x204"/>
      <component glyphName="uni0300.cap" x="26" y="0" flags="0x4"/>
    </TTGlyph>
    <TTGlyph name="Emacron" xMin="104" yMin="0" xMax="532" yMax="800">
      <component glyphName="E" x="0" y="0" flags="0x204"/>
      <component glyphName="uni0304.cap" x="26" y="0" flags="0x4"/>
    </TTGlyph>
    <TTGlyph name="Eogonek" xMin="104" yMin="-218" xMax="550" yMax="654">
      <contour>
        <pt x="104" y="654" on="1"/>
        <pt x="522" y="654" on="1"/>
        <pt x="522" y="556" on="1"/>
        <pt x="220" y="556" on="1"/>
        <pt x="220" y="389" on="1"/>
        <pt x="476" y="389" on="1"/>
        <pt x="476" y="291" on="1"/>
        <pt x="220" y="291" on="1"/>
        <pt x="220" y="98" on="1"/>
        <pt x="532" y="98" on="1"/>
        <pt x="532" y="0" on="1"/>
        <pt x="528" y="0" on="1"/>
        <pt x="511" y="-2" on="0"/>
        <pt x="479" y="-19" on="0"/>
        <pt x="454" y="-46" on="0"/>
        <pt x="439" y="-80" on="0"/>
        <pt x="439" y="-98" on="1"/>
        <pt x="439" y="-120" on="0"/>
        <pt x="467" y="-140" on="0"/>
        <pt x="484" y="-140" on="1"/>
        <pt x="495" y="-140" on="0"/>
        <pt x="514" y="-132" on="0"/>
        <pt x="522" y="-126" on="1"/>
        <pt x="550" y="-186" on="1"/>
        <pt x="533" y="-200" on="0"/>
        <pt x="481" y="-218" on="0"/>
        <pt x="458" y="-218" on="1"/>
        <pt x="413" y="-218" on="0"/>
        <pt x="352" y="-172" on="0"/>
        <pt x="352" y="-127" on="1"/>
        <pt x="352" y="-105" on="0"/>
        <pt x="366" y="-66" on="0"/>
        <pt x="388" y="-34" on="0"/>
        <pt x="415" y="-8" on="0"/>
        <pt x="429" y="0" on="1"/>
        <pt x="104" y="0" on="1"/>
      </contour>
    </TTGlyph>
    <TTGlyph name="Eth" xMin="9" yMin="0" xMax="558" yMax="654">
      <contour>
        <pt x="81" y="311" on="1"/>
        <pt x="9" y="311" on="1"/>
        <pt x="9" y="365" on="1"/>
        <pt x="81" y="370" on="1"/>
        <pt x="81" y="654" on="1"/>
        <pt x="250" y="654" on="1"/>
        <pt x="394" y="654" on="0"/>
        <pt x="558" y="492" on="0"/>
        <pt x="558" y="330" on="1"/>
        <pt x="558" y="249" on="0"/>
        <pt x="516" y="125" on="0"/>
        <pt x="438" y="42" on="0"/>
        <pt x="326" y="0" on="0"/>
        <pt x="256" y="0" on="1"/>
        <pt x="81" y="0" on="1"/>
      </contour>
      <contour>
        <pt x="243" y="94" on="1"/>
        <pt x="337" y="94" on="0"/>
        <pt x="439" y="209" on="0"/>
        <pt x="439" y="330" on="1"/>
        <pt x="439" y="450" on="0"/>
        <pt x="336" y="560" on="0"/>
        <pt x="243" y="560" on="1"/>
        <pt x="197" y="560" on="1"/>
        <pt x="197" y="370" on="1"/>
        <pt x="322" y="370" on="1"/>
        <pt x="322" y="311" on="1"/>
        <pt x="197" y="311" on="1"/>
        <pt x="197" y="94" on="1"/>
      </contour>
    </TTGlyph>
    <TTGlyph name="Euro" xMin="51" yMin="-12" xMax="575" yMax="648">
      <contour>
        <pt x="575" y="81" on="1"/>
        <pt x="535" y="36" on="0"/>
        <pt x="439" y="-12" on="0"/>
        <pt x="378" y="-12" on="1"/>
        <pt x="328" y="-12" on="0"/>
        <pt x="241" y="19" on="0"/>
        <pt x="173" y="79" on="0"/>
        <pt x="125" y="168" on="0"/>
        <pt x="115" y="225" on="1"/>
        <pt x="51" y="225" on="1"/>
        <pt x="51" y="281" on="1"/>
        <pt x="108" y="285" on="1"/>
        <pt x="107" y="293" on="0"/>
        <pt x="107" y="308" on="0"/>
        <pt x="107" y="316" on="1"/>
        <pt x="107" y="324" on="0"/>
        <pt x="107" y="338" on="0"/>
        <pt x="108" y="345" on="1"/>
        <pt x="51" y="345" on="1"/>
        <pt x="51" y="401" on="1"/>
        <pt x="115" y="405" on="1"/>
        <pt x="125" y="463" on="0"/>
        <pt x="174" y="553" on="0"/>
        <pt x="245" y="615" on="0"/>
        <pt x="337" y="648" on="0"/>
        <pt x="390" y="648" on="1"/>
        <pt x="441" y="648" on="0"/>
        <pt x="533" y="606" on="0"/>
        <pt x="566" y="570" on="1"/>
        <pt x="501" y="507" on="1"/>
        <pt x="476" y="530" on="0"/>
        <pt x="421" y="558" on="0"/>
        <pt x="386" y="558" on="1"/>
        <pt x="323" y="558" on="0"/>
        <pt x="246" y="478" on="0"/>
        <pt x="232" y="406" on="1"/>
        <pt x="505" y="406" on="1"/>
        <pt x="505" y="345" on="1"/>
        <pt x="225" y="345" on="1"/>
        <pt x="224" y="339" on="0"/>
        <pt x="224" y="327" on="0"/>
        <pt x="224" y="320" on="1"/>
        <pt x="224" y="311" on="0"/>
        <pt x="224" y="294" on="0"/>
        <pt x="225" y="286" on="1"/>
        <pt x="465" y="286" on="1"/>
        <pt x="465" y="225" on="1"/>
        <pt x="233" y="225" on="1"/>
        <pt x="249" y="155" on="0"/>
        <pt x="325" y="78" on="0"/>
        <pt x="384" y="78" on="1"/>
        <pt x="423" y="78" on="0"/>
        <pt x="483" y="110" on="0"/>
        <pt x="510" y="141" on="1"/>
      </contour>
    </TTGlyph>
    <TTGlyph name="F" xMin="121" yMin="0" xMax="537" yMax="654">
      <contour>
        <pt x="121" y="654" on="1"/>
        <pt x="537" y="654" on="1"/>
        <pt x="537" y="556" on="1"/>
        <pt x="237" y="556" on="1"/>
        <pt x="237" y="371" on="1"/>
        <pt x="492" y="371" on="1"/>
        <pt x="492" y="273" on="1"/>
        <pt x="237" y="273" on="1"/>
        <pt x="237" y="0" on="1"/>
        <pt x="121" y="0" on="1"/>
      </contour>
    </TTGlyph>
    <TTGlyph name="G" xMin="48" yMin="-12" xMax="540" yMax="666">
      <contour>
        <pt x="48" y="325" on="1"/>
        <pt x="48" y="406" on="0"/>
        <pt x="93" y="532" on="0"/>
        <pt x="172" y="620" on="0"/>
        <pt x="281" y="666" on="0"/>
        <pt x="345" y="666" on="1"/>
        <pt x="410" y="666" on="0"/>
        <pt x="501" y="615" on="0"/>
        <pt x="530" y="584" on="1"/>
        <pt x="466" y="512" on="1"/>
        <pt x="443" y="535" on="0"/>
        <pt x="388" y="565" on="0"/>
        <pt x="345" y="565" on="1"/>
        <pt x="306" y="565" on="0"/>
        <pt x="241" y="532" on="0"/>
        <pt x="194" y="471" on="0"/>
        <pt x="168" y="383" on="0"/>
        <pt x="168" y="328" on="1"/>
        <pt x="168" y="216" on="0"/>
        <pt x="259" y="89" on="0"/>
        <pt x="347" y="89" on="1"/>
        <pt x="373" y="89" on="0"/>
        <pt x="421" y="104" on="0"/>
        <pt x="435" y="118" on="1"/>
        <pt x="435" y="259" on="1"/>
        <pt x="322" y="259" on="1"/>
        <pt x="322" y="354" on="1"/>
        <pt x="540" y="354" on="1"/>
        <pt x="540" y="66" on="1"/>
        <pt x="508" y="34" on="0"/>
        <pt x="403" y="-12" on="0"/>
        <pt x="340" y="-12" on="1"/>
        <pt x="278" y="-12" on="0"/>
        <pt x="171" y="32" on="0"/>
        <pt x="93" y="118" on="0"/>
        <pt x="48" y="244" on="0"/>
      </contour>
    </TTGlyph>
    <TTGlyph name="Gbreve" xMin="48" yMin="-12" xMax="540" yMax="820">
      <component glyphName="G" x="0" y="0" flags="0x204"/>
      <component glyphName="uni0306.cap" x="31" y="0" flags="0x4"/>
    </TTGlyph>
    <TTGlyph name="Gcaron" xMin="48" yMin="-12" xMax="540" yMax="820">
      <component glyphName="G" x="0" y="0" flags="0x204"/>
      <component glyphName="uni030C.cap" x="31" y="0" flags="0x4"/>
    </TTGlyph>
    <TTGlyph name="Gcircumflex" xMin="48" yMin="-12" xMax="540" yMax="820">
      <component glyphName="G" x="0" y="0" flags="0x204"/>
      <component glyphName="uni0302.cap" x="31" y="0" flags="0x4"/>
    </TTGlyph>
    <TTGlyph name="Gdotaccent" xMin="48" yMin="-12" xMax="540" yMax="838">
      <component glyphName="G" x="0" y="0" flags="0x204"/>
      <component glyphName="uni0307.cap" x="31" y="0" flags="0x4"/>
    </TTGlyph>
    <TTGlyph name="H" xMin="72" yMin="0" xMax="528" yMax="654">
      <contour>
        <pt x="72" y="654" on="1"/>
        <pt x="188" y="654" on="1"/>
        <pt x="188" y="391" on="1"/>
        <pt x="412" y="391" on="1"/>
        <pt x="412" y="654" on="1"/>
        <pt x="528" y="654" on="1"/>
        <pt x="528" y="0" on="1"/>
        <pt x="412" y="0" on="1"/>
        <pt x="412" y="290" on="1"/>
        <pt x="188" y="290" on="1"/>
        <pt x="188" y="0" on="1"/>
        <pt x="72" y="0" on="1"/>
      </contour>
    </TTGlyph>
    <TTGlyph name="Hbar" xMin="6" yMin="0" xMax="594" yMax="654">
      <contour>
        <pt x="412" y="489" on="1"/>
        <pt x="188" y="489" on="1"/>
        <pt x="188" y="391" on="1"/>
        <pt x="412" y="391" on="1"/>
      </contour>
      <contour>
        <pt x="594" y="489" on="1"/>
        <pt x="528" y="489" on="1"/>
        <pt x="528" y="0" on="1"/>
        <pt x="412" y="0" on="1"/>
        <pt x="412" y="290" on="1"/>
        <pt x="188" y="290" on="1"/>
        <pt x="188" y="0" on="1"/>
        <pt x="72" y="0" on="1"/>
        <pt x="72" y="489" on="1"/>
        <pt x="6" y="489" on="1"/>
        <pt x="6" y="543" on="1"/>
        <pt x="72" y="548" on="1"/>
        <pt x="72" y="654" on="1"/>
        <pt x="188" y="654" on="1"/>
        <pt x="188" y="548" on="1"/>
        <pt x="412" y="548" on="1"/>
        <pt x="412" y="654" on="1"/>
        <pt x="528" y="654" on="1"/>
        <pt x="528" y="548" on="1"/>
        <pt x="594" y="548" on="1"/>
      </contour>
    </TTGlyph>
    <TTGlyph name="Hcircumflex" xMin="72" yMin="0" xMax="528" yMax="820">
      <component glyphName="H" x="0" y="0" flags="0x204"/>
      <component glyphName="uni0302.cap" x="0" y="0" flags="0x4"/>
    </TTGlyph>
    <TTGlyph name="I" xMin="84" yMin="0" xMax="516" yMax="654">
      <contour>
        <pt x="84" y="98" on="1"/>
        <pt x="242" y="98" on="1"/>
        <pt x="242" y="556" on="1"/>
        <pt x="84" y="556" on="1"/>
        <pt x="84" y="654" on="1"/>
        <pt x="516" y="654" on="1"/>
        <pt x="516" y="556" on="1"/>
        <pt x="358" y="556" on="1"/>
        <pt x="358" y="98" on="1"/>
        <pt x="516" y="98" on="1"/>
        <pt x="516" y="0" on="1"/>
        <pt x="84" y="0" on="1"/>
      </contour>
    </TTGlyph>
    <TTGlyph name="Iacute" xMin="84" yMin="0" xMax="516" yMax="820">
      <component glyphName="I" x="0" y="0" flags="0x204"/>
      <component glyphName="uni0301.cap" x="0" y="0" flags="0x4"/>
    </TTGlyph>
    <TTGlyph name="Icircumflex" xMin="84" yMin="0" xMax="516" yMax="820">
      <component glyphName="I" x="0" y="0" flags="0x204"/>
      <component glyphName="uni0302.cap" x="0" y="0" flags="0x4"/>
    </TTGlyph>
    <TTGlyph name="Idieresis" xMin="84" yMin="0" xMax="516" yMax="827">
      <component glyphName="I" x="0" y="0" flags="0x204"/>
      <component glyphName="uni0308.cap" x="0" y="0" flags="0x4"/>
    </TTGlyph>
    <TTGlyph name="Idotaccent" xMin="84" yMin="0" xMax="516" yMax="838">
      <component glyphName="I" x="0" y="0" flags="0x204"/>
      <component glyphName="uni0307.cap" x="0" y="0" flags="0x4"/>
    </TTGlyph>
    <TTGlyph name="Igrave" xMin="84" yMin="0" xMax="516" yMax="820">
      <component glyphName="I" x="0" y="0" flags="0x204"/>
      <component glyphName="uni0300.cap" x="0" y="0" flags="0x4"/>
    </TTGlyph>
    <TTGlyph name="Imacron" xMin="84" yMin="0" xMax="516" yMax="800">
      <component glyphName="I" x="0" y="0" flags="0x204"/>
      <component glyphName="uni0304.cap" x="0" y="0" flags="0x4"/>
    </TTGlyph>
    <TTGlyph name="Iogonek" xMin="84" yMin="-218" xMax="516" yMax="654">
      <contour>
        <pt x="84" y="98" on="1"/>
        <pt x="242" y="98" on="1"/>
        <pt x="242" y="556" on="1"/>
        <pt x="84" y="556" on="1"/>
        <pt x="84" y="654" on="1"/>
        <pt x="516" y="654" on="1"/>
        <pt x="516" y="556" on="1"/>
        <pt x="358" y="556" on="1"/>
        <pt x="358" y="98" on="1"/>
        <pt x="516" y="98" on="1"/>
        <pt x="516" y="0" on="1"/>
        <pt x="358" y="0" on="1"/>
        <pt x="322" y="-20" on="0"/>
        <pt x="288" y="-70" on="0"/>
        <pt x="288" y="-98" on="1"/>
        <pt x="288" y="-120" on="0"/>
        <pt x="315" y="-140" on="0"/>
        <pt x="332" y="-140" on="1"/>
        <pt x="343" y="-140" on="0"/>
        <pt x="363" y="-132" on="0"/>
        <pt x="371" y="-126" on="1"/>
        <pt x="399" y="-186" on="1"/>
        <pt x="382" y="-200" on="0"/>
        <pt x="330" y="-218" on="0"/>
        <pt x="307" y="-218" on="1"/>
        <pt x="262" y="-218" on="0"/>
        <pt x="202" y="-172" on="0"/>
        <pt x="202" y="-127" on="1"/>
        <pt x="202" y="-104" on="0"/>
        <pt x="215" y="-66" on="0"/>
        <pt x="236" y="-34" on="0"/>
        <pt x="260" y="-9" on="0"/>
        <pt x="272" y="0" on="1"/>
        <pt x="84" y="0" on="1"/>
      </contour>
    </TTGlyph>
    <TTGlyph name="Itilde" xMin="84" yMin="0" xMax="516" yMax="829">
      <component glyphName="I" x="0" y="0" flags="0x204"/>
      <component glyphName="uni0303.cap" x="0" y="0" flags="0x4"/>
    </TTGlyph>
    <TTGlyph name="J" xMin="70" yMin="-12" xMax="505" yMax="654">
      <contour>
        <pt x="140" y="167" on="1"/>
        <pt x="168" y="128" on="0"/>
        <pt x="236" y="88" on="0"/>
        <pt x="271" y="88" on="1"/>
        <pt x="331" y="88" on="0"/>
        <pt x="389" y="151" on="0"/>
        <pt x="389" y="226" on="1"/>
        <pt x="389" y="557" on="1"/>
        <pt x="124" y="557" on="1"/>
        <pt x="124" y="654" on="1"/>
        <pt x="505" y="654" on="1"/>
        <pt x="505" y="216" on="1"/>
        <pt x="505" y="169" on="0"/>
        <pt x="481" y="86" on="0"/>
        <pt x="427" y="24" on="0"/>
        <pt x="338" y="-12" on="0"/>
        <pt x="274" y="-12" on="1"/>
        <pt x="247" y="-12" on="0"/>
        <pt x="190" y="0" on="0"/>
        <pt x="137" y="26" on="0"/>
        <pt x="89" y="67" on="0"/>
        <pt x="70" y="96" on="1"/>
      </contour>
    </TTGlyph>
    <TTGlyph name="Jcircumflex" xMin="70" yMin="-12" xMax="505" yMax="820">
      <component glyphName="J" x="0" y="0" flags="0x204"/>
      <component glyphName="uni0302.cap" x="21" y="0" flags="0x4"/>
    </TTGlyph>
    <TTGlyph name="K" xMin="83" yMin="0" xMax="587" yMax="654">
      <contour>
        <pt x="83" y="654" on="1"/>
        <pt x="200" y="654" on="1"/>
        <pt x="200" y="357" on="1"/>
        <pt x="203" y="357" on="1"/>
        <pt x="436" y="654" on="1"/>
        <pt x="565" y="654" on="1"/>
        <pt x="364" y="399" on="1"/>
        <pt x="587" y="0" on="1"/>
        <pt x="458" y="0" on="1"/>
        <pt x="295" y="308" on="1"/>
        <pt x="200" y="191" on="1"/>
        <pt x="200" y="0" on="1"/>
        <pt x="83" y="0" on="1"/>
      </contour>
    </TTGlyph>
    <TTGlyph name="L" xMin="120" yMin="0" xMax="542" yMax="654">
      <contour>
        <pt x="120" y="654" on="1"/>
        <pt x="235" y="654" on="1"/>
        <pt x="235" y="98" on="1"/>
        <pt x="542" y="98" on="1"/>
        <pt x="542" y="0" on="1"/>
        <pt x="120" y="0" on="1"/>
      </contour>
    </TTGlyph>
    <TTGlyph name="Lacute" xMin="120" yMin="0" xMax="542" yMax="820">
      <component glyphName="L" x="0" y="0" flags="0x204"/>
      <component glyphName="uni0301.cap" x="-106" y="0" flags="0x4"/>
    </TTGlyph>
    <TTGlyph name="Lcaron" xMin="120" yMin="0" xMax="542" yMax="730">
      <component glyphName="L" x="0" y="0" flags="0x204"/>
      <component glyphName="uni030C.a" x="126" y="-35" flags="0x4"/>
    </TTGlyph>
    <TTGlyph name="Ldot" xMin="120" yMin="0" xMax="542" yMax="654">
      <component glyphName="L" x="0" y="0" flags="0x204"/>
      <component glyphName="uni0307" x="142" y="-303" flags="0x4"/>
    </TTGlyph>
    <TTGlyph name="Lslash" xMin="43" yMin="0" xMax="542" yMax="654">
      <contour>
        <pt x="542" y="98" on="1"/>
        <pt x="542" y="0" on="1"/>
        <pt x="120" y="0" on="1"/>
        <pt x="120" y="213" on="1"/>
        <pt x="43" y="170" on="1"/>
        <pt x="43" y="261" on="1"/>
        <pt x="120" y="304" on="1"/>
        <pt x="120" y="654" on="1"/>
        <pt x="235" y="654" on="1"/>
        <pt x="235" y="360" on="1"/>
        <pt x="451" y="476" on="1"/>
        <pt x="451" y="385" on="1"/>
        <pt x="235" y="269" on="1"/>
        <pt x="235" y="98" on="1"/>
      </contour>
    </TTGlyph>
    <TTGlyph name="M" xMin="73" yMin="0" xMax="527" yMax="654">
      <contour>
        <pt x="73" y="654" on="1"/>
        <pt x="193" y="654" on="1"/>
        <pt x="272" y="400" on="1"/>
        <pt x="300" y="301" on="1"/>
        <pt x="303" y="301" on="1"/>
        <pt x="330" y="400" on="1"/>
        <pt x="407" y="654" on="1"/>
        <pt x="527" y="654" on="1"/>
        <pt x="527" y="0" on="1"/>
        <pt x="432" y="0" on="1"/>
        <pt x="432" y="290" on="1"/>
        <pt x="432" y="313" on="0"/>
        <pt x="435" y="379" on="0"/>
        <pt x="439" y="450" on="0"/>
        <pt x="444" y="516" on="0"/>
        <pt x="446" y="539" on="1"/>
        <pt x="443" y="539" on="1"/>
        <pt x="396" y="379" on="1"/>
        <pt x="327" y="176" on="1"/>
        <pt x="271" y="176" on="1"/>
        <pt x="201" y="379" on="1"/>
        <pt x="155" y="539" on="1"/>
        <pt x="152" y="539" on="1"/>
        <pt x="154" y="516" on="0"/>
        <pt x="159" y="450" on="0"/>
        <pt x="164" y="379" on="0"/>
        <pt x="167" y="313" on="0"/>
        <pt x="167" y="290" on="1"/>
        <pt x="167" y="0" on="1"/>
        <pt x="73" y="0" on="1"/>
      </contour>
    </TTGlyph>
    <TTGlyph name="N" xMin="74" yMin="0" xMax="526" yMax="654">
      <contour>
        <pt x="74" y="654" on="1"/>
        <pt x="192" y="654" on="1"/>
        <pt x="367" y="286" on="1"/>
        <pt x="428" y="147" on="1"/>
        <pt x="431" y="147" on="1"/>
        <pt x="427" y="198" on="0"/>
        <pt x="415" y="315" on="0"/>
        <pt x="415" y="370" on="1"/>
        <pt x="415" y="654" on="1"/>
        <pt x="526" y="654" on="1"/>
        <pt x="526" y="0" on="1"/>
        <pt x="408" y="0" on="1"/>
        <pt x="233" y="369" on="1"/>
        <pt x="172" y="507" on="1"/>
        <pt x="169" y="507" on="1"/>
        <pt x="173" y="455" on="0"/>
        <pt x="185" y="341" on="0"/>
        <pt x="185" y="286" on="1"/>
        <pt x="185" y="0" on="1"/>
        <pt x="74" y="0" on="1"/>
      </contour>
    </TTGlyph>
    <TTGlyph name="Nacute" xMin="74" yMin="0" xMax="526" yMax="820">
      <component glyphName="N" x="0" y="0" flags="0x204"/>
      <component glyphName="uni0301.cap" x="6" y="0" flags="0x4"/>
    </TTGlyph>
    <TTGlyph name="Ncaron" xMin="74" yMin="0" xMax="526" yMax="820">
      <component glyphName="N" x="0" y="0" flags="0x204"/>
      <component glyphName="uni030C.cap" x="6" y="0" flags="0x4"/>
    </TTGlyph>
    <TTGlyph name="Ntilde" xMin="74" yMin="0" xMax="526" yMax="829">
      <component glyphName="N" x="0" y="0" flags="0x204"/>
      <component glyphName="uni0303.cap" x="6" y="0" flags="0x4"/>
    </TTGlyph>
    <TTGlyph name="O" xMin="43" yMin="-12" xMax="557" yMax="666">
      <contour>
        <pt x="300" y="-12" on="1"/>
        <pt x="243" y="-12" on="0"/>
        <pt x="148" y="35" on="0"/>
        <pt x="81" y="124" on="0"/>
        <pt x="43" y="250" on="0"/>
        <pt x="43" y="330" on="1"/>
        <pt x="43" y="409" on="0"/>
        <pt x="81" y="534" on="0"/>
        <pt x="148" y="620" on="0"/>
        <pt x="243" y="666" on="0"/>
        <pt x="300" y="666" on="1"/>
        <pt x="357" y="666" on="0"/>
        <pt x="452" y="620" on="0"/>
        <pt x="519" y="534" on="0"/>
        <pt x="557" y="409" on="0"/>
        <pt x="557" y="330" on="1"/>
        <pt x="557" y="250" on="0"/>
        <pt x="519" y="124" on="0"/>
        <pt x="452" y="35" on="0"/>
        <pt x="357" y="-12" on="0"/>
      </contour>
      <contour>
        <pt x="300" y="89" on="1"/>
        <pt x="331" y="89" on="0"/>
        <pt x="382" y="123" on="0"/>
        <pt x="418" y="186" on="0"/>
        <pt x="438" y="275" on="0"/>
        <pt x="438" y="330" on="1"/>
        <pt x="438" y="440" on="0"/>
        <pt x="363" y="565" on="0"/>
        <pt x="300" y="565" on="1"/>
        <pt x="237" y="565" on="0"/>
        <pt x="162" y="440" on="0"/>
        <pt x="162" y="330" on="1"/>
        <pt x="162" y="275" on="0"/>
        <pt x="181" y="186" on="0"/>
        <pt x="217" y="123" on="0"/>
        <pt x="268" y="89" on="0"/>
      </contour>
    </TTGlyph>
    <TTGlyph name="OE" xMin="26" yMin="0" xMax="593" yMax="654">
      <contour>
        <pt x="26" y="330" on="1"/>
        <pt x="26" y="411" on="0"/>
        <pt x="65" y="532" on="0"/>
        <pt x="136" y="613" on="0"/>
        <pt x="236" y="654" on="0"/>
        <pt x="297" y="654" on="1"/>
        <pt x="583" y="654" on="1"/>
        <pt x="583" y="557" on="1"/>
        <pt x="406" y="557" on="1"/>
        <pt x="406" y="389" on="1"/>
        <pt x="540" y="389" on="1"/>
        <pt x="540" y="291" on="1"/>
        <pt x="406" y="291" on="1"/>
        <pt x="406" y="98" on="1"/>
        <pt x="593" y="98" on="1"/>
        <pt x="593" y="0" on="1"/>
        <pt x="292" y="0" on="1"/>
        <pt x="232" y="0" on="0"/>
        <pt x="134" y="42" on="0"/>
        <pt x="64" y="125" on="0"/>
        <pt x="26" y="249" on="0"/>
      </contour>
      <contour>
        <pt x="145" y="330" on="1"/>
        <pt x="145" y="208" on="0"/>
        <pt x="216" y="94" on="0"/>
        <pt x="284" y="94" on="1"/>
        <pt x="302" y="94" on="1"/>
        <pt x="302" y="560" on="1"/>
        <pt x="284" y="560" on="1"/>
        <pt x="216" y="560" on="0"/>
        <pt x="145" y="452" on="0"/>
      </contour>
    </TTGlyph>
    <TTGlyph name="Oacute" xMin="43" yMin="-12" xMax="557" yMax="820">
      <component glyphName="O" x="0" y="0" flags="0x204"/>
      <component glyphName="uni0301.cap" x="0" y="0" flags="0x4"/>
    </TTGlyph>
    <TTGlyph name="Ocircumflex" xMin="43" yMin="-12" xMax="557" yMax="820">
      <component glyphName="O" x="0" y="0" flags="0x204"/>
      <component glyphName="uni0302.cap" x="0" y="0" flags="0x4"/>
    </TTGlyph>
    <TTGlyph name="Odieresis" xMin="43" yMin="-12" xMax="557" yMax="827">
      <component glyphName="O" x="0" y="0" flags="0x204"/>
      <component glyphName="uni0308.cap" x="0" y="0" flags="0x4"/>
    </TTGlyph>
    <TTGlyph name="Ograve" xMin="43" yMin="-12" xMax="557" yMax="820">
      <component glyphName="O" x="0" y="0" flags="0x204"/>
      <component glyphName="uni0300.cap" x="0" y="0" flags="0x4"/>
    </TTGlyph>
    <TTGlyph name="Ohorn" xMin="43" yMin="-12" xMax="579" yMax="778">
      <contour>
        <pt x="300" y="89" on="1"/>
        <pt x="331" y="89" on="0"/>
        <pt x="382" y="123" on="0"/>
        <pt x="418" y="186" on="0"/>
        <pt x="438" y="275" on="0"/>
        <pt x="438" y="330" on="1"/>
        <pt x="438" y="440" on="0"/>
        <pt x="363" y="565" on="0"/>
        <pt x="300" y="565" on="1"/>
        <pt x="237" y="565" on="0"/>
        <pt x="162" y="440" on="0"/>
        <pt x="162" y="330" on="1"/>
        <pt x="162" y="275" on="0"/>
        <pt x="181" y="186" on="0"/>
        <pt x="217" y="123" on="0"/>
        <pt x="268" y="89" on="0"/>
      </contour>
      <contour>
        <pt x="553" y="778" on="1"/>
        <pt x="564" y="764" on="0"/>
        <pt x="579" y="728" on="0"/>
        <pt x="579" y="706" on="1"/>
        <pt x="579" y="658" on="0"/>
        <pt x="520" y="603" on="0"/>
        <pt x="473" y="592" on="1"/>
        <pt x="513" y="548" on="0"/>
        <pt x="557" y="417" on="0"/>
        <pt x="557" y="330" on="1"/>
        <pt x="557" y="250" on="0"/>
        <pt x="519" y="124" on="0"/>
        <pt x="452" y="35" on="0"/>
        <pt x="357" y="-12" on="0"/>
        <pt x="300" y="-12" on="1"/>
        <pt x="243" y="-12" on="0"/>
        <pt x="148" y="35" on="0"/>
        <pt x="81" y="124" on="0"/>
        <pt x="43" y="250" on="0"/>
        <pt x="43" y="330" on="1"/>
        <pt x="43" y="409" on="0"/>
        <pt x="81" y="534" on="0"/>
        <pt x="148" y="620" on="0"/>
        <pt x="243" y="666" on="0"/>
        <pt x="300" y="666" on="1"/>
        <pt x="366" y="666" on="0"/>
        <pt x="420" y="635" on="1"/>
        <pt x="452" y="641" on="0"/>
        <pt x="488" y="669" on="0"/>
        <pt x="488" y="698" on="1"/>
        <pt x="488" y="711" on="0"/>
        <pt x="479" y="733" on="0"/>
        <pt x="473" y="742" on="1"/>
      </contour>
    </TTGlyph>
    <TTGlyph name="Ohungarumlaut" xMin="43" yMin="-12" xMax="557" yMax="820">
      <component glyphName="O" x="0" y="0" flags="0x204"/>
      <component glyphName="uni030B.cap" x="0" y="0" flags="0x4"/>
    </TTGlyph>
    <TTGlyph name="Omacron" xMin="43" yMin="-12" xMax="557" yMax="800">
      <component glyphName="O" x="0" y="0" flags="0x204"/>
      <component glyphName="uni0304.cap" x="0" y="0" flags="0x4"/>
    </TTGlyph>
    <TTGlyph name="Oslash" xMin="38" yMin="-36" xMax="568" yMax="690">
      <contour>
        <pt x="215" y="132" on="1"/>
        <pt x="249" y="89" on="0"/>
        <pt x="300" y="89" on="1"/>
        <pt x="331" y="89" on="0"/>
        <pt x="382" y="123" on="0"/>
        <pt x="418" y="186" on="0"/>
        <pt x="438" y="275" on="0"/>
        <pt x="438" y="330" on="1"/>
        <pt x="438" y="392" on="0"/>
        <pt x="426" y="440" on="1"/>
      </contour>
      <contour>
        <pt x="389" y="520" on="1"/>
        <pt x="353" y="565" on="0"/>
        <pt x="300" y="565" on="1"/>
        <pt x="237" y="565" on="0"/>
        <pt x="162" y="440" on="0"/>
        <pt x="162" y="330" on="1"/>
        <pt x="162" y="261" on="0"/>
        <pt x="177" y="209" on="1"/>
      </contour>
      <contour>
        <pt x="503" y="553" on="1"/>
        <pt x="529" y="511" on="0"/>
        <pt x="557" y="399" on="0"/>
        <pt x="557" y="330" on="1"/>
        <pt x="557" y="250" on="0"/>
        <pt x="519" y="124" on="0"/>
        <pt x="452" y="35" on="0"/>
        <pt x="357" y="-12" on="0"/>
        <pt x="300" y="-12" on="1"/>
        <pt x="215" y="-12" on="0"/>
        <pt x="152" y="40" on="1"/>
        <pt x="100" y="-36" on="1"/>
        <pt x="38" y="6" on="1"/>
        <pt x="101" y="99" on="1"/>
        <pt x="73" y="142" on="0"/>
        <pt x="43" y="258" on="0"/>
        <pt x="43" y="330" on="1"/>
        <pt x="43" y="409" on="0"/>
        <pt x="81" y="534" on="0"/>
        <pt x="148" y="620" on="0"/>
        <pt x="243" y="666" on="0"/>
        <pt x="300" y="666" on="1"/>
        <pt x="389" y="666" on="0"/>
        <pt x="452" y="612" on="1"/>
        <pt x="505" y="690" on="1"/>
        <pt x="568" y="648" on="1"/>
      </contour>
    </TTGlyph>
    <TTGlyph name="Otilde" xMin="43" yMin="-12" xMax="557" yMax="829">
      <component glyphName="O" x="0" y="0" flags="0x204"/>
      <component glyphName="uni0303.cap" x="0" y="0" flags="0x4"/>
    </TTGlyph>
    <TTGlyph name="P" xMin="87" yMin="0" xMax="556" yMax="654">
      <contour>
        <pt x="87" y="654" on="1"/>
        <pt x="307" y="654" on="1"/>
        <pt x="361" y="654" on="0"/>
        <pt x="452" y="634" on="0"/>
        <pt x="519" y="586" on="0"/>
        <pt x="556" y="509" on="0"/>
        <pt x="556" y="452" on="1"/>
        <pt x="556" y="398" on="0"/>
        <pt x="518" y="318" on="0"/>
        <pt x="451" y="265" on="0"/>
        <pt x="360" y="240" on="0"/>
        <pt x="307" y="240" on="1"/>
        <pt x="203" y="240" on="1"/>
        <pt x="203" y="0" on="1"/>
        <pt x="87" y="0" on="1"/>
      </contour>
      <contour>
        <pt x="298" y="333" on="1"/>
        <pt x="442" y="333" on="0"/>
        <pt x="442" y="452" on="1"/>
        <pt x="442" y="514" on="0"/>
        <pt x="370" y="561" on="0"/>
        <pt x="298" y="561" on="1"/>
        <pt x="203" y="561" on="1"/>
        <pt x="203" y="333" on="1"/>
      </contour>
    </TTGlyph>
    <TTGlyph name="Q" xMin="43" yMin="-170" xMax="567" yMax="666">
      <contour>
        <pt x="161" y="330" on="1"/>
        <pt x="161" y="275" on="0"/>
        <pt x="180" y="185" on="0"/>
        <pt x="215" y="122" on="0"/>
        <pt x="266" y="88" on="0"/>
        <pt x="298" y="88" on="1"/>
        <pt x="329" y="88" on="0"/>
        <pt x="380" y="122" on="0"/>
        <pt x="415" y="185" on="0"/>
        <pt x="434" y="275" on="0"/>
        <pt x="434" y="330" on="1"/>
        <pt x="434" y="440" on="0"/>
        <pt x="361" y="566" on="0"/>
        <pt x="298" y="566" on="1"/>
        <pt x="234" y="566" on="0"/>
        <pt x="161" y="440" on="0"/>
      </contour>
      <contour>
        <pt x="567" y="-153" on="1"/>
        <pt x="550" y="-161" on="0"/>
        <pt x="508" y="-170" on="0"/>
        <pt x="482" y="-170" on="1"/>
        <pt x="390" y="-170" on="0"/>
        <pt x="271" y="-78" on="0"/>
        <pt x="243" y="-6" on="1"/>
        <pt x="198" y="4" on="0"/>
        <pt x="124" y="60" on="0"/>
        <pt x="71" y="146" on="0"/>
        <pt x="43" y="261" on="0"/>
        <pt x="43" y="330" on="1"/>
        <pt x="43" y="409" on="0"/>
        <pt x="80" y="534" on="0"/>
        <pt x="147" y="620" on="0"/>
        <pt x="241" y="666" on="0"/>
        <pt x="298" y="666" on="1"/>
        <pt x="355" y="666" on="0"/>
        <pt x="449" y="620" on="0"/>
        <pt x="516" y="534" on="0"/>
        <pt x="553" y="409" on="0"/>
        <pt x="553" y="330" on="1"/>
        <pt x="553" y="195" on="0"/>
        <pt x="451" y="22" on="0"/>
        <pt x="365" y="-3" on="1"/>
        <pt x="382" y="-41" on="0"/>
        <pt x="452" y="-76" on="0"/>
        <pt x="495" y="-76" on="1"/>
        <pt x="510" y="-76" on="0"/>
        <pt x="536" y="-69" on="0"/>
        <pt x="546" y="-64" on="1"/>
      </contour>
    </TTGlyph>
    <TTGlyph name="R" xMin="84" yMin="0" xMax="569" yMax="654">
      <contour>
        <pt x="200" y="348" on="1"/>
        <pt x="290" y="348" on="1"/>
        <pt x="358" y="348" on="0"/>
        <pt x="429" y="404" on="0"/>
        <pt x="429" y="460" on="1"/>
        <pt x="429" y="517" on="0"/>
        <pt x="358" y="561" on="0"/>
        <pt x="290" y="561" on="1"/>
        <pt x="200" y="561" on="1"/>
      </contour>
      <contour>
        <pt x="438" y="0" on="1"/>
        <pt x="298" y="256" on="1"/>
        <pt x="200" y="256" on="1"/>
        <pt x="200" y="0" on="1"/>
        <pt x="84" y="0" on="1"/>
        <pt x="84" y="654" on="1"/>
        <pt x="302" y="654" on="1"/>
        <pt x="353" y="654" on="0"/>
        <pt x="441" y="634" on="0"/>
        <pt x="506" y="589" on="0"/>
        <pt x="543" y="515" on="0"/>
        <pt x="543" y="460" on="1"/>
        <pt x="543" y="385" on="0"/>
        <pt x="472" y="293" on="0"/>
        <pt x="413" y="273" on="1"/>
        <pt x="569" y="0" on="1"/>
      </contour>
    </TTGlyph>
    <TTGlyph name="Racute" xMin="84" yMin="0" xMax="569" yMax="820">
      <component glyphName="R" x="0" y="0" flags="0x204"/>
      <component glyphName="uni0301.cap" x="4" y="0" flags="0x4"/>
    </TTGlyph>
    <TTGlyph name="Rcaron" xMin="84" yMin="0" xMax="569" yMax="820">
      <component glyphName="R" x="0" y="0" flags="0x204"/>
      <component glyphName="uni030C.cap" x="4" y="0" flags="0x4"/>
    </TTGlyph>
    <TTGlyph name="S" xMin="58" yMin="-12" xMax="544" yMax="666">
      <contour>
        <pt x="126" y="163" on="1"/>
        <pt x="163" y="130" on="0"/>
        <pt x="256" y="89" on="0"/>
        <pt x="304" y="89" on="1"/>
        <pt x="364" y="89" on="0"/>
        <pt x="426" y="135" on="0"/>
        <pt x="426" y="173" on="1"/>
        <pt x="426" y="193" on="0"/>
        <pt x="410" y="221" on="0"/>
        <pt x="381" y="242" on="0"/>
        <pt x="340" y="260" on="0"/>
        <pt x="316" y="269" on="1"/>
        <pt x="227" y="308" on="1"/>
        <pt x="201" y="318" on="0"/>
        <pt x="151" y="348" on="0"/>
        <pt x="111" y="390" on="0"/>
        <pt x="87" y="446" on="0"/>
        <pt x="87" y="482" on="1"/>
        <pt x="87" y="521" on="0"/>
        <pt x="121" y="588" on="0"/>
        <pt x="181" y="638" on="0"/>
        <pt x="264" y="666" on="0"/>
        <pt x="314" y="666" on="1"/>
        <pt x="374" y="666" on="0"/>
        <pt x="483" y="621" on="0"/>
        <pt x="524" y="583" on="1"/>
        <pt x="464" y="509" on="1"/>
        <pt x="431" y="535" on="0"/>
        <pt x="359" y="565" on="0"/>
        <pt x="314" y="565" on="1"/>
        <pt x="263" y="565" on="0"/>
        <pt x="204" y="524" on="0"/>
        <pt x="204" y="488" on="1"/>
        <pt x="204" y="469" on="0"/>
        <pt x="222" y="442" on="0"/>
        <pt x="253" y="421" on="0"/>
        <pt x="294" y="405" on="0"/>
        <pt x="316" y="396" on="1"/>
        <pt x="402" y="359" on="1"/>
        <pt x="433" y="347" on="0"/>
        <pt x="485" y="315" on="0"/>
        <pt x="523" y="273" on="0"/>
        <pt x="544" y="218" on="0"/>
        <pt x="544" y="182" on="1"/>
        <pt x="544" y="142" on="0"/>
        <pt x="511" y="72" on="0"/>
        <pt x="449" y="19" on="0"/>
        <pt x="359" y="-12" on="0"/>
        <pt x="302" y="-12" on="1"/>
        <pt x="233" y="-12" on="0"/>
        <pt x="107" y="38" on="0"/>
        <pt x="58" y="84" on="1"/>
      </contour>
    </TTGlyph>
    <TTGlyph name="Sacute" xMin="58" yMin="-12" xMax="544" yMax="820">
      <component glyphName="S" x="0" y="0" flags="0x204"/>
      <component glyphName="uni0301.cap" x="9" y="0" flags="0x4"/>
    </TTGlyph>
    <TTGlyph name="Scaron" xMin="58" yMin="-12" xMax="544" yMax="820">
      <component glyphName="S" x="0" y="0" flags="0x204"/>
      <component glyphName="uni030C.cap" x="9" y="0" flags="0x4"/>
    </TTGlyph>
    <TTGlyph name="Scircumflex" xMin="58" yMin="-12" xMax="544" yMax="820">
      <component glyphName="S" x="0" y="0" flags="0x204"/>
      <component glyphName="uni0302.cap" x="9" y="0" flags="0x4"/>
    </TTGlyph>
    <TTGlyph name="T" xMin="36" yMin="0" xMax="564" yMax="654">
      <contour>
        <pt x="242" y="556" on="1"/>
        <pt x="36" y="556" on="1"/>
        <pt x="36" y="654" on="1"/>
        <pt x="564" y="654" on="1"/>
        <pt x="564" y="556" on="1"/>
        <pt x="358" y="556" on="1"/>
        <pt x="358" y="0" on="1"/>
        <pt x="242" y="0" on="1"/>
      </contour>
    </TTGlyph>
    <TTGlyph name="Tcaron" xMin="36" yMin="0" xMax="564" yMax="820">
      <component glyphName="T" x="0" y="0" flags="0x204"/>
      <component glyphName="uni030C.cap" x="0" y="0" flags="0x4"/>
    </TTGlyph>
    <TTGlyph name="Thorn" xMin="87" yMin="0" xMax="556" yMax="654">
      <contour>
        <pt x="87" y="654" on="1"/>
        <pt x="203" y="654" on="1"/>
        <pt x="203" y="550" on="1"/>
        <pt x="307" y="550" on="1"/>
        <pt x="361" y="550" on="0"/>
        <pt x="452" y="529" on="0"/>
        <pt x="518" y="482" on="0"/>
        <pt x="556" y="405" on="0"/>
        <pt x="556" y="348" on="1"/>
        <pt x="556" y="293" on="0"/>
        <pt x="518" y="213" on="0"/>
        <pt x="451" y="161" on="0"/>
        <pt x="360" y="136" on="0"/>
        <pt x="307" y="136" on="1"/>
        <pt x="203" y="136" on="1"/>
        <pt x="203" y="0" on="1"/>
        <pt x="87" y="0" on="1"/>
      </contour>
      <contour>
        <pt x="297" y="229" on="1"/>
        <pt x="371" y="229" on="0"/>
        <pt x="441" y="288" on="0"/>
        <pt x="441" y="348" on="1"/>
        <pt x="441" y="409" on="0"/>
        <pt x="369" y="457" on="0"/>
        <pt x="297" y="457" on="1"/>
        <pt x="203" y="457" on="1"/>
        <pt x="203" y="229" on="1"/>
      </contour>
    </TTGlyph>
    <TTGlyph name="U" xMin="72" yMin="-12" xMax="528" yMax="654">
      <contour>
        <pt x="72" y="654" on="1"/>
        <pt x="188" y="654" on="1"/>
        <pt x="188" y="241" on="1"/>
        <pt x="188" y="160" on="0"/>
        <pt x="248" y="89" on="0"/>
        <pt x="301" y="89" on="1"/>
        <pt x="355" y="89" on="0"/>
        <pt x="417" y="160" on="0"/>
        <pt x="417" y="241" on="1"/>
        <pt x="417" y="654" on="1"/>
        <pt x="528" y="654" on="1"/>
        <pt x="528" y="250" on="1"/>
        <pt x="528" y="115" on="0"/>
        <pt x="410" y="-12" on="0"/>
        <pt x="301" y="-12" on="1"/>
        <pt x="194" y="-12" on="0"/>
        <pt x="72" y="116" on="0"/>
        <pt x="72" y="250" on="1"/>
      </contour>
    </TTGlyph>
    <TTGlyph name="Uacute" xMin="72" yMin="-12" xMax="528" yMax="820">
      <component glyphName="U" x="0" y="0" flags="0x204"/>
      <component glyphName="uni0301.cap" x="0" y="0" flags="0x4"/>
    </TTGlyph>
    <TTGlyph name="Ubreve" xMin="72" yMin="-12" xMax="528" yMax="820">
      <component glyphName="U" x="0" y="0" flags="0x204"/>
      <component glyphName="uni0306.cap" x="0" y="0" flags="0x4"/>
    </TTGlyph>
    <TTGlyph name="Ucircumflex" xMin="72" yMin="-12" xMax="528" yMax="820">
      <component glyphName="U" x="0" y="0" flags="0x204"/>
      <component glyphName="uni0302.cap" x="0" y="0" flags="0x4"/>
    </TTGlyph>
    <TTGlyph name="Udieresis" xMin="72" yMin="-12" xMax="528" yMax="827">
      <component glyphName="U" x="0" y="0" flags="0x204"/>
      <component glyphName="uni0308.cap" x="0" y="0" flags="0x4"/>
    </TTGlyph>
    <TTGlyph name="Ugrave" xMin="72" yMin="-12" xMax="528" yMax="820">
      <component glyphName="U" x="0" y="0" flags="0x204"/>
      <component glyphName="uni0300.cap" x="0" y="0" flags="0x4"/>
    </TTGlyph>
    <TTGlyph name="Uhorn" xMin="72" yMin="-12" xMax="646" yMax="798">
      <contour>
        <pt x="619" y="798" on="1"/>
        <pt x="630" y="784" on="0"/>
        <pt x="646" y="748" on="0"/>
        <pt x="646" y="726" on="1"/>
        <pt x="646" y="673" on="0"/>
        <pt x="577" y="619" on="0"/>
        <pt x="528" y="609" on="1"/>
        <pt x="528" y="250" on="1"/>
        <pt x="528" y="115" on="0"/>
        <pt x="410" y="-12" on="0"/>
        <pt x="301" y="-12" on="1"/>
        <pt x="194" y="-12" on="0"/>
        <pt x="72" y="116" on="0"/>
        <pt x="72" y="250" on="1"/>
        <pt x="72" y="654" on="1"/>
        <pt x="188" y="654" on="1"/>
        <pt x="188" y="241" on="1"/>
        <pt x="188" y="160" on="0"/>
        <pt x="248" y="89" on="0"/>
        <pt x="301" y="89" on="1"/>
        <pt x="355" y="89" on="0"/>
        <pt x="417" y="160" on="0"/>
        <pt x="417" y="241" on="1"/>
        <pt x="417" y="654" on="1"/>
        <pt x="470" y="654" on="1"/>
        <pt x="505" y="657" on="0"/>
        <pt x="554" y="682" on="0"/>
        <pt x="554" y="718" on="1"/>
        <pt x="554" y="731" on="0"/>
        <pt x="545" y="753" on="0"/>
        <pt x="539" y="762" on="1"/>
      </contour>
    </TTGlyph>
    <TTGlyph name="Uhungarumlaut" xMin="72" yMin="-12" xMax="528" yMax="820">
      <component glyphName="U" x="0" y="0" flags="0x204"/>
      <component glyphName="uni030B.cap" x="0" y="0" flags="0x4"/>
    </TTGlyph>
    <TTGlyph name="Umacron" xMin="72" yMin="-12" xMax="528" yMax="800">
      <component glyphName="U" x="0" y="0" flags="0x204"/>
      <component glyphName="uni0304.cap" x="0" y="0" flags="0x4"/>
    </TTGlyph>
    <TTGlyph name="Uogonek" xMin="72" yMin="-218" xMax="528" yMax="654">
      <contour>
        <pt x="72" y="654" on="1"/>
        <pt x="188" y="654" on="1"/>
        <pt x="188" y="241" on="1"/>
        <pt x="188" y="160" on="0"/>
        <pt x="248" y="89" on="0"/>
        <pt x="301" y="89" on="1"/>
        <pt x="354" y="89" on="0"/>
        <pt x="417" y="160" on="0"/>
        <pt x="417" y="241" on="1"/>
        <pt x="417" y="654" on="1"/>
        <pt x="528" y="654" on="1"/>
        <pt x="528" y="250" on="1"/>
        <pt x="528" y="151" on="0"/>
        <pt x="464" y="34" on="0"/>
        <pt x="404" y="7" on="1"/>
        <pt x="349" y="-19" on="0"/>
        <pt x="307" y="-74" on="0"/>
        <pt x="307" y="-98" on="1"/>
        <pt x="307" y="-120" on="0"/>
        <pt x="335" y="-140" on="0"/>
        <pt x="352" y="-140" on="1"/>
        <pt x="363" y="-140" on="0"/>
        <pt x="382" y="-132" on="0"/>
        <pt x="390" y="-126" on="1"/>
        <pt x="418" y="-186" on="1"/>
        <pt x="401" y="-200" on="0"/>
        <pt x="349" y="-218" on="0"/>
        <pt x="326" y="-218" on="1"/>
        <pt x="281" y="-218" on="0"/>
        <pt x="220" y="-172" on="0"/>
        <pt x="220" y="-127" on="1"/>
        <pt x="220" y="-105" on="0"/>
        <pt x="234" y="-69" on="0"/>
        <pt x="255" y="-40" on="0"/>
        <pt x="277" y="-18" on="0"/>
        <pt x="285" y="-10" on="1"/>
        <pt x="176" y="-6" on="0"/>
        <pt x="72" y="128" on="0"/>
        <pt x="72" y="250" on="1"/>
      </contour>
    </TTGlyph>
    <TTGlyph name="Uring" xMin="72" yMin="-12" xMax="528" yMax="884">
      <component glyphName="U" x="0" y="0" flags="0x204"/>
      <component glyphName="uni030A.cap" x="0" y="0" flags="0x4"/>
    </TTGlyph>
    <TTGlyph name="Utilde" xMin="72" yMin="-12" xMax="528" yMax="829">
      <component glyphName="U" x="0" y="0" flags="0x204"/>
      <component glyphName="uni0303.cap" x="0" y="0" flags="0x4"/>
    </TTGlyph>
    <TTGlyph name="V" xMin="28" yMin="0" xMax="572" yMax="654">
      <contour>
        <pt x="28" y="654" on="1"/>
        <pt x="151" y="654" on="1"/>
        <pt x="243" y="325" on="1"/>
        <pt x="259" y="269" on="0"/>
        <pt x="284" y="169" on="0"/>
        <pt x="301" y="112" on="1"/>
        <pt x="305" y="112" on="1"/>
        <pt x="322" y="169" on="0"/>
        <pt x="347" y="269" on="0"/>
        <pt x="362" y="325" on="1"/>
        <pt x="453" y="654" on="1"/>
        <pt x="572" y="654" on="1"/>
        <pt x="369" y="0" on="1"/>
        <pt x="232" y="0" on="1"/>
      </contour>
    </TTGlyph>
    <TTGlyph name="W" xMin="7" yMin="0" xMax="593" yMax="654">
      <contour>
        <pt x="7" y="654" on="1"/>
        <pt x="124" y="654" on="1"/>
        <pt x="160" y="275" on="1"/>
        <pt x="162" y="233" on="0"/>
        <pt x="168" y="153" on="0"/>
        <pt x="170" y="111" on="1"/>
        <pt x="173" y="111" on="1"/>
        <pt x="181" y="153" on="0"/>
        <pt x="202" y="234" on="0"/>
        <pt x="211" y="275" on="1"/>
        <pt x="268" y="487" on="1"/>
        <pt x="342" y="487" on="1"/>
        <pt x="398" y="275" on="1"/>
        <pt x="406" y="235" on="0"/>
        <pt x="427" y="153" on="0"/>
        <pt x="435" y="111" on="1"/>
        <pt x="439" y="111" on="1"/>
        <pt x="441" y="153" on="0"/>
        <pt x="447" y="235" on="0"/>
        <pt x="449" y="275" on="1"/>
        <pt x="483" y="654" on="1"/>
        <pt x="593" y="654" on="1"/>
        <pt x="504" y="0" on="1"/>
        <pt x="381" y="0" on="1"/>
        <pt x="323" y="239" on="1"/>
        <pt x="316" y="270" on="0"/>
        <pt x="306" y="332" on="0"/>
        <pt x="302" y="361" on="1"/>
        <pt x="299" y="361" on="1"/>
        <pt x="294" y="332" on="0"/>
        <pt x="284" y="270" on="0"/>
        <pt x="277" y="239" on="1"/>
        <pt x="222" y="0" on="1"/>
        <pt x="101" y="0" on="1"/>
      </contour>
    </TTGlyph>
    <TTGlyph name="Wacute" xMin="7" yMin="0" xMax="593" yMax="820">
      <component glyphName="W" x="0" y="0" flags="0x204"/>
      <component glyphName="uni0301.cap" x="0" y="0" flags="0x4"/>
    </TTGlyph>
    <TTGlyph name="Wcircumflex" xMin="7" yMin="0" xMax="593" yMax="820">
      <component glyphName="W" x="0" y="0" flags="0x204"/>
      <component glyphName="uni0302.cap" x="0" y="0" flags="0x4"/>
    </TTGlyph>
    <TTGlyph name="Wdieresis" xMin="7" yMin="0" xMax="593" yMax="827">
      <component glyphName="W" x="0" y="0" flags="0x204"/>
      <component glyphName="uni0308.cap" x="0" y="0" flags="0x4"/>
    </TTGlyph>
    <TTGlyph name="Wgrave" xMin="7" yMin="0" xMax="593" yMax="820">
      <component glyphName="W" x="0" y="0" flags="0x204"/>
      <component glyphName="uni0300.cap" x="0" y="0" flags="0x4"/>
    </TTGlyph>
    <TTGlyph name="X" xMin="36" yMin="0" xMax="564" yMax="654">
      <contour>
        <pt x="228" y="337" on="1"/>
        <pt x="48" y="654" on="1"/>
        <pt x="177" y="654" on="1"/>
        <pt x="254" y="509" on="1"/>
        <pt x="266" y="486" on="0"/>
        <pt x="290" y="438" on="0"/>
        <pt x="305" y="409" on="1"/>
        <pt x="309" y="409" on="1"/>
        <pt x="322" y="438" on="0"/>
        <pt x="344" y="486" on="0"/>
        <pt x="355" y="509" on="1"/>
        <pt x="429" y="654" on="1"/>
        <pt x="552" y="654" on="1"/>
        <pt x="372" y="332" on="1"/>
        <pt x="564" y="0" on="1"/>
        <pt x="436" y="0" on="1"/>
        <pt x="351" y="154" on="1"/>
        <pt x="337" y="180" on="0"/>
        <pt x="311" y="231" on="0"/>
        <pt x="296" y="261" on="1"/>
        <pt x="292" y="261" on="1"/>
        <pt x="278" y="231" on="0"/>
        <pt x="254" y="180" on="0"/>
        <pt x="241" y="154" on="1"/>
        <pt x="159" y="0" on="1"/>
        <pt x="36" y="0" on="1"/>
      </contour>
    </TTGlyph>
    <TTGlyph name="Y" xMin="27" yMin="0" xMax="573" yMax="654">
      <contour>
        <pt x="242" y="227" on="1"/>
        <pt x="27" y="654" on="1"/>
        <pt x="150" y="654" on="1"/>
        <pt x="232" y="478" on="1"/>
        <pt x="249" y="440" on="0"/>
        <pt x="282" y="367" on="0"/>
        <pt x="299" y="327" on="1"/>
        <pt x="303" y="327" on="1"/>
        <pt x="321" y="367" on="0"/>
        <pt x="355" y="441" on="0"/>
        <pt x="372" y="479" on="1"/>
        <pt x="453" y="654" on="1"/>
        <pt x="573" y="654" on="1"/>
        <pt x="358" y="227" on="1"/>
        <pt x="358" y="0" on="1"/>
        <pt x="242" y="0" on="1"/>
      </contour>
    </TTGlyph>
    <TTGlyph name="Yacute" xMin="27" yMin="0" xMax="573" yMax="820">
      <component glyphName="Y" x="0" y="0" flags="0x204"/>
      <component glyphName="uni0301.cap" x="0" y="0" flags="0x4"/>
    </TTGlyph>
    <TTGlyph name="Ycircumflex" xMin="27" yMin="0" xMax="573" yMax="820">
      <component glyphName="Y" x="0" y="0" flags="0x204"/>
      <component glyphName="uni0302.cap" x="0" y="0" flags="0x4"/>
    </TTGlyph>
    <TTGlyph name="Ydieresis" xMin="27" yMin="0" xMax="573" yMax="827">
      <component glyphName="Y" x="0" y="0" flags="0x204"/>
      <component glyphName="uni0308.cap" x="0" y="0" flags="0x4"/>
    </TTGlyph>
    <TTGlyph name="Ygrave" xMin="27" yMin="0" xMax="573" yMax="820">
      <component glyphName="Y" x="0" y="0" flags="0x204"/>
      <component glyphName="uni0300.cap" x="0" y="0" flags="0x4"/>
    </TTGlyph>
    <TTGlyph name="Z" xMin="61" yMin="0" xMax="543" yMax="654">
      <contour>
        <pt x="61" y="70" on="1"/>
        <pt x="396" y="557" on="1"/>
        <pt x="91" y="557" on="1"/>
        <pt x="91" y="654" on="1"/>
        <pt x="539" y="654" on="1"/>
        <pt x="539" y="584" on="1"/>
        <pt x="203" y="98" on="1"/>
        <pt x="543" y="98" on="1"/>
        <pt x="543" y="0" on="1"/>
        <pt x="61" y="0" on="1"/>
      </contour>
    </TTGlyph>
    <TTGlyph name="Zacute" xMin="61" yMin="0" xMax="543" yMax="820">
      <component glyphName="Z" x="0" y="0" flags="0x204"/>
      <component glyphName="uni0301.cap" x="15" y="0" flags="0x4"/>
    </TTGlyph>
    <TTGlyph name="Zcaron" xMin="61" yMin="0" xMax="543" yMax="820">
      <component glyphName="Z" x="0" y="0" flags="0x204"/>
      <component glyphName="uni030C.cap" x="15" y="0" flags="0x4"/>
    </TTGlyph>
    <TTGlyph name="Zdotaccent" xMin="61" yMin="0" xMax="543" yMax="838">
      <component glyphName="Z" x="0" y="0" flags="0x204"/>
      <component glyphName="uni0307.cap" x="15" y="0" flags="0x4"/>
    </TTGlyph>
    <TTGlyph name="a" xMin="71" yMin="-12" xMax="525" yMax="503">
      <contour>
        <pt x="71" y="132" on="1"/>
        <pt x="71" y="173" on="0"/>
        <pt x="109" y="236" on="0"/>
        <pt x="191" y="280" on="0"/>
        <pt x="319" y="308" on="0"/>
        <pt x="410" y="314" on="1"/>
        <pt x="407" y="356" on="0"/>
        <pt x="353" y="410" on="0"/>
        <pt x="293" y="410" on="1"/>
        <pt x="251" y="410" on="0"/>
        <pt x="170" y="379" on="0"/>
        <pt x="132" y="358" on="1"/>
        <pt x="90" y="435" on="1"/>
        <pt x="135" y="461" on="0"/>
        <pt x="251" y="503" on="0"/>
        <pt x="314" y="503" on="1"/>
        <pt x="417" y="503" on="0"/>
        <pt x="525" y="394" on="0"/>
        <pt x="525" y="291" on="1"/>
        <pt x="525" y="0" on="1"/>
        <pt x="431" y="0" on="1"/>
        <pt x="422" y="61" on="1"/>
        <pt x="419" y="61" on="1"/>
        <pt x="380" y="31" on="0"/>
        <pt x="285" y="-12" on="0"/>
        <pt x="235" y="-12" on="1"/>
        <pt x="199" y="-12" on="0"/>
        <pt x="139" y="9" on="0"/>
        <pt x="95" y="47" on="0"/>
        <pt x="71" y="100" on="0"/>
      </contour>
      <contour>
        <pt x="182" y="141" on="1"/>
        <pt x="182" y="108" on="0"/>
        <pt x="233" y="78" on="0"/>
        <pt x="270" y="78" on="1"/>
        <pt x="307" y="78" on="0"/>
        <pt x="376" y="111" on="0"/>
        <pt x="410" y="138" on="1"/>
        <pt x="410" y="242" on="1"/>
        <pt x="344" y="237" on="0"/>
        <pt x="256" y="220" on="0"/>
        <pt x="204" y="194" on="0"/>
        <pt x="182" y="161" on="0"/>
      </contour>
    </TTGlyph>
    <TTGlyph name="a.a" xMin="53" yMin="-12" xMax="518" yMax="503">
      <component glyphName="uni0251" x="0" y="0" flags="0x204"/>
    </TTGlyph>
    <TTGlyph name="a.supa" xMin="133" yMin="252" xMax="445" yMax="593">
      <contour>
        <pt x="219" y="423" on="1"/>
        <pt x="219" y="372" on="0"/>
        <pt x="259" y="321" on="0"/>
        <pt x="293" y="321" on="1"/>
        <pt x="312" y="321" on="0"/>
        <pt x="345" y="336" on="0"/>
        <pt x="361" y="354" on="1"/>
        <pt x="361" y="500" on="1"/>
        <pt x="344" y="514" on="0"/>
        <pt x="310" y="525" on="0"/>
        <pt x="294" y="525" on="1"/>
        <pt x="264" y="525" on="0"/>
        <pt x="219" y="473" on="0"/>
      </contour>
      <contour>
        <pt x="133" y="422" on="1"/>
        <pt x="133" y="462" on="0"/>
        <pt x="157" y="526" on="0"/>
        <pt x="196" y="570" on="0"/>
        <pt x="248" y="593" on="0"/>
        <pt x="277" y="593" on="1"/>
        <pt x="330" y="593" on="0"/>
        <pt x="369" y="554" on="1"/>
        <pt x="372" y="554" on="1"/>
        <pt x="379" y="585" on="1"/>
        <pt x="445" y="585" on="1"/>
        <pt x="445" y="260" on="1"/>
        <pt x="376" y="260" on="1"/>
        <pt x="370" y="294" on="1"/>
        <pt x="368" y="294" on="1"/>
        <pt x="349" y="277" on="0"/>
        <pt x="298" y="252" on="0"/>
        <pt x="272" y="252" on="1"/>
        <pt x="209" y="252" on="0"/>
        <pt x="133" y="341" on="0"/>
      </contour>
    </TTGlyph>
    <TTGlyph name="a.sups" xMin="161" yMin="252" xMax="448" yMax="593">
      <contour>
        <pt x="161" y="348" on="1"/>
        <pt x="161" y="401" on="0"/>
        <pt x="258" y="458" on="0"/>
        <pt x="364" y="469" on="1"/>
        <pt x="362" y="494" on="0"/>
        <pt x="333" y="527" on="0"/>
        <pt x="300" y="527" on="1"/>
        <pt x="276" y="527" on="0"/>
        <pt x="227" y="509" on="0"/>
        <pt x="204" y="495" on="1"/>
        <pt x="173" y="551" on="1"/>
        <pt x="202" y="568" on="0"/>
        <pt x="276" y="593" on="0"/>
        <pt x="316" y="593" on="1"/>
        <pt x="380" y="593" on="0"/>
        <pt x="448" y="521" on="0"/>
        <pt x="448" y="451" on="1"/>
        <pt x="448" y="260" on="1"/>
        <pt x="379" y="260" on="1"/>
        <pt x="373" y="295" on="1"/>
        <pt x="371" y="295" on="1"/>
        <pt x="348" y="277" on="0"/>
        <pt x="293" y="252" on="0"/>
        <pt x="264" y="252" on="1"/>
        <pt x="219" y="252" on="0"/>
        <pt x="161" y="306" on="0"/>
      </contour>
      <contour>
        <pt x="242" y="355" on="1"/>
        <pt x="242" y="335" on="0"/>
        <pt x="270" y="317" on="0"/>
        <pt x="290" y="317" on="1"/>
        <pt x="310" y="317" on="0"/>
        <pt x="347" y="334" on="0"/>
        <pt x="364" y="349" on="1"/>
        <pt x="364" y="417" on="1"/>
        <pt x="296" y="409" on="0"/>
        <pt x="242" y="378" on="0"/>
      </contour>
    </TTGlyph>
    <TTGlyph name="aacute" xMin="71" yMin="-12" xMax="525" yMax="731">
      <component glyphName="a" x="0" y="0" flags="0x204"/>
      <component glyphName="uni0301" x="11" y="0" flags="0x4"/>
    </TTGlyph>
    <TTGlyph name="aacute.a" xMin="53" yMin="-12" xMax="518" yMax="731">
      <component glyphName="uni0251" x="0" y="0" flags="0x204"/>
      <component glyphName="uni0301" x="10" y="0" flags="0x4"/>
    </TTGlyph>
    <TTGlyph name="abreve" xMin="71" yMin="-12" xMax="525" yMax="720">
      <component glyphName="a" x="0" y="0" flags="0x204"/>
      <component glyphName="uni0306" x="11" y="0" flags="0x4"/>
    </TTGlyph>
    <TTGlyph name="abreve.a" xMin="53" yMin="-12" xMax="518" yMax="720">
      <component glyphName="uni0251" x="0" y="0" flags="0x204"/>
      <component glyphName="uni0306" x="10" y="0" flags="0x4"/>
    </TTGlyph>
    <TTGlyph name="acircumflex" xMin="71" yMin="-12" xMax="525" yMax="731">
      <component glyphName="a" x="0" y="0" flags="0x204"/>
      <component glyphName="uni0302" x="11" y="0" flags="0x4"/>
    </TTGlyph>
    <TTGlyph name="acircumflex.a" xMin="53" yMin="-12" xMax="518" yMax="731">
      <component glyphName="uni0251" x="0" y="0" flags="0x204"/>
      <component glyphName="uni0302" x="10" y="0" flags="0x4"/>
    </TTGlyph>
    <TTGlyph name="acute" xMin="226" yMin="573" xMax="436" yMax="731">
      <component glyphName="uni0301" x="0" y="0" flags="0x204"/>
    </TTGlyph>
    <TTGlyph name="adieresis" xMin="71" yMin="-12" xMax="525" yMax="714">
      <component glyphName="a" x="0" y="0" flags="0x204"/>
      <component glyphName="uni0308" x="11" y="0" flags="0x4"/>
    </TTGlyph>
    <TTGlyph name="adieresis.a" xMin="53" yMin="-12" xMax="518" yMax="714">
      <component glyphName="uni0251" x="0" y="0" flags="0x204"/>
      <component glyphName="uni0308" x="10" y="0" flags="0x4"/>
    </TTGlyph>
    <TTGlyph name="ae" xMin="16" yMin="-12" xMax="595" yMax="503">
      <contour>
        <pt x="16" y="134" on="1"/>
        <pt x="16" y="209" on="0"/>
        <pt x="134" y="294" on="0"/>
        <pt x="253" y="314" on="1"/>
        <pt x="251" y="359" on="0"/>
        <pt x="219" y="411" on="0"/>
        <pt x="181" y="411" on="1"/>
        <pt x="158" y="411" on="0"/>
        <pt x="98" y="389" on="0"/>
        <pt x="73" y="373" on="1"/>
        <pt x="31" y="450" on="1"/>
        <pt x="67" y="472" on="0"/>
        <pt x="147" y="503" on="0"/>
        <pt x="191" y="503" on="1"/>
        <pt x="237" y="503" on="0"/>
        <pt x="294" y="456" on="0"/>
        <pt x="309" y="418" on="1"/>
        <pt x="334" y="460" on="0"/>
        <pt x="398" y="503" on="0"/>
        <pt x="444" y="503" on="1"/>
        <pt x="481" y="503" on="0"/>
        <pt x="538" y="466" on="0"/>
        <pt x="576" y="403" on="0"/>
        <pt x="595" y="319" on="0"/>
        <pt x="595" y="272" on="1"/>
        <pt x="595" y="255" on="0"/>
        <pt x="592" y="225" on="0"/>
        <pt x="590" y="214" on="1"/>
        <pt x="347" y="214" on="1"/>
        <pt x="353" y="151" on="0"/>
        <pt x="406" y="79" on="0"/>
        <pt x="454" y="79" on="1"/>
        <pt x="478" y="79" on="0"/>
        <pt x="520" y="94" on="0"/>
        <pt x="540" y="108" on="1"/>
        <pt x="580" y="33" on="1"/>
        <pt x="553" y="13" on="0"/>
        <pt x="484" y="-12" on="0"/>
        <pt x="450" y="-12" on="1"/>
        <pt x="396" y="-12" on="0"/>
        <pt x="324" y="33" on="0"/>
        <pt x="300" y="72" on="1"/>
        <pt x="259" y="30" on="0"/>
        <pt x="187" y="-12" on="0"/>
        <pt x="150" y="-12" on="1"/>
        <pt x="87" y="-12" on="0"/>
        <pt x="16" y="69" on="0"/>
      </contour>
      <contour>
        <pt x="502" y="287" on="1"/>
        <pt x="502" y="313" on="0"/>
        <pt x="495" y="359" on="0"/>
        <pt x="479" y="394" on="0"/>
        <pt x="453" y="414" on="0"/>
        <pt x="433" y="414" on="1"/>
        <pt x="398" y="414" on="0"/>
        <pt x="351" y="350" on="0"/>
        <pt x="346" y="287" on="1"/>
      </contour>
      <contour>
        <pt x="121" y="142" on="1"/>
        <pt x="121" y="110" on="0"/>
        <pt x="153" y="78" on="0"/>
        <pt x="180" y="78" on="1"/>
        <pt x="200" y="78" on="0"/>
        <pt x="248" y="105" on="0"/>
        <pt x="268" y="130" on="1"/>
        <pt x="261" y="150" on="0"/>
        <pt x="254" y="196" on="0"/>
        <pt x="253" y="219" on="1"/>
        <pt x="252" y="242" on="1"/>
        <pt x="182" y="229" on="0"/>
        <pt x="121" y="179" on="0"/>
      </contour>
    </TTGlyph>
    <TTGlyph name="agrave" xMin="71" yMin="-12" xMax="525" yMax="731">
      <component glyphName="a" x="0" y="0" flags="0x204"/>
      <component glyphName="uni0300" x="11" y="0" flags="0x4"/>
    </TTGlyph>
    <TTGlyph name="agrave.a" xMin="53" yMin="-12" xMax="518" yMax="731">
      <component glyphName="uni0251" x="0" y="0" flags="0x204"/>
      <component glyphName="uni0300" x="10" y="0" flags="0x4"/>
    </TTGlyph>
    <TTGlyph name="amacron" xMin="71" yMin="-12" xMax="525" yMax="672">
      <component glyphName="a" x="0" y="0" flags="0x204"/>
      <component glyphName="uni0304" x="11" y="0" flags="0x4"/>
    </TTGlyph>
    <TTGlyph name="amacron.a" xMin="53" yMin="-12" xMax="518" yMax="672">
      <component glyphName="uni0251" x="0" y="0" flags="0x204"/>
      <component glyphName="uni0304" x="10" y="0" flags="0x4"/>
    </TTGlyph>
    <TTGlyph name="ampersand" xMin="32" yMin="-12" xMax="582" yMax="666">
      <contour>
        <pt x="142" y="179" on="1"/>
        <pt x="142" y="133" on="0"/>
        <pt x="203" y="77" on="0"/>
        <pt x="249" y="77" on="1"/>
        <pt x="273" y="77" on="0"/>
        <pt x="319" y="97" on="0"/>
        <pt x="340" y="115" on="1"/>
        <pt x="298" y="151" on="0"/>
        <pt x="223" y="234" on="0"/>
        <pt x="192" y="279" on="1"/>
        <pt x="170" y="257" on="0"/>
        <pt x="142" y="208" on="0"/>
      </contour>
      <contour>
        <pt x="199" y="504" on="1"/>
        <pt x="199" y="461" on="0"/>
        <pt x="224" y="409" on="1"/>
        <pt x="259" y="434" on="0"/>
        <pt x="308" y="489" on="0"/>
        <pt x="308" y="526" on="1"/>
        <pt x="308" y="552" on="0"/>
        <pt x="286" y="588" on="0"/>
        <pt x="257" y="588" on="1"/>
        <pt x="231" y="588" on="0"/>
        <pt x="199" y="542" on="0"/>
      </contour>
      <contour>
        <pt x="553" y="-12" on="1"/>
        <pt x="487" y="6" on="0"/>
        <pt x="415" y="56" on="1"/>
        <pt x="379" y="25" on="0"/>
        <pt x="290" y="-12" on="0"/>
        <pt x="235" y="-12" on="1"/>
        <pt x="188" y="-12" on="0"/>
        <pt x="112" y="17" on="0"/>
        <pt x="60" y="66" on="0"/>
        <pt x="32" y="133" on="0"/>
        <pt x="32" y="172" on="1"/>
        <pt x="32" y="205" on="0"/>
        <pt x="51" y="258" on="0"/>
        <pt x="82" y="302" on="0"/>
        <pt x="123" y="339" on="0"/>
        <pt x="146" y="355" on="1"/>
        <pt x="126" y="395" on="0"/>
        <pt x="103" y="470" on="0"/>
        <pt x="103" y="503" on="1"/>
        <pt x="103" y="537" on="0"/>
        <pt x="125" y="596" on="0"/>
        <pt x="165" y="640" on="0"/>
        <pt x="221" y="666" on="0"/>
        <pt x="256" y="666" on="1"/>
        <pt x="323" y="666" on="0"/>
        <pt x="398" y="590" on="0"/>
        <pt x="398" y="527" on="1"/>
        <pt x="398" y="495" on="0"/>
        <pt x="375" y="443" on="0"/>
        <pt x="337" y="398" on="0"/>
        <pt x="290" y="358" on="0"/>
        <pt x="265" y="339" on="1"/>
        <pt x="294" y="299" on="0"/>
        <pt x="365" y="223" on="0"/>
        <pt x="404" y="191" on="1"/>
        <pt x="450" y="262" on="0"/>
        <pt x="472" y="361" on="1"/>
        <pt x="578" y="361" on="1"/>
        <pt x="561" y="299" on="0"/>
        <pt x="513" y="185" on="0"/>
        <pt x="480" y="134" on="1"/>
        <pt x="508" y="115" on="0"/>
        <pt x="559" y="89" on="0"/>
        <pt x="582" y="82" on="1"/>
      </contour>
    </TTGlyph>
    <TTGlyph name="aogonek" xMin="71" yMin="-208" xMax="546" yMax="503">
      <contour>
        <pt x="71" y="132" on="1"/>
        <pt x="71" y="173" on="0"/>
        <pt x="109" y="236" on="0"/>
        <pt x="191" y="280" on="0"/>
        <pt x="319" y="308" on="0"/>
        <pt x="410" y="314" on="1"/>
        <pt x="407" y="356" on="0"/>
        <pt x="353" y="410" on="0"/>
        <pt x="293" y="410" on="1"/>
        <pt x="251" y="410" on="0"/>
        <pt x="170" y="379" on="0"/>
        <pt x="132" y="358" on="1"/>
        <pt x="90" y="435" on="1"/>
        <pt x="135" y="461" on="0"/>
        <pt x="251" y="503" on="0"/>
        <pt x="314" y="503" on="1"/>
        <pt x="417" y="503" on="0"/>
        <pt x="525" y="394" on="0"/>
        <pt x="525" y="291" on="1"/>
        <pt x="525" y="0" on="1"/>
        <pt x="480" y="-15" on="0"/>
        <pt x="438" y="-69" on="0"/>
        <pt x="438" y="-95" on="1"/>
        <pt x="438" y="-117" on="0"/>
        <pt x="465" y="-137" on="0"/>
        <pt x="482" y="-137" on="1"/>
        <pt x="504" y="-137" on="0"/>
        <pt x="520" y="-124" on="1"/>
        <pt x="546" y="-178" on="1"/>
        <pt x="529" y="-192" on="0"/>
        <pt x="477" y="-208" on="0"/>
        <pt x="456" y="-208" on="1"/>
        <pt x="414" y="-208" on="0"/>
        <pt x="358" y="-164" on="0"/>
        <pt x="358" y="-120" on="1"/>
        <pt x="358" y="-99" on="0"/>
        <pt x="372" y="-62" on="0"/>
        <pt x="394" y="-31" on="0"/>
        <pt x="420" y="-7" on="0"/>
        <pt x="432" y="1" on="1"/>
        <pt x="422" y="61" on="1"/>
        <pt x="419" y="61" on="1"/>
        <pt x="380" y="31" on="0"/>
        <pt x="285" y="-12" on="0"/>
        <pt x="235" y="-12" on="1"/>
        <pt x="199" y="-12" on="0"/>
        <pt x="139" y="9" on="0"/>
        <pt x="95" y="47" on="0"/>
        <pt x="71" y="100" on="0"/>
      </contour>
      <contour>
        <pt x="182" y="141" on="1"/>
        <pt x="182" y="108" on="0"/>
        <pt x="233" y="78" on="0"/>
        <pt x="270" y="78" on="1"/>
        <pt x="307" y="78" on="0"/>
        <pt x="376" y="111" on="0"/>
        <pt x="410" y="138" on="1"/>
        <pt x="410" y="242" on="1"/>
        <pt x="344" y="237" on="0"/>
        <pt x="256" y="220" on="0"/>
        <pt x="204" y="194" on="0"/>
        <pt x="182" y="161" on="0"/>
      </contour>
    </TTGlyph>
    <TTGlyph name="aogonek.a" xMin="53" yMin="-208" xMax="538" yMax="503">
      <contour>
        <pt x="172" y="246" on="1"/>
        <pt x="172" y="166" on="0"/>
        <pt x="234" y="83" on="0"/>
        <pt x="291" y="83" on="1"/>
        <pt x="352" y="83" on="0"/>
        <pt x="402" y="142" on="1"/>
        <pt x="402" y="363" on="1"/>
        <pt x="376" y="388" on="0"/>
        <pt x="324" y="408" on="0"/>
        <pt x="297" y="408" on="1"/>
        <pt x="271" y="408" on="0"/>
        <pt x="226" y="386" on="0"/>
        <pt x="192" y="345" on="0"/>
        <pt x="172" y="285" on="0"/>
      </contour>
      <contour>
        <pt x="53" y="245" on="1"/>
        <pt x="53" y="305" on="0"/>
        <pt x="89" y="401" on="0"/>
        <pt x="150" y="467" on="0"/>
        <pt x="229" y="503" on="0"/>
        <pt x="272" y="503" on="1"/>
        <pt x="350" y="503" on="0"/>
        <pt x="414" y="439" on="1"/>
        <pt x="417" y="439" on="1"/>
        <pt x="427" y="491" on="1"/>
        <pt x="518" y="491" on="1"/>
        <pt x="518" y="0" on="1"/>
        <pt x="470" y="-18" on="0"/>
        <pt x="430" y="-69" on="0"/>
        <pt x="430" y="-95" on="1"/>
        <pt x="430" y="-116" on="0"/>
        <pt x="457" y="-137" on="0"/>
        <pt x="474" y="-137" on="1"/>
        <pt x="496" y="-137" on="0"/>
        <pt x="512" y="-124" on="1"/>
        <pt x="538" y="-178" on="1"/>
        <pt x="521" y="-192" on="0"/>
        <pt x="470" y="-208" on="0"/>
        <pt x="448" y="-208" on="1"/>
        <pt x="407" y="-208" on="0"/>
        <pt x="350" y="-164" on="0"/>
        <pt x="350" y="-120" on="1"/>
        <pt x="350" y="-99" on="0"/>
        <pt x="364" y="-63" on="0"/>
        <pt x="385" y="-33" on="0"/>
        <pt x="411" y="-8" on="0"/>
        <pt x="424" y="1" on="1"/>
        <pt x="414" y="57" on="1"/>
        <pt x="411" y="57" on="1"/>
        <pt x="383" y="28" on="0"/>
        <pt x="304" y="-12" on="0"/>
        <pt x="263" y="-12" on="1"/>
        <pt x="216" y="-12" on="0"/>
        <pt x="139" y="23" on="0"/>
        <pt x="83" y="89" on="0"/>
        <pt x="53" y="184" on="0"/>
      </contour>
    </TTGlyph>
    <TTGlyph name="approxequal" xMin="64" yMin="133" xMax="536" yMax="528">
      <component glyphName="asciitilde" x="0" y="112" flags="0x204"/>
      <component glyphName="asciitilde" x="0" y="-111" flags="0x4"/>
    </TTGlyph>
    <TTGlyph name="aring" xMin="71" yMin="-12" xMax="525" yMax="740">
      <component glyphName="a" x="0" y="0" flags="0x204"/>
      <component glyphName="uni030A" x="11" y="0" flags="0x4"/>
    </TTGlyph>
    <TTGlyph name="aring.a" xMin="53" yMin="-12" xMax="518" yMax="740">
      <component glyphName="uni0251" x="0" y="0" flags="0x204"/>
      <component glyphName="uni030A" x="10" y="0" flags="0x4"/>
    </TTGlyph>
    <TTGlyph name="arrowdown" xMin="32" yMin="-25" xMax="568" yMax="528">
      <contour>
        <pt x="298" y="-25" on="1"/>
        <pt x="32" y="250" on="1"/>
        <pt x="95" y="306" on="1"/>
        <pt x="254" y="131" on="1"/>
        <pt x="254" y="528" on="1"/>
        <pt x="346" y="528" on="1"/>
        <pt x="346" y="131" on="1"/>
        <pt x="505" y="306" on="1"/>
        <pt x="568" y="250" on="1"/>
        <pt x="302" y="-25" on="1"/>
      </contour>
    </TTGlyph>
    <TTGlyph name="arrowup" xMin="32" yMin="-25" xMax="568" yMax="528">
      <contour>
        <pt x="302" y="528" on="1"/>
        <pt x="568" y="253" on="1"/>
        <pt x="505" y="197" on="1"/>
        <pt x="346" y="372" on="1"/>
        <pt x="346" y="-25" on="1"/>
        <pt x="254" y="-25" on="1"/>
        <pt x="254" y="372" on="1"/>
        <pt x="95" y="197" on="1"/>
        <pt x="32" y="253" on="1"/>
        <pt x="298" y="528" on="1"/>
      </contour>
    </TTGlyph>
    <TTGlyph name="asciicircum" xMin="98" yMin="279" xMax="502" yMax="670">
      <contour>
        <pt x="252" y="670" on="1"/>
        <pt x="348" y="670" on="1"/>
        <pt x="502" y="279" on="1"/>
        <pt x="405" y="279" on="1"/>
        <pt x="349" y="430" on="1"/>
        <pt x="302" y="565" on="1"/>
        <pt x="298" y="565" on="1"/>
        <pt x="251" y="430" on="1"/>
        <pt x="195" y="279" on="1"/>
        <pt x="98" y="279" on="1"/>
      </contour>
    </TTGlyph>
    <TTGlyph name="asciitilde" xMin="64" yMin="244" xMax="536" yMax="416">
      <contour>
        <pt x="64" y="276" on="1"/>
        <pt x="93" y="351" on="0"/>
        <pt x="171" y="412" on="0"/>
        <pt x="214" y="412" on="1"/>
        <pt x="244" y="412" on="0"/>
        <pt x="290" y="387" on="0"/>
        <pt x="330" y="357" on="0"/>
        <pt x="367" y="332" on="0"/>
        <pt x="388" y="332" on="1"/>
        <pt x="411" y="332" on="0"/>
        <pt x="449" y="368" on="0"/>
        <pt x="466" y="416" on="1"/>
        <pt x="536" y="383" on="1"/>
        <pt x="507" y="309" on="0"/>
        <pt x="429" y="248" on="0"/>
        <pt x="386" y="248" on="1"/>
        <pt x="356" y="248" on="0"/>
        <pt x="310" y="273" on="0"/>
        <pt x="270" y="303" on="0"/>
        <pt x="233" y="328" on="0"/>
        <pt x="212" y="328" on="1"/>
        <pt x="189" y="328" on="0"/>
        <pt x="151" y="291" on="0"/>
        <pt x="134" y="244" on="1"/>
      </contour>
    </TTGlyph>
    <TTGlyph name="asterisk" xMin="74" yMin="101" xMax="526" yMax="561">
      <contour>
        <pt x="129" y="138" on="1"/>
        <pt x="232" y="299" on="1"/>
        <pt x="74" y="368" on="1"/>
        <pt x="93" y="427" on="1"/>
        <pt x="258" y="378" on="1"/>
        <pt x="268" y="561" on="1"/>
        <pt x="332" y="561" on="1"/>
        <pt x="342" y="378" on="1"/>
        <pt x="507" y="427" on="1"/>
        <pt x="526" y="368" on="1"/>
        <pt x="368" y="299" on="1"/>
        <pt x="471" y="138" on="1"/>
        <pt x="418" y="101" on="1"/>
        <pt x="300" y="251" on="1"/>
        <pt x="182" y="101" on="1"/>
      </contour>
    </TTGlyph>
    <TTGlyph name="asterisk.a" xMin="94" yMin="297" xMax="506" yMax="712">
      <contour>
        <pt x="145" y="334" on="1"/>
        <pt x="232" y="478" on="1"/>
        <pt x="94" y="534" on="1"/>
        <pt x="113" y="593" on="1"/>
        <pt x="258" y="555" on="1"/>
        <pt x="268" y="712" on="1"/>
        <pt x="332" y="712" on="1"/>
        <pt x="342" y="556" on="1"/>
        <pt x="487" y="593" on="1"/>
        <pt x="506" y="534" on="1"/>
        <pt x="368" y="478" on="1"/>
        <pt x="455" y="334" on="1"/>
        <pt x="402" y="297" on="1"/>
        <pt x="300" y="430" on="1"/>
        <pt x="198" y="297" on="1"/>
      </contour>
    </TTGlyph>
    <TTGlyph name="at" xMin="40" yMin="-146" xMax="548" yMax="640">
      <contour>
        <pt x="548" y="100" on="1"/>
        <pt x="484" y="100" on="1"/>
        <pt x="475" y="154" on="1"/>
        <pt x="471" y="154" on="1"/>
        <pt x="451" y="127" on="0"/>
        <pt x="385" y="88" on="0"/>
        <pt x="345" y="88" on="1"/>
        <pt x="318" y="88" on="0"/>
        <pt x="271" y="108" on="0"/>
        <pt x="237" y="144" on="0"/>
        <pt x="217" y="194" on="0"/>
        <pt x="217" y="224" on="1"/>
        <pt x="217" y="302" on="0"/>
        <pt x="352" y="380" on="0"/>
        <pt x="474" y="395" on="1"/>
        <pt x="474" y="410" on="1"/>
        <pt x="474" y="442" on="0"/>
        <pt x="457" y="499" on="0"/>
        <pt x="423" y="543" on="0"/>
        <pt x="369" y="568" on="0"/>
        <pt x="333" y="568" on="1"/>
        <pt x="293" y="568" on="0"/>
        <pt x="217" y="530" on="0"/>
        <pt x="158" y="452" on="0"/>
        <pt x="122" y="331" on="0"/>
        <pt x="122" y="248" on="1"/>
        <pt x="122" y="169" on="0"/>
        <pt x="158" y="49" on="0"/>
        <pt x="218" y="-32" on="0"/>
        <pt x="299" y="-73" on="0"/>
        <pt x="344" y="-73" on="1"/>
        <pt x="389" y="-73" on="0"/>
        <pt x="451" y="-52" on="0"/>
        <pt x="480" y="-32" on="1"/>
        <pt x="516" y="-91" on="1"/>
        <pt x="475" y="-117" on="0"/>
        <pt x="392" y="-146" on="0"/>
        <pt x="340" y="-146" on="1"/>
        <pt x="280" y="-146" on="0"/>
        <pt x="172" y="-96" on="0"/>
        <pt x="89" y="3" on="0"/>
        <pt x="40" y="153" on="0"/>
        <pt x="40" y="252" on="1"/>
        <pt x="40" y="351" on="0"/>
        <pt x="87" y="497" on="0"/>
        <pt x="167" y="593" on="0"/>
        <pt x="275" y="640" on="0"/>
        <pt x="337" y="640" on="1"/>
        <pt x="391" y="640" on="0"/>
        <pt x="471" y="603" on="0"/>
        <pt x="523" y="538" on="0"/>
        <pt x="548" y="449" on="0"/>
        <pt x="548" y="398" on="1"/>
      </contour>
      <contour>
        <pt x="304" y="226" on="1"/>
        <pt x="304" y="197" on="0"/>
        <pt x="339" y="165" on="0"/>
        <pt x="370" y="165" on="1"/>
        <pt x="394" y="165" on="0"/>
        <pt x="440" y="192" on="0"/>
        <pt x="463" y="215" on="1"/>
        <pt x="463" y="324" on="1"/>
        <pt x="376" y="311" on="0"/>
        <pt x="304" y="266" on="0"/>
      </contour>
    </TTGlyph>
    <TTGlyph name="at.case" xMin="40" yMin="-22" xMax="548" yMax="666">
      <contour>
        <pt x="548" y="168" on="1"/>
        <pt x="484" y="168" on="1"/>
        <pt x="475" y="222" on="1"/>
        <pt x="471" y="222" on="1"/>
        <pt x="451" y="195" on="0"/>
        <pt x="385" y="156" on="0"/>
        <pt x="345" y="156" on="1"/>
        <pt x="318" y="156" on="0"/>
        <pt x="271" y="176" on="0"/>
        <pt x="237" y="212" on="0"/>
        <pt x="217" y="262" on="0"/>
        <pt x="217" y="292" on="1"/>
        <pt x="217" y="370" on="0"/>
        <pt x="352" y="448" on="0"/>
        <pt x="474" y="463" on="1"/>
        <pt x="474" y="472" on="1"/>
        <pt x="474" y="496" on="0"/>
        <pt x="458" y="541" on="0"/>
        <pt x="424" y="574" on="0"/>
        <pt x="373" y="594" on="0"/>
        <pt x="338" y="594" on="1"/>
        <pt x="298" y="594" on="0"/>
        <pt x="220" y="562" on="0"/>
        <pt x="159" y="494" on="0"/>
        <pt x="122" y="389" on="0"/>
        <pt x="122" y="316" on="1"/>
        <pt x="122" y="251" on="0"/>
        <pt x="158" y="152" on="0"/>
        <pt x="218" y="85" on="0"/>
        <pt x="299" y="51" on="0"/>
        <pt x="344" y="51" on="1"/>
        <pt x="389" y="51" on="0"/>
        <pt x="451" y="72" on="0"/>
        <pt x="480" y="92" on="1"/>
        <pt x="516" y="33" on="1"/>
        <pt x="475" y="7" on="0"/>
        <pt x="392" y="-22" on="0"/>
        <pt x="340" y="-22" on="1"/>
        <pt x="280" y="-22" on="0"/>
        <pt x="172" y="21" on="0"/>
        <pt x="89" y="106" on="0"/>
        <pt x="40" y="234" on="0"/>
        <pt x="40" y="320" on="1"/>
        <pt x="40" y="408" on="0"/>
        <pt x="88" y="539" on="0"/>
        <pt x="170" y="624" on="0"/>
        <pt x="280" y="666" on="0"/>
        <pt x="342" y="666" on="1"/>
        <pt x="395" y="666" on="0"/>
        <pt x="472" y="633" on="0"/>
        <pt x="523" y="575" on="0"/>
        <pt x="548" y="498" on="0"/>
        <pt x="548" y="454" on="1"/>
      </contour>
      <contour>
        <pt x="304" y="294" on="1"/>
        <pt x="304" y="265" on="0"/>
        <pt x="339" y="233" on="0"/>
        <pt x="370" y="233" on="1"/>
        <pt x="394" y="233" on="0"/>
        <pt x="440" y="260" on="0"/>
        <pt x="463" y="283" on="1"/>
        <pt x="463" y="392" on="1"/>
        <pt x="376" y="379" on="0"/>
        <pt x="304" y="334" on="0"/>
      </contour>
    </TTGlyph>
    <TTGlyph name="atilde" xMin="71" yMin="-12" xMax="525" yMax="704">
      <component glyphName="a" x="0" y="0" flags="0x204"/>
      <component glyphName="uni0303" x="11" y="0" flags="0x4"/>
    </TTGlyph>
    <TTGlyph name="atilde.a" xMin="53" yMin="-12" xMax="518" yMax="704">
      <component glyphName="uni0251" x="0" y="0" flags="0x204"/>
      <component glyphName="uni0303" x="10" y="0" flags="0x4"/>
    </TTGlyph>
    <TTGlyph name="b" xMin="82" yMin="-12" xMax="547" yMax="706">
      <contour>
        <pt x="82" y="706" on="1"/>
        <pt x="198" y="706" on="1"/>
        <pt x="198" y="524" on="1"/>
        <pt x="194" y="438" on="1"/>
        <pt x="226" y="468" on="0"/>
        <pt x="306" y="503" on="0"/>
        <pt x="346" y="503" on="1"/>
        <pt x="394" y="503" on="0"/>
        <pt x="468" y="468" on="0"/>
        <pt x="520" y="403" on="0"/>
        <pt x="547" y="311" on="0"/>
        <pt x="547" y="254" on="1"/>
        <pt x="547" y="191" on="0"/>
        <pt x="511" y="92" on="0"/>
        <pt x="450" y="24" on="0"/>
        <pt x="371" y="-12" on="0"/>
        <pt x="329" y="-12" on="1"/>
        <pt x="294" y="-12" on="0"/>
        <pt x="218" y="22" on="0"/>
        <pt x="186" y="54" on="1"/>
        <pt x="183" y="54" on="1"/>
        <pt x="173" y="0" on="1"/>
        <pt x="82" y="0" on="1"/>
      </contour>
      <contour>
        <pt x="198" y="128" on="1"/>
        <pt x="225" y="103" on="0"/>
        <pt x="283" y="83" on="0"/>
        <pt x="306" y="83" on="1"/>
        <pt x="358" y="83" on="0"/>
        <pt x="428" y="168" on="0"/>
        <pt x="428" y="252" on="1"/>
        <pt x="428" y="326" on="0"/>
        <pt x="374" y="408" on="0"/>
        <pt x="314" y="408" on="1"/>
        <pt x="286" y="408" on="0"/>
        <pt x="228" y="380" on="0"/>
        <pt x="198" y="349" on="1"/>
      </contour>
    </TTGlyph>
    <TTGlyph name="b.sups" xMin="163" yMin="252" xMax="475" yMax="725">
      <contour>
        <pt x="163" y="725" on="1"/>
        <pt x="247" y="725" on="1"/>
        <pt x="247" y="607" on="1"/>
        <pt x="245" y="554" on="1"/>
        <pt x="265" y="571" on="0"/>
        <pt x="315" y="593" on="0"/>
        <pt x="341" y="593" on="1"/>
        <pt x="405" y="593" on="0"/>
        <pt x="475" y="503" on="0"/>
        <pt x="475" y="428" on="1"/>
        <pt x="475" y="386" on="0"/>
        <pt x="451" y="321" on="0"/>
        <pt x="411" y="276" on="0"/>
        <pt x="359" y="252" on="0"/>
        <pt x="331" y="252" on="1"/>
        <pt x="282" y="252" on="0"/>
        <pt x="238" y="294" on="1"/>
        <pt x="236" y="294" on="1"/>
        <pt x="229" y="260" on="1"/>
        <pt x="163" y="260" on="1"/>
      </contour>
      <contour>
        <pt x="247" y="345" on="1"/>
        <pt x="264" y="331" on="0"/>
        <pt x="298" y="321" on="0"/>
        <pt x="312" y="321" on="1"/>
        <pt x="344" y="321" on="0"/>
        <pt x="388" y="373" on="0"/>
        <pt x="388" y="427" on="1"/>
        <pt x="388" y="474" on="0"/>
        <pt x="355" y="525" on="0"/>
        <pt x="318" y="525" on="1"/>
        <pt x="282" y="525" on="0"/>
        <pt x="247" y="491" on="1"/>
      </contour>
    </TTGlyph>
    <TTGlyph name="backslash" xMin="86" yMin="-160" xMax="514" yMax="710">
      <contour>
        <pt x="86" y="710" on="1"/>
        <pt x="185" y="710" on="1"/>
        <pt x="514" y="-160" on="1"/>
        <pt x="415" y="-160" on="1"/>
      </contour>
    </TTGlyph>
    <TTGlyph name="bar" xMin="249" yMin="-250" xMax="351" yMax="750">
      <contour>
        <pt x="249" y="750" on="1"/>
        <pt x="351" y="750" on="1"/>
        <pt x="351" y="-250" on="1"/>
        <pt x="249" y="-250" on="1"/>
      </contour>
    </TTGlyph>
    <TTGlyph name="braceleft" xMin="113" yMin="-152" xMax="499" yMax="708">
      <contour>
        <pt x="244" y="-14" on="1"/>
        <pt x="244" y="13" on="0"/>
        <pt x="247" y="58" on="0"/>
        <pt x="251" y="100" on="0"/>
        <pt x="254" y="143" on="0"/>
        <pt x="254" y="168" on="1"/>
        <pt x="254" y="181" on="0"/>
        <pt x="242" y="208" on="0"/>
        <pt x="210" y="229" on="0"/>
        <pt x="155" y="243" on="0"/>
        <pt x="113" y="243" on="1"/>
        <pt x="113" y="313" on="1"/>
        <pt x="155" y="313" on="0"/>
        <pt x="210" y="327" on="0"/>
        <pt x="242" y="348" on="0"/>
        <pt x="254" y="374" on="0"/>
        <pt x="254" y="388" on="1"/>
        <pt x="254" y="435" on="0"/>
        <pt x="244" y="518" on="0"/>
        <pt x="244" y="570" on="1"/>
        <pt x="244" y="610" on="0"/>
        <pt x="266" y="663" on="0"/>
        <pt x="312" y="695" on="0"/>
        <pt x="382" y="708" on="0"/>
        <pt x="430" y="708" on="1"/>
        <pt x="499" y="708" on="1"/>
        <pt x="499" y="645" on="1"/>
        <pt x="453" y="645" on="1"/>
        <pt x="418" y="645" on="0"/>
        <pt x="374" y="637" on="0"/>
        <pt x="349" y="618" on="0"/>
        <pt x="340" y="587" on="0"/>
        <pt x="340" y="565" on="1"/>
        <pt x="340" y="523" on="0"/>
        <pt x="345" y="439" on="0"/>
        <pt x="345" y="393" on="1"/>
        <pt x="345" y="340" on="0"/>
        <pt x="303" y="289" on="0"/>
        <pt x="250" y="280" on="1"/>
        <pt x="250" y="276" on="1"/>
        <pt x="303" y="267" on="0"/>
        <pt x="345" y="216" on="0"/>
        <pt x="345" y="163" on="1"/>
        <pt x="345" y="115" on="0"/>
        <pt x="340" y="35" on="0"/>
        <pt x="340" y="-9" on="1"/>
        <pt x="340" y="-32" on="0"/>
        <pt x="349" y="-62" on="0"/>
        <pt x="374" y="-81" on="0"/>
        <pt x="418" y="-89" on="0"/>
        <pt x="453" y="-89" on="1"/>
        <pt x="499" y="-89" on="1"/>
        <pt x="499" y="-152" on="1"/>
        <pt x="430" y="-152" on="1"/>
        <pt x="382" y="-152" on="0"/>
        <pt x="312" y="-139" on="0"/>
        <pt x="266" y="-107" on="0"/>
        <pt x="244" y="-54" on="0"/>
      </contour>
    </TTGlyph>
    <TTGlyph name="braceright" xMin="102" yMin="-152" xMax="487" yMax="708">
      <contour>
        <pt x="148" y="-89" on="1"/>
        <pt x="182" y="-89" on="0"/>
        <pt x="226" y="-81" on="0"/>
        <pt x="252" y="-62" on="0"/>
        <pt x="261" y="-32" on="0"/>
        <pt x="261" y="-9" on="1"/>
        <pt x="261" y="35" on="0"/>
        <pt x="256" y="115" on="0"/>
        <pt x="256" y="163" on="1"/>
        <pt x="256" y="216" on="0"/>
        <pt x="297" y="267" on="0"/>
        <pt x="351" y="276" on="1"/>
        <pt x="351" y="280" on="1"/>
        <pt x="297" y="289" on="0"/>
        <pt x="256" y="340" on="0"/>
        <pt x="256" y="393" on="1"/>
        <pt x="256" y="439" on="0"/>
        <pt x="261" y="523" on="0"/>
        <pt x="261" y="565" on="1"/>
        <pt x="261" y="587" on="0"/>
        <pt x="252" y="618" on="0"/>
        <pt x="226" y="637" on="0"/>
        <pt x="182" y="645" on="0"/>
        <pt x="148" y="645" on="1"/>
        <pt x="102" y="645" on="1"/>
        <pt x="102" y="708" on="1"/>
        <pt x="171" y="708" on="1"/>
        <pt x="219" y="708" on="0"/>
        <pt x="288" y="695" on="0"/>
        <pt x="334" y="663" on="0"/>
        <pt x="356" y="610" on="0"/>
        <pt x="356" y="570" on="1"/>
        <pt x="356" y="518" on="0"/>
        <pt x="346" y="435" on="0"/>
        <pt x="346" y="388" on="1"/>
        <pt x="346" y="374" on="0"/>
        <pt x="358" y="348" on="0"/>
        <pt x="390" y="327" on="0"/>
        <pt x="445" y="313" on="0"/>
        <pt x="487" y="313" on="1"/>
        <pt x="487" y="243" on="1"/>
        <pt x="445" y="243" on="0"/>
        <pt x="390" y="229" on="0"/>
        <pt x="358" y="208" on="0"/>
        <pt x="346" y="181" on="0"/>
        <pt x="346" y="168" on="1"/>
        <pt x="346" y="143" on="0"/>
        <pt x="349" y="100" on="0"/>
        <pt x="353" y="58" on="0"/>
        <pt x="356" y="13" on="0"/>
        <pt x="356" y="-14" on="1"/>
        <pt x="356" y="-54" on="0"/>
        <pt x="334" y="-107" on="0"/>
        <pt x="288" y="-139" on="0"/>
        <pt x="219" y="-152" on="0"/>
        <pt x="171" y="-152" on="1"/>
        <pt x="102" y="-152" on="1"/>
        <pt x="102" y="-89" on="1"/>
      </contour>
    </TTGlyph>
    <TTGlyph name="bracketleft" xMin="213" yMin="-152" xMax="499" yMax="708">
      <contour>
        <pt x="213" y="708" on="1"/>
        <pt x="499" y="708" on="1"/>
        <pt x="499" y="645" on="1"/>
        <pt x="302" y="645" on="1"/>
        <pt x="302" y="-89" on="1"/>
        <pt x="499" y="-89" on="1"/>
        <pt x="499" y="-152" on="1"/>
        <pt x="213" y="-152" on="1"/>
      </contour>
    </TTGlyph>
    <TTGlyph name="bracketright" xMin="102" yMin="-152" xMax="388" yMax="708">
      <contour>
        <pt x="298" y="-89" on="1"/>
        <pt x="298" y="645" on="1"/>
        <pt x="102" y="645" on="1"/>
        <pt x="102" y="708" on="1"/>
        <pt x="388" y="708" on="1"/>
        <pt x="388" y="-152" on="1"/>
        <pt x="102" y="-152" on="1"/>
        <pt x="102" y="-89" on="1"/>
      </contour>
    </TTGlyph>
    <TTGlyph name="breve" xMin="161" yMin="575" xMax="439" yMax="720">
      <component glyphName="uni0306" x="0" y="0" flags="0x204"/>
    </TTGlyph>
    <TTGlyph name="brokenbar" xMin="249" yMin="-250" xMax="351" yMax="750">
      <contour>
        <pt x="249" y="750" on="1"/>
        <pt x="351" y="750" on="1"/>
        <pt x="351" y="302" on="1"/>
        <pt x="249" y="302" on="1"/>
      </contour>
      <contour>
        <pt x="351" y="209" on="1"/>
        <pt x="351" y="-250" on="1"/>
        <pt x="249" y="-250" on="1"/>
        <pt x="249" y="209" on="1"/>
      </contour>
    </TTGlyph>
    <TTGlyph name="bullet" xMin="144" yMin="108" xMax="456" yMax="416">
      <contour>
        <pt x="300" y="108" on="1"/>
        <pt x="268" y="108" on="0"/>
        <pt x="211" y="131" on="0"/>
        <pt x="169" y="172" on="0"/>
        <pt x="144" y="228" on="0"/>
        <pt x="144" y="262" on="1"/>
        <pt x="144" y="296" on="0"/>
        <pt x="169" y="352" on="0"/>
        <pt x="211" y="393" on="0"/>
        <pt x="268" y="416" on="0"/>
        <pt x="300" y="416" on="1"/>
        <pt x="332" y="416" on="0"/>
        <pt x="389" y="393" on="0"/>
        <pt x="431" y="352" on="0"/>
        <pt x="456" y="296" on="0"/>
        <pt x="456" y="262" on="1"/>
        <pt x="456" y="228" on="0"/>
        <pt x="431" y="172" on="0"/>
        <pt x="389" y="131" on="0"/>
        <pt x="332" y="108" on="0"/>
      </contour>
    </TTGlyph>
    <TTGlyph name="c" xMin="73" yMin="-12" xMax="543" yMax="503">
      <contour>
        <pt x="73" y="245" on="1"/>
        <pt x="73" y="306" on="0"/>
        <pt x="118" y="402" on="0"/>
        <pt x="194" y="468" on="0"/>
        <pt x="296" y="503" on="0"/>
        <pt x="352" y="503" on="1"/>
        <pt x="412" y="503" on="0"/>
        <pt x="503" y="463" on="0"/>
        <pt x="534" y="434" on="1"/>
        <pt x="479" y="362" on="1"/>
        <pt x="450" y="385" on="0"/>
        <pt x="391" y="409" on="0"/>
        <pt x="358" y="409" on="1"/>
        <pt x="284" y="409" on="0"/>
        <pt x="192" y="320" on="0"/>
        <pt x="192" y="245" on="1"/>
        <pt x="192" y="208" on="0"/>
        <pt x="216" y="148" on="0"/>
        <pt x="259" y="105" on="0"/>
        <pt x="319" y="82" on="0"/>
        <pt x="355" y="82" on="1"/>
        <pt x="397" y="82" on="0"/>
        <pt x="466" y="114" on="0"/>
        <pt x="495" y="136" on="1"/>
        <pt x="543" y="62" on="1"/>
        <pt x="501" y="25" on="0"/>
        <pt x="397" y="-12" on="0"/>
        <pt x="344" y="-12" on="1"/>
        <pt x="286" y="-12" on="0"/>
        <pt x="187" y="22" on="0"/>
        <pt x="114" y="88" on="0"/>
        <pt x="73" y="184" on="0"/>
      </contour>
    </TTGlyph>
    <TTGlyph name="c.sups" xMin="175" yMin="252" xMax="464" yMax="593">
      <contour>
        <pt x="175" y="422" on="1"/>
        <pt x="175" y="463" on="0"/>
        <pt x="204" y="527" on="0"/>
        <pt x="254" y="570" on="0"/>
        <pt x="318" y="593" on="0"/>
        <pt x="354" y="593" on="1"/>
        <pt x="388" y="593" on="0"/>
        <pt x="439" y="572" on="0"/>
        <pt x="457" y="556" on="1"/>
        <pt x="417" y="503" on="1"/>
        <pt x="389" y="526" on="0"/>
        <pt x="358" y="526" on="1"/>
        <pt x="315" y="526" on="0"/>
        <pt x="261" y="469" on="0"/>
        <pt x="261" y="422" on="1"/>
        <pt x="261" y="376" on="0"/>
        <pt x="313" y="320" on="0"/>
        <pt x="355" y="320" on="1"/>
        <pt x="378" y="320" on="0"/>
        <pt x="414" y="336" on="0"/>
        <pt x="429" y="347" on="1"/>
        <pt x="464" y="293" on="1"/>
        <pt x="438" y="273" on="0"/>
        <pt x="377" y="252" on="0"/>
        <pt x="347" y="252" on="1"/>
        <pt x="310" y="252" on="0"/>
        <pt x="247" y="275" on="0"/>
        <pt x="201" y="319" on="0"/>
        <pt x="175" y="382" on="0"/>
      </contour>
    </TTGlyph>
    <TTGlyph name="cacute" xMin="73" yMin="-12" xMax="543" yMax="731">
      <component glyphName="c" x="0" y="0" flags="0x204"/>
      <component glyphName="uni0301" x="42" y="0" flags="0x4"/>
    </TTGlyph>
    <TTGlyph name="caron" xMin="152" yMin="573" xMax="448" yMax="731">
      <component glyphName="uni030C" x="0" y="0" flags="0x204"/>
    </TTGlyph>
    <TTGlyph name="ccaron" xMin="73" yMin="-12" xMax="543" yMax="731">
      <component glyphName="c" x="0" y="0" flags="0x204"/>
      <component glyphName="uni030C" x="42" y="0" flags="0x4"/>
    </TTGlyph>
    <TTGlyph name="ccedilla" xMin="73" yMin="-217" xMax="543" yMax="503">
      <component glyphName="c" x="0" y="0" flags="0x204"/>
      <component glyphName="uni0327" x="41" y="0" flags="0x4"/>
    </TTGlyph>
    <TTGlyph name="ccircumflex" xMin="73" yMin="-12" xMax="543" yMax="731">
      <component glyphName="c" x="0" y="0" flags="0x204"/>
      <component glyphName="uni0302" x="42" y="0" flags="0x4"/>
    </TTGlyph>
    <TTGlyph name="cdotaccent" xMin="73" yMin="-12" xMax="543" yMax="732">
      <component glyphName="c" x="0" y="0" flags="0x204"/>
      <component glyphName="uni0307" x="42" y="0" flags="0x4"/>
    </TTGlyph>
    <TTGlyph name="cedilla" xMin="210" yMin="-217" xMax="381" yMax="3">
      <component glyphName="uni0327" x="4" y="0" flags="0x204"/>
    </TTGlyph>
    <TTGlyph name="cent" xMin="104" yMin="-37" xMax="515" yMax="654">
      <contour>
        <pt x="312" y="455" on="1"/>
        <pt x="266" y="440" on="0"/>
        <pt x="217" y="363" on="0"/>
        <pt x="217" y="308" on="1"/>
        <pt x="217" y="252" on="0"/>
        <pt x="266" y="176" on="0"/>
        <pt x="312" y="162" on="1"/>
      </contour>
      <contour>
        <pt x="515" y="123" on="1"/>
        <pt x="486" y="97" on="0"/>
        <pt x="415" y="66" on="0"/>
        <pt x="379" y="62" on="1"/>
        <pt x="379" y="-37" on="1"/>
        <pt x="312" y="-37" on="1"/>
        <pt x="312" y="62" on="1"/>
        <pt x="218" y="74" on="0"/>
        <pt x="104" y="200" on="0"/>
        <pt x="104" y="308" on="1"/>
        <pt x="104" y="360" on="0"/>
        <pt x="136" y="445" on="0"/>
        <pt x="191" y="507" on="0"/>
        <pt x="267" y="546" on="0"/>
        <pt x="312" y="553" on="1"/>
        <pt x="312" y="654" on="1"/>
        <pt x="379" y="654" on="1"/>
        <pt x="379" y="556" on="1"/>
        <pt x="420" y="554" on="0"/>
        <pt x="483" y="522" on="0"/>
        <pt x="506" y="499" on="1"/>
        <pt x="452" y="428" on="1"/>
        <pt x="417" y="459" on="0"/>
        <pt x="379" y="463" on="1"/>
        <pt x="379" y="155" on="1"/>
        <pt x="405" y="158" on="0"/>
        <pt x="449" y="182" on="0"/>
        <pt x="467" y="196" on="1"/>
      </contour>
    </TTGlyph>
    <TTGlyph name="circumflex" xMin="152" yMin="573" xMax="448" yMax="731">
      <component glyphName="uni0302" x="0" y="0" flags="0x204"/>
    </TTGlyph>
    <TTGlyph name="colon" xMin="201" yMin="-12" xMax="399" yMax="530">
      <component glyphName="period" x="0" y="340" flags="0x204"/>
      <component glyphName="period" x="0" y="0" flags="0x4"/>
    </TTGlyph>
    <TTGlyph name="colonmonetary" xMin="87" yMin="-110" xMax="555" yMax="746">
      <contour>
        <pt x="296" y="95" on="1"/>
        <pt x="318" y="83" on="0"/>
        <pt x="344" y="79" on="1"/>
        <pt x="400" y="554" on="1"/>
        <pt x="385" y="558" on="0"/>
        <pt x="366" y="558" on="1"/>
        <pt x="356" y="558" on="0"/>
        <pt x="352" y="557" on="1"/>
      </contour>
      <contour>
        <pt x="306" y="546" on="1"/>
        <pt x="256" y="525" on="0"/>
        <pt x="204" y="408" on="0"/>
        <pt x="204" y="320" on="1"/>
        <pt x="204" y="192" on="0"/>
        <pt x="256" y="128" on="1"/>
      </contour>
      <contour>
        <pt x="555" y="81" on="1"/>
        <pt x="518" y="40" on="0"/>
        <pt x="431" y="-8" on="0"/>
        <pt x="377" y="-11" on="1"/>
        <pt x="365" y="-110" on="1"/>
        <pt x="321" y="-110" on="1"/>
        <pt x="333" y="-11" on="1"/>
        <pt x="310" y="-10" on="0"/>
        <pt x="285" y="-3" on="1"/>
        <pt x="272" y="-110" on="1"/>
        <pt x="228" y="-110" on="1"/>
        <pt x="243" y="13" on="1"/>
        <pt x="171" y="46" on="0"/>
        <pt x="87" y="200" on="0"/>
        <pt x="87" y="316" on="1"/>
        <pt x="87" y="385" on="0"/>
        <pt x="120" y="498" on="0"/>
        <pt x="180" y="582" on="0"/>
        <pt x="265" y="634" on="0"/>
        <pt x="318" y="643" on="1"/>
        <pt x="330" y="746" on="1"/>
        <pt x="374" y="746" on="1"/>
        <pt x="362" y="648" on="1"/>
        <pt x="374" y="648" on="1"/>
        <pt x="393" y="648" on="0"/>
        <pt x="411" y="645" on="1"/>
        <pt x="423" y="746" on="1"/>
        <pt x="467" y="746" on="1"/>
        <pt x="454" y="633" on="1"/>
        <pt x="480" y="622" on="0"/>
        <pt x="527" y="591" on="0"/>
        <pt x="546" y="570" on="1"/>
        <pt x="481" y="507" on="1"/>
        <pt x="471" y="515" on="0"/>
        <pt x="453" y="530" on="0"/>
        <pt x="442" y="537" on="1"/>
        <pt x="388" y="80" on="1"/>
        <pt x="418" y="84" on="0"/>
        <pt x="467" y="115" on="0"/>
        <pt x="490" y="141" on="1"/>
      </contour>
    </TTGlyph>
    <TTGlyph name="comma" xMin="189" yMin="-215" xMax="413" yMax="185">
      <contour>
        <pt x="189" y="-146" on="1"/>
        <pt x="316" y="-95" on="0"/>
        <pt x="317" y="8" on="1"/>
        <pt x="312" y="7" on="0"/>
        <pt x="303" y="7" on="1"/>
        <pt x="265" y="7" on="0"/>
        <pt x="209" y="52" on="0"/>
        <pt x="209" y="96" on="1"/>
        <pt x="209" y="138" on="0"/>
        <pt x="266" y="185" on="0"/>
        <pt x="305" y="185" on="1"/>
        <pt x="359" y="185" on="0"/>
        <pt x="413" y="105" on="0"/>
        <pt x="413" y="35" on="1"/>
        <pt x="413" y="-57" on="0"/>
        <pt x="313" y="-184" on="0"/>
        <pt x="219" y="-215" on="1"/>
      </contour>
    </TTGlyph>
    <TTGlyph name="comma.dnom" xMin="235" yMin="-123" xMax="365" yMax="104">
      <contour>
        <pt x="235" y="-77" on="1"/>
        <pt x="269" y="-65" on="0"/>
        <pt x="306" y="-29" on="0"/>
        <pt x="306" y="0" on="1"/>
        <pt x="300" y="0" on="1"/>
        <pt x="279" y="0" on="0"/>
        <pt x="246" y="26" on="0"/>
        <pt x="246" y="51" on="1"/>
        <pt x="246" y="75" on="0"/>
        <pt x="279" y="104" on="0"/>
        <pt x="302" y="104" on="1"/>
        <pt x="332" y="104" on="0"/>
        <pt x="365" y="61" on="0"/>
        <pt x="365" y="19" on="1"/>
        <pt x="365" y="-32" on="0"/>
        <pt x="307" y="-106" on="0"/>
        <pt x="254" y="-123" on="1"/>
      </contour>
    </TTGlyph>
    <TTGlyph name="comma.numr" xMin="235" yMin="141" xMax="365" yMax="368">
      <component glyphName="comma.dnom" x="0" y="264" flags="0x204"/>
    </TTGlyph>
    <TTGlyph name="comma.subs" xMin="235" yMin="-292" xMax="365" yMax="-65">
      <component glyphName="comma.dnom" x="0" y="-169" flags="0x204"/>
    </TTGlyph>
    <TTGlyph name="comma.sups" xMin="235" yMin="317" xMax="365" yMax="544">
      <component glyphName="comma.dnom" x="0" y="440" flags="0x204"/>
    </TTGlyph>
    <TTGlyph name="copyright" xMin="24" yMin="-10" xMax="576" yMax="654">
      <contour>
        <pt x="24" y="324" on="1"/>
        <pt x="24" y="401" on="0"/>
        <pt x="67" y="524" on="0"/>
        <pt x="142" y="609" on="0"/>
        <pt x="243" y="654" on="0"/>
        <pt x="300" y="654" on="1"/>
        <pt x="357" y="654" on="0"/>
        <pt x="458" y="609" on="0"/>
        <pt x="533" y="524" on="0"/>
        <pt x="576" y="401" on="0"/>
        <pt x="576" y="324" on="1"/>
        <pt x="576" y="247" on="0"/>
        <pt x="533" y="124" on="0"/>
        <pt x="458" y="37" on="0"/>
        <pt x="357" y="-10" on="0"/>
        <pt x="300" y="-10" on="1"/>
        <pt x="243" y="-10" on="0"/>
        <pt x="142" y="37" on="0"/>
        <pt x="67" y="124" on="0"/>
        <pt x="24" y="247" on="0"/>
      </contour>
      <contour>
        <pt x="80" y="324" on="1"/>
        <pt x="80" y="261" on="0"/>
        <pt x="112" y="157" on="0"/>
        <pt x="169" y="83" on="0"/>
        <pt x="250" y="42" on="0"/>
        <pt x="300" y="42" on="1"/>
        <pt x="349" y="42" on="0"/>
        <pt x="431" y="83" on="0"/>
        <pt x="488" y="157" on="0"/>
        <pt x="520" y="261" on="0"/>
        <pt x="520" y="324" on="1"/>
        <pt x="520" y="388" on="0"/>
        <pt x="488" y="491" on="0"/>
        <pt x="431" y="564" on="0"/>
        <pt x="349" y="603" on="0"/>
        <pt x="300" y="603" on="1"/>
        <pt x="250" y="603" on="0"/>
        <pt x="169" y="564" on="0"/>
        <pt x="112" y="491" on="0"/>
        <pt x="80" y="388" on="0"/>
      </contour>
      <contour>
        <pt x="142" y="323" on="1"/>
        <pt x="142" y="367" on="0"/>
        <pt x="170" y="438" on="0"/>
        <pt x="216" y="487" on="0"/>
        <pt x="278" y="514" on="0"/>
        <pt x="311" y="514" on="1"/>
        <pt x="349" y="514" on="0"/>
        <pt x="400" y="486" on="0"/>
        <pt x="420" y="466" on="1"/>
        <pt x="375" y="416" on="1"/>
        <pt x="361" y="429" on="0"/>
        <pt x="335" y="443" on="0"/>
        <pt x="318" y="443" on="1"/>
        <pt x="276" y="443" on="0"/>
        <pt x="229" y="375" on="0"/>
        <pt x="229" y="323" on="1"/>
        <pt x="229" y="265" on="0"/>
        <pt x="275" y="197" on="0"/>
        <pt x="313" y="197" on="1"/>
        <pt x="336" y="197" on="0"/>
        <pt x="367" y="214" on="0"/>
        <pt x="384" y="226" on="1"/>
        <pt x="422" y="170" on="1"/>
        <pt x="399" y="151" on="0"/>
        <pt x="345" y="126" on="0"/>
        <pt x="310" y="126" on="1"/>
        <pt x="274" y="126" on="0"/>
        <pt x="213" y="153" on="0"/>
        <pt x="168" y="204" on="0"/>
        <pt x="142" y="277" on="0"/>
      </contour>
    </TTGlyph>
    <TTGlyph name="currency" xMin="47" yMin="73" xMax="553" yMax="586">
      <contour>
        <pt x="47" y="133" on="1"/>
        <pt x="129" y="216" on="1"/>
        <pt x="112" y="239" on="0"/>
        <pt x="94" y="296" on="0"/>
        <pt x="94" y="329" on="1"/>
        <pt x="94" y="363" on="0"/>
        <pt x="112" y="420" on="0"/>
        <pt x="128" y="443" on="1"/>
        <pt x="47" y="526" on="1"/>
        <pt x="106" y="586" on="1"/>
        <pt x="194" y="496" on="1"/>
        <pt x="242" y="527" on="0"/>
        <pt x="300" y="527" on="1"/>
        <pt x="358" y="527" on="0"/>
        <pt x="406" y="496" on="1"/>
        <pt x="494" y="586" on="1"/>
        <pt x="553" y="526" on="1"/>
        <pt x="471" y="443" on="1"/>
        <pt x="488" y="420" on="0"/>
        <pt x="506" y="363" on="0"/>
        <pt x="506" y="329" on="1"/>
        <pt x="506" y="296" on="0"/>
        <pt x="487" y="239" on="0"/>
        <pt x="470" y="216" on="1"/>
        <pt x="553" y="133" on="1"/>
        <pt x="494" y="73" on="1"/>
        <pt x="405" y="163" on="1"/>
        <pt x="382" y="147" on="0"/>
        <pt x="328" y="132" on="0"/>
        <pt x="300" y="132" on="1"/>
        <pt x="241" y="132" on="0"/>
        <pt x="194" y="163" on="1"/>
        <pt x="106" y="73" on="1"/>
      </contour>
      <contour>
        <pt x="198" y="329" on="1"/>
        <pt x="198" y="277" on="0"/>
        <pt x="258" y="214" on="0"/>
        <pt x="300" y="214" on="1"/>
        <pt x="342" y="214" on="0"/>
        <pt x="402" y="277" on="0"/>
        <pt x="402" y="329" on="1"/>
        <pt x="402" y="382" on="0"/>
        <pt x="342" y="445" on="0"/>
        <pt x="300" y="445" on="1"/>
        <pt x="258" y="445" on="0"/>
        <pt x="198" y="382" on="0"/>
      </contour>
    </TTGlyph>
    <TTGlyph name="d" xMin="53" yMin="-12" xMax="518" yMax="706">
      <contour>
        <pt x="53" y="245" on="1"/>
        <pt x="53" y="305" on="0"/>
        <pt x="89" y="401" on="0"/>
        <pt x="150" y="467" on="0"/>
        <pt x="228" y="503" on="0"/>
        <pt x="270" y="503" on="1"/>
        <pt x="314" y="503" on="0"/>
        <pt x="377" y="472" on="0"/>
        <pt x="407" y="445" on="1"/>
        <pt x="402" y="528" on="1"/>
        <pt x="402" y="706" on="1"/>
        <pt x="518" y="706" on="1"/>
        <pt x="518" y="0" on="1"/>
        <pt x="423" y="0" on="1"/>
        <pt x="414" y="57" on="1"/>
        <pt x="411" y="57" on="1"/>
        <pt x="382" y="28" on="0"/>
        <pt x="305" y="-12" on="0"/>
        <pt x="263" y="-12" on="1"/>
        <pt x="216" y="-12" on="0"/>
        <pt x="138" y="23" on="0"/>
        <pt x="83" y="89" on="0"/>
        <pt x="53" y="184" on="0"/>
      </contour>
      <contour>
        <pt x="172" y="246" on="1"/>
        <pt x="172" y="166" on="0"/>
        <pt x="234" y="83" on="0"/>
        <pt x="291" y="83" on="1"/>
        <pt x="352" y="83" on="0"/>
        <pt x="402" y="142" on="1"/>
        <pt x="402" y="363" on="1"/>
        <pt x="376" y="388" on="0"/>
        <pt x="324" y="408" on="0"/>
        <pt x="297" y="408" on="1"/>
        <pt x="271" y="408" on="0"/>
        <pt x="226" y="386" on="0"/>
        <pt x="192" y="345" on="0"/>
        <pt x="172" y="285" on="0"/>
      </contour>
    </TTGlyph>
    <TTGlyph name="d.sups" xMin="133" yMin="252" xMax="445" yMax="725">
      <contour>
        <pt x="133" y="422" on="1"/>
        <pt x="133" y="462" on="0"/>
        <pt x="157" y="526" on="0"/>
        <pt x="197" y="570" on="0"/>
        <pt x="248" y="593" on="0"/>
        <pt x="276" y="593" on="1"/>
        <pt x="305" y="593" on="0"/>
        <pt x="345" y="574" on="0"/>
        <pt x="364" y="558" on="1"/>
        <pt x="361" y="609" on="1"/>
        <pt x="361" y="725" on="1"/>
        <pt x="445" y="725" on="1"/>
        <pt x="445" y="260" on="1"/>
        <pt x="376" y="260" on="1"/>
        <pt x="370" y="294" on="1"/>
        <pt x="368" y="294" on="1"/>
        <pt x="349" y="277" on="0"/>
        <pt x="299" y="252" on="0"/>
        <pt x="272" y="252" on="1"/>
        <pt x="209" y="252" on="0"/>
        <pt x="133" y="341" on="0"/>
      </contour>
      <contour>
        <pt x="219" y="423" on="1"/>
        <pt x="219" y="372" on="0"/>
        <pt x="258" y="321" on="0"/>
        <pt x="293" y="321" on="1"/>
        <pt x="312" y="321" on="0"/>
        <pt x="345" y="336" on="0"/>
        <pt x="361" y="354" on="1"/>
        <pt x="361" y="500" on="1"/>
        <pt x="344" y="514" on="0"/>
        <pt x="311" y="525" on="0"/>
        <pt x="294" y="525" on="1"/>
        <pt x="263" y="525" on="0"/>
        <pt x="219" y="473" on="0"/>
      </contour>
    </TTGlyph>
    <TTGlyph name="dagger" xMin="108" yMin="-80" xMax="492" yMax="712">
      <contour>
        <pt x="260" y="464" on="1"/>
        <pt x="108" y="458" on="1"/>
        <pt x="108" y="552" on="1"/>
        <pt x="260" y="545" on="1"/>
        <pt x="253" y="712" on="1"/>
        <pt x="347" y="712" on="1"/>
        <pt x="340" y="545" on="1"/>
        <pt x="492" y="552" on="1"/>
        <pt x="492" y="458" on="1"/>
        <pt x="340" y="464" on="1"/>
        <pt x="347" y="-80" on="1"/>
        <pt x="253" y="-80" on="1"/>
      </contour>
    </TTGlyph>
    <TTGlyph name="daggerdbl" xMin="108" yMin="-80" xMax="492" yMax="712">
      <contour>
        <pt x="108" y="174" on="1"/>
        <pt x="260" y="165" on="1"/>
        <pt x="253" y="316" on="1"/>
        <pt x="260" y="467" on="1"/>
        <pt x="108" y="458" on="1"/>
        <pt x="108" y="552" on="1"/>
        <pt x="260" y="545" on="1"/>
        <pt x="253" y="712" on="1"/>
        <pt x="347" y="712" on="1"/>
        <pt x="340" y="545" on="1"/>
        <pt x="492" y="552" on="1"/>
        <pt x="492" y="458" on="1"/>
        <pt x="340" y="467" on="1"/>
        <pt x="347" y="316" on="1"/>
        <pt x="340" y="165" on="1"/>
        <pt x="492" y="174" on="1"/>
        <pt x="492" y="80" on="1"/>
        <pt x="340" y="87" on="1"/>
        <pt x="347" y="-80" on="1"/>
        <pt x="253" y="-80" on="1"/>
        <pt x="260" y="87" on="1"/>
        <pt x="108" y="80" on="1"/>
      </contour>
    </TTGlyph>
    <TTGlyph name="dcaron" xMin="38" yMin="-12" xMax="614" yMax="765">
      <component glyphName="d" x="-15" y="0" flags="0x204"/>
      <component glyphName="uni030C.a" x="280" y="0" flags="0x4"/>
    </TTGlyph>
    <TTGlyph name="dcroat" xMin="53" yMin="-12" xMax="586" yMax="706">
      <contour>
        <pt x="402" y="343" on="1"/>
        <pt x="376" y="367" on="0"/>
        <pt x="325" y="388" on="0"/>
        <pt x="299" y="388" on="1"/>
        <pt x="273" y="388" on="0"/>
        <pt x="226" y="367" on="0"/>
        <pt x="192" y="328" on="0"/>
        <pt x="172" y="272" on="0"/>
        <pt x="172" y="236" on="1"/>
        <pt x="172" y="161" on="0"/>
        <pt x="234" y="83" on="0"/>
        <pt x="291" y="83" on="1"/>
        <pt x="352" y="83" on="0"/>
        <pt x="402" y="142" on="1"/>
      </contour>
      <contour>
        <pt x="586" y="569" on="1"/>
        <pt x="518" y="564" on="1"/>
        <pt x="518" y="0" on="1"/>
        <pt x="423" y="0" on="1"/>
        <pt x="414" y="57" on="1"/>
        <pt x="411" y="57" on="1"/>
        <pt x="382" y="28" on="0"/>
        <pt x="305" y="-12" on="0"/>
        <pt x="263" y="-12" on="1"/>
        <pt x="216" y="-12" on="0"/>
        <pt x="138" y="21" on="0"/>
        <pt x="83" y="85" on="0"/>
        <pt x="53" y="176" on="0"/>
        <pt x="53" y="235" on="1"/>
        <pt x="53" y="293" on="0"/>
        <pt x="89" y="385" on="0"/>
        <pt x="150" y="449" on="0"/>
        <pt x="228" y="483" on="0"/>
        <pt x="270" y="483" on="1"/>
        <pt x="314" y="483" on="0"/>
        <pt x="377" y="452" on="0"/>
        <pt x="407" y="425" on="1"/>
        <pt x="402" y="508" on="1"/>
        <pt x="402" y="564" on="1"/>
        <pt x="238" y="564" on="1"/>
        <pt x="238" y="623" on="1"/>
        <pt x="402" y="623" on="1"/>
        <pt x="402" y="706" on="1"/>
        <pt x="518" y="706" on="1"/>
        <pt x="518" y="623" on="1"/>
        <pt x="586" y="623" on="1"/>
      </contour>
    </TTGlyph>
    <TTGlyph name="degree" xMin="165" yMin="413" xMax="436" yMax="685">
      <contour>
        <pt x="301" y="413" on="1"/>
        <pt x="273" y="413" on="0"/>
        <pt x="224" y="433" on="0"/>
        <pt x="187" y="469" on="0"/>
        <pt x="165" y="519" on="0"/>
        <pt x="165" y="549" on="1"/>
        <pt x="165" y="579" on="0"/>
        <pt x="187" y="629" on="0"/>
        <pt x="224" y="665" on="0"/>
        <pt x="273" y="685" on="0"/>
        <pt x="301" y="685" on="1"/>
        <pt x="329" y="685" on="0"/>
        <pt x="378" y="665" on="0"/>
        <pt x="415" y="629" on="0"/>
        <pt x="436" y="579" on="0"/>
        <pt x="436" y="549" on="1"/>
        <pt x="436" y="519" on="0"/>
        <pt x="415" y="469" on="0"/>
        <pt x="378" y="433" on="0"/>
        <pt x="329" y="413" on="0"/>
      </contour>
      <contour>
        <pt x="301" y="472" on="1"/>
        <pt x="333" y="472" on="0"/>
        <pt x="372" y="515" on="0"/>
        <pt x="372" y="549" on="1"/>
        <pt x="372" y="584" on="0"/>
        <pt x="333" y="627" on="0"/>
        <pt x="301" y="627" on="1"/>
        <pt x="269" y="627" on="0"/>
        <pt x="229" y="584" on="0"/>
        <pt x="229" y="549" on="1"/>
        <pt x="229" y="515" on="0"/>
        <pt x="269" y="472" on="0"/>
      </contour>
    </TTGlyph>
    <TTGlyph name="dieresis" xMin="131" yMin="579" xMax="469" yMax="714">
      <component glyphName="uni0308" x="0" y="0" flags="0x204"/>
    </TTGlyph>
    <TTGlyph name="divide" xMin="78" yMin="84" xMax="522" yMax="575">
      <contour>
        <pt x="300" y="444" on="1"/>
        <pt x="271" y="444" on="0"/>
        <pt x="232" y="481" on="0"/>
        <pt x="232" y="510" on="1"/>
        <pt x="232" y="539" on="0"/>
        <pt x="271" y="575" on="0"/>
        <pt x="300" y="575" on="1"/>
        <pt x="329" y="575" on="0"/>
        <pt x="368" y="539" on="0"/>
        <pt x="368" y="510" on="1"/>
        <pt x="368" y="481" on="0"/>
        <pt x="329" y="444" on="0"/>
      </contour>
      <contour>
        <pt x="232" y="150" on="1"/>
        <pt x="232" y="179" on="0"/>
        <pt x="271" y="215" on="0"/>
        <pt x="300" y="215" on="1"/>
        <pt x="329" y="215" on="0"/>
        <pt x="368" y="179" on="0"/>
        <pt x="368" y="150" on="1"/>
        <pt x="368" y="121" on="0"/>
        <pt x="329" y="84" on="0"/>
        <pt x="300" y="84" on="1"/>
        <pt x="271" y="84" on="0"/>
        <pt x="232" y="121" on="0"/>
      </contour>
      <contour>
        <pt x="78" y="372" on="1"/>
        <pt x="522" y="372" on="1"/>
        <pt x="522" y="288" on="1"/>
        <pt x="78" y="288" on="1"/>
      </contour>
    </TTGlyph>
    <TTGlyph name="dollar" xMin="74" yMin="-110" xMax="518" yMax="746">
      <contour>
        <pt x="446" y="470" on="1"/>
        <pt x="411" y="496" on="0"/>
        <pt x="348" y="524" on="0"/>
        <pt x="302" y="524" on="1"/>
        <pt x="260" y="524" on="0"/>
        <pt x="213" y="490" on="0"/>
        <pt x="213" y="460" on="1"/>
        <pt x="213" y="437" on="0"/>
        <pt x="258" y="407" on="0"/>
        <pt x="326" y="380" on="0"/>
        <pt x="405" y="351" on="0"/>
        <pt x="473" y="309" on="0"/>
        <pt x="518" y="248" on="0"/>
        <pt x="518" y="202" on="1"/>
        <pt x="518" y="138" on="0"/>
        <pt x="427" y="49" on="0"/>
        <pt x="345" y="37" on="1"/>
        <pt x="345" y="-110" on="1"/>
        <pt x="265" y="-110" on="1"/>
        <pt x="265" y="35" on="1"/>
        <pt x="213" y="40" on="0"/>
        <pt x="111" y="83" on="0"/>
        <pt x="74" y="114" on="1"/>
        <pt x="126" y="193" on="1"/>
        <pt x="169" y="164" on="0"/>
        <pt x="257" y="128" on="0"/>
        <pt x="309" y="128" on="1"/>
        <pt x="357" y="128" on="0"/>
        <pt x="406" y="164" on="0"/>
        <pt x="406" y="194" on="1"/>
        <pt x="406" y="220" on="0"/>
        <pt x="361" y="254" on="0"/>
        <pt x="293" y="283" on="0"/>
        <pt x="215" y="312" on="0"/>
        <pt x="147" y="354" on="0"/>
        <pt x="102" y="413" on="0"/>
        <pt x="102" y="458" on="1"/>
        <pt x="102" y="523" on="0"/>
        <pt x="190" y="605" on="0"/>
        <pt x="265" y="615" on="1"/>
        <pt x="265" y="746" on="1"/>
        <pt x="345" y="746" on="1"/>
        <pt x="345" y="616" on="1"/>
        <pt x="398" y="610" on="0"/>
        <pt x="473" y="568" on="0"/>
        <pt x="504" y="537" on="1"/>
      </contour>
    </TTGlyph>
    <TTGlyph name="dollar.a" xMin="74" yMin="-114" xMax="524" yMax="751">
      <contour>
        <pt x="305" y="128" on="1"/>
        <pt x="315" y="128" on="1"/>
        <pt x="363" y="128" on="0"/>
        <pt x="412" y="164" on="0"/>
        <pt x="412" y="194" on="1"/>
        <pt x="412" y="220" on="0"/>
        <pt x="366" y="254" on="0"/>
        <pt x="331" y="268" on="1"/>
      </contour>
      <contour>
        <pt x="305" y="524" on="1"/>
        <pt x="296" y="524" on="1"/>
        <pt x="254" y="524" on="0"/>
        <pt x="207" y="490" on="0"/>
        <pt x="207" y="460" on="1"/>
        <pt x="207" y="439" on="0"/>
        <pt x="249" y="410" on="0"/>
        <pt x="281" y="397" on="1"/>
      </contour>
      <contour>
        <pt x="350" y="372" on="1"/>
        <pt x="381" y="360" on="0"/>
        <pt x="444" y="332" on="0"/>
        <pt x="493" y="292" on="0"/>
        <pt x="524" y="238" on="0"/>
        <pt x="524" y="202" on="1"/>
        <pt x="524" y="165" on="0"/>
        <pt x="493" y="104" on="0"/>
        <pt x="435" y="59" on="0"/>
        <pt x="352" y="34" on="0"/>
        <pt x="300" y="34" on="1"/>
        <pt x="288" y="34" on="1"/>
        <pt x="260" y="-114" on="1"/>
        <pt x="188" y="-106" on="1"/>
        <pt x="216" y="45" on="1"/>
        <pt x="176" y="55" on="0"/>
        <pt x="102" y="91" on="0"/>
        <pt x="74" y="114" on="1"/>
        <pt x="126" y="193" on="1"/>
        <pt x="152" y="176" on="0"/>
        <pt x="205" y="149" on="0"/>
        <pt x="234" y="140" on="1"/>
        <pt x="262" y="294" on="1"/>
        <pt x="232" y="306" on="0"/>
        <pt x="172" y="334" on="0"/>
        <pt x="125" y="372" on="0"/>
        <pt x="96" y="423" on="0"/>
        <pt x="96" y="458" on="1"/>
        <pt x="96" y="495" on="0"/>
        <pt x="126" y="554" on="0"/>
        <pt x="181" y="596" on="0"/>
        <pt x="257" y="618" on="0"/>
        <pt x="304" y="618" on="1"/>
        <pt x="322" y="618" on="1"/>
        <pt x="347" y="751" on="1"/>
        <pt x="419" y="742" on="1"/>
        <pt x="394" y="605" on="1"/>
        <pt x="428" y="594" on="0"/>
        <pt x="481" y="560" on="0"/>
        <pt x="504" y="537" on="1"/>
        <pt x="446" y="470" on="1"/>
        <pt x="427" y="484" on="0"/>
        <pt x="394" y="503" on="0"/>
        <pt x="376" y="510" on="1"/>
      </contour>
    </TTGlyph>
    <TTGlyph name="dong" xMin="100" yMin="0" xMax="554" yMax="658">
      <contour>
        <pt x="112" y="62" on="1"/>
        <pt x="511" y="62" on="1"/>
        <pt x="511" y="0" on="1"/>
        <pt x="112" y="0" on="1"/>
      </contour>
      <contour>
        <pt x="383" y="368" on="1"/>
        <pt x="360" y="386" on="0"/>
        <pt x="321" y="402" on="0"/>
        <pt x="295" y="402" on="1"/>
        <pt x="276" y="402" on="0"/>
        <pt x="241" y="388" on="0"/>
        <pt x="215" y="362" on="0"/>
        <pt x="199" y="325" on="0"/>
        <pt x="199" y="303" on="1"/>
        <pt x="199" y="248" on="0"/>
        <pt x="248" y="192" on="0"/>
        <pt x="291" y="192" on="1"/>
        <pt x="317" y="192" on="0"/>
        <pt x="360" y="212" on="0"/>
        <pt x="383" y="236" on="1"/>
      </contour>
      <contour>
        <pt x="554" y="600" on="1"/>
        <pt x="554" y="544" on="1"/>
        <pt x="479" y="538" on="1"/>
        <pt x="479" y="123" on="1"/>
        <pt x="400" y="123" on="1"/>
        <pt x="392" y="163" on="1"/>
        <pt x="389" y="163" on="1"/>
        <pt x="366" y="140" on="0"/>
        <pt x="306" y="113" on="0"/>
        <pt x="269" y="113" on="1"/>
        <pt x="191" y="113" on="0"/>
        <pt x="100" y="210" on="0"/>
        <pt x="100" y="302" on="1"/>
        <pt x="100" y="344" on="0"/>
        <pt x="130" y="411" on="0"/>
        <pt x="179" y="457" on="0"/>
        <pt x="241" y="482" on="0"/>
        <pt x="274" y="482" on="1"/>
        <pt x="312" y="482" on="0"/>
        <pt x="362" y="459" on="0"/>
        <pt x="387" y="439" on="1"/>
        <pt x="383" y="514" on="1"/>
        <pt x="383" y="538" on="1"/>
        <pt x="228" y="538" on="1"/>
        <pt x="228" y="600" on="1"/>
        <pt x="383" y="600" on="1"/>
        <pt x="383" y="658" on="1"/>
        <pt x="479" y="658" on="1"/>
        <pt x="479" y="600" on="1"/>
      </contour>
    </TTGlyph>
    <TTGlyph name="dotaccent" xMin="218" yMin="577" xMax="382" yMax="732">
      <component glyphName="uni0307" x="0" y="0" flags="0x204"/>
    </TTGlyph>
    <TTGlyph name="dotlessi" xMin="84" yMin="0" xMax="412" yMax="491">
      <contour>
        <pt x="84" y="491" on="1"/>
        <pt x="412" y="491" on="1"/>
        <pt x="412" y="0" on="1"/>
        <pt x="297" y="0" on="1"/>
        <pt x="297" y="400" on="1"/>
        <pt x="84" y="400" on="1"/>
      </contour>
    </TTGlyph>
    <TTGlyph name="e" xMin="62" yMin="-12" xMax="542" yMax="503">
      <contour>
        <pt x="62" y="245" on="1"/>
        <pt x="62" y="305" on="0"/>
        <pt x="105" y="401" on="0"/>
        <pt x="175" y="468" on="0"/>
        <pt x="266" y="503" on="0"/>
        <pt x="314" y="503" on="1"/>
        <pt x="369" y="503" on="0"/>
        <pt x="454" y="468" on="0"/>
        <pt x="512" y="407" on="0"/>
        <pt x="542" y="321" on="0"/>
        <pt x="542" y="270" on="1"/>
        <pt x="542" y="253" on="0"/>
        <pt x="539" y="223" on="0"/>
        <pt x="537" y="214" on="1"/>
        <pt x="180" y="214" on="1"/>
        <pt x="186" y="148" on="0"/>
        <pt x="278" y="77" on="0"/>
        <pt x="345" y="77" on="1"/>
        <pt x="383" y="77" on="0"/>
        <pt x="449" y="98" on="0"/>
        <pt x="483" y="117" on="1"/>
        <pt x="522" y="45" on="1"/>
        <pt x="482" y="20" on="0"/>
        <pt x="384" y="-12" on="0"/>
        <pt x="330" y="-12" on="1"/>
        <pt x="274" y="-12" on="0"/>
        <pt x="176" y="23" on="0"/>
        <pt x="104" y="89" on="0"/>
        <pt x="62" y="184" on="0"/>
      </contour>
      <contour>
        <pt x="436" y="292" on="1"/>
        <pt x="436" y="349" on="0"/>
        <pt x="376" y="414" on="0"/>
        <pt x="317" y="414" on="1"/>
        <pt x="267" y="414" on="0"/>
        <pt x="189" y="352" on="0"/>
        <pt x="179" y="292" on="1"/>
      </contour>
    </TTGlyph>
    <TTGlyph name="e.sups" xMin="154" yMin="252" xMax="461" yMax="593">
      <contour>
        <pt x="154" y="422" on="1"/>
        <pt x="154" y="462" on="0"/>
        <pt x="181" y="525" on="0"/>
        <pt x="226" y="569" on="0"/>
        <pt x="284" y="593" on="0"/>
        <pt x="315" y="593" on="1"/>
        <pt x="387" y="593" on="0"/>
        <pt x="461" y="506" on="0"/>
        <pt x="461" y="438" on="1"/>
        <pt x="461" y="427" on="0"/>
        <pt x="459" y="407" on="0"/>
        <pt x="457" y="401" on="1"/>
        <pt x="236" y="401" on="1"/>
        <pt x="242" y="359" on="0"/>
        <pt x="297" y="316" on="0"/>
        <pt x="338" y="316" on="1"/>
        <pt x="379" y="316" on="0"/>
        <pt x="419" y="339" on="1"/>
        <pt x="448" y="288" on="1"/>
        <pt x="422" y="271" on="0"/>
        <pt x="358" y="252" on="0"/>
        <pt x="326" y="252" on="1"/>
        <pt x="290" y="252" on="0"/>
        <pt x="227" y="275" on="0"/>
        <pt x="181" y="319" on="0"/>
        <pt x="154" y="382" on="0"/>
      </contour>
      <contour>
        <pt x="389" y="453" on="1"/>
        <pt x="389" y="488" on="0"/>
        <pt x="353" y="529" on="0"/>
        <pt x="317" y="529" on="1"/>
        <pt x="288" y="529" on="0"/>
        <pt x="240" y="491" on="0"/>
        <pt x="235" y="453" on="1"/>
      </contour>
    </TTGlyph>
    <TTGlyph name="eacute" xMin="62" yMin="-12" xMax="542" yMax="731">
      <component glyphName="e" x="0" y="0" flags="0x204"/>
      <component glyphName="uni0301" x="14" y="0" flags="0x4"/>
    </TTGlyph>
    <TTGlyph name="eacute.sups" xMin="154" yMin="252" xMax="461" yMax="745">
      <contour>
        <pt x="154" y="422" on="1"/>
        <pt x="154" y="462" on="0"/>
        <pt x="181" y="525" on="0"/>
        <pt x="226" y="569" on="0"/>
        <pt x="284" y="593" on="0"/>
        <pt x="315" y="593" on="1"/>
        <pt x="387" y="593" on="0"/>
        <pt x="461" y="506" on="0"/>
        <pt x="461" y="438" on="1"/>
        <pt x="461" y="427" on="0"/>
        <pt x="459" y="407" on="0"/>
        <pt x="457" y="401" on="1"/>
        <pt x="236" y="401" on="1"/>
        <pt x="242" y="359" on="0"/>
        <pt x="297" y="316" on="0"/>
        <pt x="338" y="316" on="1"/>
        <pt x="379" y="316" on="0"/>
        <pt x="419" y="339" on="1"/>
        <pt x="448" y="288" on="1"/>
        <pt x="422" y="271" on="0"/>
        <pt x="358" y="252" on="0"/>
        <pt x="326" y="252" on="1"/>
        <pt x="290" y="252" on="0"/>
        <pt x="227" y="275" on="0"/>
        <pt x="181" y="319" on="0"/>
        <pt x="154" y="382" on="0"/>
      </contour>
      <contour>
        <pt x="389" y="453" on="1"/>
        <pt x="389" y="488" on="0"/>
        <pt x="353" y="529" on="0"/>
        <pt x="317" y="529" on="1"/>
        <pt x="288" y="529" on="0"/>
        <pt x="240" y="491" on="0"/>
        <pt x="235" y="453" on="1"/>
      </contour>
      <contour>
        <pt x="326" y="639" on="1"/>
        <pt x="263" y="639" on="1"/>
        <pt x="323" y="745" on="1"/>
        <pt x="411" y="745" on="1"/>
      </contour>
    </TTGlyph>
    <TTGlyph name="ebreve" xMin="62" yMin="-12" xMax="542" yMax="720">
      <component glyphName="e" x="0" y="0" flags="0x204"/>
      <component glyphName="uni0306" x="14" y="0" flags="0x4"/>
    </TTGlyph>
    <TTGlyph name="ecaron" xMin="62" yMin="-12" xMax="542" yMax="731">
      <component glyphName="e" x="0" y="0" flags="0x204"/>
      <component glyphName="uni030C" x="14" y="0" flags="0x4"/>
    </TTGlyph>
    <TTGlyph name="ecircumflex" xMin="62" yMin="-12" xMax="542" yMax="731">
      <component glyphName="e" x="0" y="0" flags="0x204"/>
      <component glyphName="uni0302" x="14" y="0" flags="0x4"/>
    </TTGlyph>
    <TTGlyph name="edieresis" xMin="62" yMin="-12" xMax="542" yMax="714">
      <component glyphName="e" x="0" y="0" flags="0x204"/>
      <component glyphName="uni0308" x="13" y="0" flags="0x4"/>
    </TTGlyph>
    <TTGlyph name="edotaccent" xMin="62" yMin="-12" xMax="542" yMax="732">
      <component glyphName="e" x="0" y="0" flags="0x204"/>
      <component glyphName="uni0307" x="14" y="0" flags="0x4"/>
    </TTGlyph>
    <TTGlyph name="egrave" xMin="62" yMin="-12" xMax="542" yMax="731">
      <component glyphName="e" x="0" y="0" flags="0x204"/>
      <component glyphName="uni0300" x="14" y="0" flags="0x4"/>
    </TTGlyph>
    <TTGlyph name="egrave.sups" xMin="154" yMin="252" xMax="461" yMax="745">
      <contour>
        <pt x="154" y="422" on="1"/>
        <pt x="154" y="462" on="0"/>
        <pt x="181" y="525" on="0"/>
        <pt x="226" y="569" on="0"/>
        <pt x="284" y="593" on="0"/>
        <pt x="315" y="593" on="1"/>
        <pt x="387" y="593" on="0"/>
        <pt x="461" y="506" on="0"/>
        <pt x="461" y="438" on="1"/>
        <pt x="461" y="427" on="0"/>
        <pt x="459" y="407" on="0"/>
        <pt x="457" y="401" on="1"/>
        <pt x="236" y="401" on="1"/>
        <pt x="242" y="359" on="0"/>
        <pt x="297" y="316" on="0"/>
        <pt x="338" y="316" on="1"/>
        <pt x="379" y="316" on="0"/>
        <pt x="419" y="339" on="1"/>
        <pt x="448" y="288" on="1"/>
        <pt x="422" y="271" on="0"/>
        <pt x="358" y="252" on="0"/>
        <pt x="326" y="252" on="1"/>
        <pt x="290" y="252" on="0"/>
        <pt x="227" y="275" on="0"/>
        <pt x="181" y="319" on="0"/>
        <pt x="154" y="382" on="0"/>
      </contour>
      <contour>
        <pt x="389" y="453" on="1"/>
        <pt x="389" y="488" on="0"/>
        <pt x="353" y="529" on="0"/>
        <pt x="317" y="529" on="1"/>
        <pt x="288" y="529" on="0"/>
        <pt x="240" y="491" on="0"/>
        <pt x="235" y="453" on="1"/>
      </contour>
      <contour>
        <pt x="219" y="745" on="1"/>
        <pt x="306" y="745" on="1"/>
        <pt x="366" y="639" on="1"/>
        <pt x="303" y="639" on="1"/>
      </contour>
    </TTGlyph>
    <TTGlyph name="eight" xMin="64" yMin="-12" xMax="536" yMax="648">
      <contour>
        <pt x="166" y="175" on="1"/>
        <pt x="166" y="127" on="0"/>
        <pt x="242" y="70" on="0"/>
        <pt x="303" y="70" on="1"/>
        <pt x="361" y="70" on="0"/>
        <pt x="427" y="120" on="0"/>
        <pt x="427" y="165" on="1"/>
        <pt x="427" y="192" on="0"/>
        <pt x="400" y="230" on="0"/>
        <pt x="353" y="258" on="0"/>
        <pt x="289" y="281" on="0"/>
        <pt x="251" y="294" on="1"/>
        <pt x="214" y="272" on="0"/>
        <pt x="166" y="215" on="0"/>
      </contour>
      <contour>
        <pt x="348" y="359" on="1"/>
        <pt x="411" y="410" on="0"/>
        <pt x="411" y="469" on="1"/>
        <pt x="411" y="511" on="0"/>
        <pt x="355" y="566" on="0"/>
        <pt x="302" y="566" on="1"/>
        <pt x="257" y="566" on="0"/>
        <pt x="200" y="521" on="0"/>
        <pt x="200" y="479" on="1"/>
        <pt x="200" y="455" on="0"/>
        <pt x="222" y="419" on="0"/>
        <pt x="262" y="392" on="0"/>
        <pt x="316" y="369" on="0"/>
      </contour>
      <contour>
        <pt x="64" y="163" on="1"/>
        <pt x="64" y="194" on="0"/>
        <pt x="85" y="244" on="0"/>
        <pt x="121" y="283" on="0"/>
        <pt x="168" y="314" on="0"/>
        <pt x="193" y="326" on="1"/>
        <pt x="193" y="330" on="1"/>
        <pt x="153" y="356" on="0"/>
        <pt x="98" y="428" on="0"/>
        <pt x="98" y="479" on="1"/>
        <pt x="98" y="518" on="0"/>
        <pt x="129" y="580" on="0"/>
        <pt x="184" y="624" on="0"/>
        <pt x="259" y="648" on="0"/>
        <pt x="304" y="648" on="1"/>
        <pt x="399" y="648" on="0"/>
        <pt x="508" y="554" on="0"/>
        <pt x="508" y="476" on="1"/>
        <pt x="508" y="431" on="0"/>
        <pt x="452" y="357" on="0"/>
        <pt x="413" y="331" on="1"/>
        <pt x="413" y="327" on="1"/>
        <pt x="439" y="314" on="0"/>
        <pt x="484" y="284" on="0"/>
        <pt x="517" y="245" on="0"/>
        <pt x="536" y="194" on="0"/>
        <pt x="536" y="161" on="1"/>
        <pt x="536" y="124" on="0"/>
        <pt x="505" y="61" on="0"/>
        <pt x="445" y="14" on="0"/>
        <pt x="357" y="-12" on="0"/>
        <pt x="301" y="-12" on="1"/>
        <pt x="246" y="-12" on="0"/>
        <pt x="158" y="14" on="0"/>
        <pt x="97" y="60" on="0"/>
        <pt x="64" y="124" on="0"/>
      </contour>
    </TTGlyph>
    <TTGlyph name="eight.dnom" xMin="170" yMin="-12" xMax="430" yMax="320">
      <contour>
        <pt x="247" y="84" on="1"/>
        <pt x="247" y="67" on="0"/>
        <pt x="277" y="45" on="0"/>
        <pt x="300" y="45" on="1"/>
        <pt x="321" y="45" on="0"/>
        <pt x="353" y="65" on="0"/>
        <pt x="353" y="81" on="1"/>
        <pt x="353" y="103" on="0"/>
        <pt x="312" y="125" on="0"/>
        <pt x="283" y="133" on="1"/>
        <pt x="247" y="114" on="0"/>
      </contour>
      <contour>
        <pt x="316" y="186" on="1"/>
        <pt x="344" y="203" on="0"/>
        <pt x="344" y="228" on="1"/>
        <pt x="344" y="243" on="0"/>
        <pt x="320" y="263" on="0"/>
        <pt x="299" y="263" on="1"/>
        <pt x="280" y="263" on="0"/>
        <pt x="257" y="245" on="0"/>
        <pt x="257" y="231" on="1"/>
        <pt x="257" y="213" on="0"/>
        <pt x="290" y="194" on="0"/>
      </contour>
      <contour>
        <pt x="170" y="78" on="1"/>
        <pt x="170" y="109" on="0"/>
        <pt x="209" y="144" on="0"/>
        <pt x="233" y="157" on="1"/>
        <pt x="233" y="161" on="1"/>
        <pt x="222" y="168" on="0"/>
        <pt x="203" y="182" on="0"/>
        <pt x="188" y="198" on="0"/>
        <pt x="180" y="219" on="0"/>
        <pt x="180" y="233" on="1"/>
        <pt x="180" y="252" on="0"/>
        <pt x="199" y="285" on="0"/>
        <pt x="232" y="307" on="0"/>
        <pt x="276" y="320" on="0"/>
        <pt x="300" y="320" on="1"/>
        <pt x="352" y="320" on="0"/>
        <pt x="420" y="272" on="0"/>
        <pt x="420" y="233" on="1"/>
        <pt x="420" y="206" on="0"/>
        <pt x="388" y="175" on="0"/>
        <pt x="367" y="164" on="1"/>
        <pt x="367" y="160" on="1"/>
        <pt x="393" y="148" on="0"/>
        <pt x="430" y="112" on="0"/>
        <pt x="430" y="78" on="1"/>
        <pt x="430" y="40" on="0"/>
        <pt x="357" y="-12" on="0"/>
        <pt x="300" y="-12" on="1"/>
        <pt x="242" y="-12" on="0"/>
        <pt x="170" y="41" on="0"/>
      </contour>
    </TTGlyph>
    <TTGlyph name="eight.numr" xMin="170" yMin="316" xMax="430" yMax="648">
      <component glyphName="eight.dnom" x="0" y="328" flags="0x204"/>
    </TTGlyph>
    <TTGlyph name="eight.onum" xMin="64" yMin="-12" xMax="536" yMax="648">
      <component glyphName="eight" x="0" y="0" flags="0x204"/>
    </TTGlyph>
    <TTGlyph name="eight.subs" xMin="170" yMin="-181" xMax="430" yMax="151">
      <component glyphName="eight.dnom" x="0" y="-169" flags="0x204"/>
    </TTGlyph>
    <TTGlyph name="eight.sups" xMin="170" yMin="428" xMax="430" yMax="760">
      <component glyphName="eight.dnom" x="0" y="440" flags="0x204"/>
    </TTGlyph>
    <TTGlyph name="ellipsis" xMin="15" yMin="-12" xMax="585" yMax="160">
      <contour>
        <pt x="15" y="74" on="1"/>
        <pt x="15" y="111" on="0"/>
        <pt x="61" y="160" on="0"/>
        <pt x="96" y="160" on="1"/>
        <pt x="131" y="160" on="0"/>
        <pt x="177" y="111" on="0"/>
        <pt x="177" y="74" on="1"/>
        <pt x="177" y="36" on="0"/>
        <pt x="131" y="-12" on="0"/>
        <pt x="96" y="-12" on="1"/>
        <pt x="61" y="-12" on="0"/>
        <pt x="15" y="36" on="0"/>
      </contour>
      <contour>
        <pt x="219" y="74" on="1"/>
        <pt x="219" y="111" on="0"/>
        <pt x="265" y="160" on="0"/>
        <pt x="300" y="160" on="1"/>
        <pt x="335" y="160" on="0"/>
        <pt x="381" y="111" on="0"/>
        <pt x="381" y="74" on="1"/>
        <pt x="381" y="36" on="0"/>
        <pt x="335" y="-12" on="0"/>
        <pt x="300" y="-12" on="1"/>
        <pt x="265" y="-12" on="0"/>
        <pt x="219" y="36" on="0"/>
      </contour>
      <contour>
        <pt x="423" y="74" on="1"/>
        <pt x="423" y="111" on="0"/>
        <pt x="469" y="160" on="0"/>
        <pt x="504" y="160" on="1"/>
        <pt x="539" y="160" on="0"/>
        <pt x="585" y="111" on="0"/>
        <pt x="585" y="74" on="1"/>
        <pt x="585" y="36" on="0"/>
        <pt x="539" y="-12" on="0"/>
        <pt x="504" y="-12" on="1"/>
        <pt x="469" y="-12" on="0"/>
        <pt x="423" y="36" on="0"/>
      </contour>
    </TTGlyph>
    <TTGlyph name="emacron" xMin="62" yMin="-12" xMax="542" yMax="672">
      <component glyphName="e" x="0" y="0" flags="0x204"/>
      <component glyphName="uni0304" x="14" y="0" flags="0x4"/>
    </TTGlyph>
    <TTGlyph name="emdash" xMin="20" yMin="207" xMax="580" yMax="299">
      <contour>
        <pt x="20" y="299" on="1"/>
        <pt x="580" y="299" on="1"/>
        <pt x="580" y="207" on="1"/>
        <pt x="20" y="207" on="1"/>
      </contour>
    </TTGlyph>
    <TTGlyph name="endash" xMin="80" yMin="207" xMax="520" yMax="299">
      <contour>
        <pt x="80" y="299" on="1"/>
        <pt x="520" y="299" on="1"/>
        <pt x="520" y="207" on="1"/>
        <pt x="80" y="207" on="1"/>
      </contour>
    </TTGlyph>
    <TTGlyph name="eogonek" xMin="62" yMin="-208" xMax="542" yMax="503">
      <contour>
        <pt x="522" y="45" on="1"/>
        <pt x="488" y="21" on="0"/>
        <pt x="444" y="-16" on="0"/>
        <pt x="419" y="-49" on="0"/>
        <pt x="409" y="-79" on="0"/>
        <pt x="409" y="-95" on="1"/>
        <pt x="409" y="-116" on="0"/>
        <pt x="435" y="-137" on="0"/>
        <pt x="453" y="-137" on="1"/>
        <pt x="473" y="-137" on="0"/>
        <pt x="491" y="-124" on="1"/>
        <pt x="517" y="-178" on="1"/>
        <pt x="500" y="-192" on="0"/>
        <pt x="448" y="-208" on="0"/>
        <pt x="427" y="-208" on="1"/>
        <pt x="385" y="-208" on="0"/>
        <pt x="330" y="-164" on="0"/>
        <pt x="330" y="-120" on="1"/>
        <pt x="330" y="-82" on="0"/>
        <pt x="371" y="-21" on="0"/>
        <pt x="392" y="-4" on="1"/>
        <pt x="372" y="-9" on="0"/>
        <pt x="345" y="-12" on="0"/>
        <pt x="330" y="-12" on="1"/>
        <pt x="274" y="-12" on="0"/>
        <pt x="176" y="23" on="0"/>
        <pt x="104" y="89" on="0"/>
        <pt x="62" y="184" on="0"/>
        <pt x="62" y="245" on="1"/>
        <pt x="62" y="305" on="0"/>
        <pt x="105" y="401" on="0"/>
        <pt x="175" y="468" on="0"/>
        <pt x="266" y="503" on="0"/>
        <pt x="314" y="503" on="1"/>
        <pt x="369" y="503" on="0"/>
        <pt x="454" y="468" on="0"/>
        <pt x="512" y="407" on="0"/>
        <pt x="542" y="321" on="0"/>
        <pt x="542" y="270" on="1"/>
        <pt x="542" y="253" on="0"/>
        <pt x="539" y="223" on="0"/>
        <pt x="537" y="214" on="1"/>
        <pt x="180" y="214" on="1"/>
        <pt x="186" y="148" on="0"/>
        <pt x="278" y="77" on="0"/>
        <pt x="345" y="77" on="1"/>
        <pt x="383" y="77" on="0"/>
        <pt x="449" y="98" on="0"/>
        <pt x="483" y="117" on="1"/>
      </contour>
      <contour>
        <pt x="436" y="292" on="1"/>
        <pt x="436" y="349" on="0"/>
        <pt x="376" y="414" on="0"/>
        <pt x="317" y="414" on="1"/>
        <pt x="267" y="414" on="0"/>
        <pt x="189" y="352" on="0"/>
        <pt x="179" y="292" on="1"/>
      </contour>
    </TTGlyph>
    <TTGlyph name="equal" xMin="78" yMin="177" xMax="522" yMax="484">
      <component glyphName="minus" x="0" y="112" flags="0x204"/>
      <component glyphName="minus" x="0" y="-111" flags="0x4"/>
    </TTGlyph>
    <TTGlyph name="estimated" xMin="26" yMin="-12" xMax="574" yMax="660">
      <contour>
        <pt x="164" y="68" on="1"/>
        <pt x="190" y="39" on="0"/>
        <pt x="261" y="8" on="0"/>
        <pt x="302" y="8" on="1"/>
        <pt x="355" y="8" on="0"/>
        <pt x="449" y="69" on="0"/>
        <pt x="484" y="120" on="1"/>
        <pt x="522" y="120" on="1"/>
        <pt x="481" y="60" on="0"/>
        <pt x="368" y="-12" on="0"/>
        <pt x="300" y="-12" on="1"/>
        <pt x="243" y="-12" on="0"/>
        <pt x="144" y="41" on="0"/>
        <pt x="69" y="132" on="0"/>
        <pt x="26" y="254" on="0"/>
        <pt x="26" y="324" on="1"/>
        <pt x="26" y="394" on="0"/>
        <pt x="69" y="516" on="0"/>
        <pt x="144" y="607" on="0"/>
        <pt x="243" y="660" on="0"/>
        <pt x="300" y="660" on="1"/>
        <pt x="357" y="660" on="0"/>
        <pt x="456" y="607" on="0"/>
        <pt x="531" y="516" on="0"/>
        <pt x="574" y="394" on="0"/>
        <pt x="574" y="324" on="1"/>
        <pt x="574" y="316" on="1"/>
        <pt x="160" y="316" on="1"/>
        <pt x="156" y="316" on="0"/>
        <pt x="156" y="312" on="1"/>
        <pt x="156" y="88" on="1"/>
        <pt x="156" y="82" on="0"/>
        <pt x="161" y="73" on="0"/>
      </contour>
      <contour>
        <pt x="440" y="334" on="1"/>
        <pt x="446" y="334" on="0"/>
        <pt x="446" y="340" on="1"/>
        <pt x="446" y="564" on="1"/>
        <pt x="446" y="576" on="0"/>
        <pt x="436" y="586" on="1"/>
        <pt x="410" y="612" on="0"/>
        <pt x="340" y="640" on="0"/>
        <pt x="302" y="640" on="1"/>
        <pt x="261" y="640" on="0"/>
        <pt x="190" y="609" on="0"/>
        <pt x="164" y="582" on="1"/>
        <pt x="161" y="577" on="0"/>
        <pt x="156" y="565" on="0"/>
        <pt x="156" y="560" on="1"/>
        <pt x="156" y="340" on="1"/>
        <pt x="156" y="334" on="0"/>
        <pt x="160" y="334" on="1"/>
      </contour>
    </TTGlyph>
    <TTGlyph name="eth" xMin="53" yMin="-12" xMax="543" yMax="735">
      <contour>
        <pt x="300" y="82" on="1"/>
        <pt x="366" y="82" on="0"/>
        <pt x="434" y="175" on="0"/>
        <pt x="434" y="256" on="1"/>
        <pt x="434" y="267" on="0"/>
        <pt x="434" y="286" on="0"/>
        <pt x="433" y="296" on="1"/>
        <pt x="402" y="334" on="0"/>
        <pt x="334" y="364" on="0"/>
        <pt x="299" y="364" on="1"/>
        <pt x="232" y="364" on="0"/>
        <pt x="160" y="290" on="0"/>
        <pt x="160" y="225" on="1"/>
        <pt x="160" y="192" on="0"/>
        <pt x="182" y="139" on="0"/>
        <pt x="220" y="102" on="0"/>
        <pt x="271" y="82" on="0"/>
      </contour>
      <contour>
        <pt x="400" y="608" on="1"/>
        <pt x="432" y="578" on="0"/>
        <pt x="485" y="506" on="0"/>
        <pt x="522" y="420" on="0"/>
        <pt x="543" y="320" on="0"/>
        <pt x="543" y="262" on="1"/>
        <pt x="543" y="202" on="0"/>
        <pt x="509" y="101" on="0"/>
        <pt x="445" y="28" on="0"/>
        <pt x="354" y="-12" on="0"/>
        <pt x="296" y="-12" on="1"/>
        <pt x="247" y="-12" on="0"/>
        <pt x="159" y="21" on="0"/>
        <pt x="92" y="82" on="0"/>
        <pt x="53" y="170" on="0"/>
        <pt x="53" y="225" on="1"/>
        <pt x="53" y="277" on="0"/>
        <pt x="88" y="361" on="0"/>
        <pt x="150" y="420" on="0"/>
        <pt x="231" y="451" on="0"/>
        <pt x="278" y="451" on="1"/>
        <pt x="319" y="451" on="0"/>
        <pt x="394" y="418" on="0"/>
        <pt x="420" y="384" on="1"/>
        <pt x="406" y="441" on="0"/>
        <pt x="352" y="528" on="0"/>
        <pt x="312" y="563" on="1"/>
        <pt x="162" y="487" on="1"/>
        <pt x="130" y="540" on="1"/>
        <pt x="257" y="605" on="1"/>
        <pt x="233" y="621" on="0"/>
        <pt x="180" y="650" on="0"/>
        <pt x="150" y="664" on="1"/>
        <pt x="201" y="735" on="1"/>
        <pt x="240" y="717" on="0"/>
        <pt x="314" y="676" on="0"/>
        <pt x="347" y="651" on="1"/>
        <pt x="483" y="720" on="1"/>
        <pt x="514" y="666" on="1"/>
      </contour>
    </TTGlyph>
    <TTGlyph name="exclam" xMin="213" yMin="-12" xMax="387" yMax="670">
      <contour>
        <pt x="246" y="556" on="1"/>
        <pt x="243" y="670" on="1"/>
        <pt x="357" y="670" on="1"/>
        <pt x="354" y="556" on="1"/>
        <pt x="338" y="244" on="1"/>
        <pt x="262" y="244" on="1"/>
      </contour>
      <contour>
        <pt x="213" y="78" on="1"/>
        <pt x="213" y="118" on="0"/>
        <pt x="263" y="166" on="0"/>
        <pt x="300" y="166" on="1"/>
        <pt x="337" y="166" on="0"/>
        <pt x="387" y="118" on="0"/>
        <pt x="387" y="78" on="1"/>
        <pt x="387" y="37" on="0"/>
        <pt x="337" y="-12" on="0"/>
        <pt x="300" y="-12" on="1"/>
        <pt x="263" y="-12" on="0"/>
        <pt x="213" y="37" on="0"/>
      </contour>
    </TTGlyph>
    <TTGlyph name="exclamdown" xMin="213" yMin="-179" xMax="387" yMax="503">
      <contour>
        <pt x="354" y="-65" on="1"/>
        <pt x="357" y="-179" on="1"/>
        <pt x="243" y="-179" on="1"/>
        <pt x="246" y="-65" on="1"/>
        <pt x="262" y="247" on="1"/>
        <pt x="338" y="247" on="1"/>
      </contour>
      <contour>
        <pt x="387" y="413" on="1"/>
        <pt x="387" y="373" on="0"/>
        <pt x="337" y="325" on="0"/>
        <pt x="300" y="325" on="1"/>
        <pt x="263" y="325" on="0"/>
        <pt x="213" y="373" on="0"/>
        <pt x="213" y="413" on="1"/>
        <pt x="213" y="454" on="0"/>
        <pt x="263" y="503" on="0"/>
        <pt x="300" y="503" on="1"/>
        <pt x="337" y="503" on="0"/>
        <pt x="387" y="454" on="0"/>
      </contour>
    </TTGlyph>
    <TTGlyph name="f" xMin="92" yMin="0" xMax="582" yMax="718">
      <contour>
        <pt x="558" y="606" on="1"/>
        <pt x="531" y="617" on="0"/>
        <pt x="480" y="627" on="0"/>
        <pt x="450" y="627" on="1"/>
        <pt x="393" y="627" on="0"/>
        <pt x="342" y="572" on="0"/>
        <pt x="342" y="520" on="1"/>
        <pt x="342" y="491" on="1"/>
        <pt x="529" y="491" on="1"/>
        <pt x="529" y="400" on="1"/>
        <pt x="342" y="400" on="1"/>
        <pt x="342" y="0" on="1"/>
        <pt x="228" y="0" on="1"/>
        <pt x="228" y="400" on="1"/>
        <pt x="92" y="400" on="1"/>
        <pt x="92" y="486" on="1"/>
        <pt x="228" y="491" on="1"/>
        <pt x="228" y="518" on="1"/>
        <pt x="228" y="561" on="0"/>
        <pt x="252" y="635" on="0"/>
        <pt x="303" y="688" on="0"/>
        <pt x="382" y="718" on="0"/>
        <pt x="436" y="718" on="1"/>
        <pt x="476" y="718" on="0"/>
        <pt x="549" y="704" on="0"/>
        <pt x="582" y="691" on="1"/>
      </contour>
    </TTGlyph>
    <TTGlyph name="f.sups" xMin="190" yMin="260" xMax="506" yMax="733">
      <contour>
        <pt x="489" y="654" on="1"/>
        <pt x="472" y="660" on="0"/>
        <pt x="439" y="667" on="0"/>
        <pt x="419" y="667" on="1"/>
        <pt x="384" y="667" on="0"/>
        <pt x="350" y="633" on="0"/>
        <pt x="350" y="603" on="1"/>
        <pt x="350" y="585" on="1"/>
        <pt x="470" y="585" on="1"/>
        <pt x="470" y="519" on="1"/>
        <pt x="350" y="519" on="1"/>
        <pt x="350" y="260" on="1"/>
        <pt x="267" y="260" on="1"/>
        <pt x="267" y="519" on="1"/>
        <pt x="190" y="519" on="1"/>
        <pt x="190" y="582" on="1"/>
        <pt x="267" y="585" on="1"/>
        <pt x="267" y="602" on="1"/>
        <pt x="267" y="659" on="0"/>
        <pt x="335" y="733" on="0"/>
        <pt x="409" y="733" on="1"/>
        <pt x="436" y="733" on="0"/>
        <pt x="484" y="723" on="0"/>
        <pt x="506" y="716" on="1"/>
      </contour>
    </TTGlyph>
    <TTGlyph name="fi" xMin="29" yMin="0" xMax="552" yMax="734">
      <contour>
        <pt x="95" y="542" on="1"/>
        <pt x="95" y="580" on="0"/>
        <pt x="113" y="645" on="0"/>
        <pt x="153" y="692" on="0"/>
        <pt x="214" y="718" on="0"/>
        <pt x="258" y="718" on="1"/>
        <pt x="285" y="718" on="0"/>
        <pt x="331" y="708" on="0"/>
        <pt x="348" y="701" on="1"/>
        <pt x="326" y="615" on="1"/>
        <pt x="299" y="627" on="0"/>
        <pt x="273" y="627" on="1"/>
        <pt x="210" y="627" on="0"/>
        <pt x="210" y="544" on="1"/>
        <pt x="210" y="491" on="1"/>
        <pt x="306" y="491" on="1"/>
        <pt x="306" y="400" on="1"/>
        <pt x="210" y="400" on="1"/>
        <pt x="210" y="0" on="1"/>
        <pt x="95" y="0" on="1"/>
        <pt x="95" y="400" on="1"/>
        <pt x="29" y="400" on="1"/>
        <pt x="29" y="486" on="1"/>
        <pt x="95" y="491" on="1"/>
      </contour>
      <contour>
        <pt x="410" y="491" on="1"/>
        <pt x="526" y="491" on="1"/>
        <pt x="526" y="0" on="1"/>
        <pt x="410" y="0" on="1"/>
      </contour>
      <contour>
        <pt x="467" y="734" on="1"/>
        <pt x="504" y="734" on="0"/>
        <pt x="552" y="690" on="0"/>
        <pt x="552" y="655" on="1"/>
        <pt x="552" y="620" on="0"/>
        <pt x="504" y="577" on="0"/>
        <pt x="467" y="577" on="1"/>
        <pt x="431" y="577" on="0"/>
        <pt x="382" y="620" on="0"/>
        <pt x="382" y="655" on="1"/>
        <pt x="382" y="690" on="0"/>
        <pt x="431" y="734" on="0"/>
      </contour>
    </TTGlyph>
    <TTGlyph name="figuredash" xMin="80" yMin="207" xMax="520" yMax="299">
      <contour>
        <pt x="80" y="299" on="1"/>
        <pt x="520" y="299" on="1"/>
        <pt x="520" y="207" on="1"/>
        <pt x="80" y="207" on="1"/>
      </contour>
    </TTGlyph>
    <TTGlyph name="five" xMin="51" yMin="-12" xMax="527" yMax="636">
      <contour>
        <pt x="104" y="150" on="1"/>
        <pt x="136" y="123" on="0"/>
        <pt x="215" y="82" on="0"/>
        <pt x="270" y="82" on="1"/>
        <pt x="330" y="82" on="0"/>
        <pt x="411" y="146" on="0"/>
        <pt x="411" y="204" on="1"/>
        <pt x="411" y="261" on="0"/>
        <pt x="336" y="323" on="0"/>
        <pt x="275" y="323" on="1"/>
        <pt x="240" y="323" on="0"/>
        <pt x="190" y="306" on="0"/>
        <pt x="157" y="287" on="1"/>
        <pt x="102" y="322" on="1"/>
        <pt x="122" y="636" on="1"/>
        <pt x="497" y="636" on="1"/>
        <pt x="497" y="539" on="1"/>
        <pt x="222" y="539" on="1"/>
        <pt x="208" y="385" on="1"/>
        <pt x="233" y="395" on="0"/>
        <pt x="279" y="406" on="0"/>
        <pt x="308" y="406" on="1"/>
        <pt x="353" y="406" on="0"/>
        <pt x="433" y="382" on="0"/>
        <pt x="492" y="333" on="0"/>
        <pt x="527" y="258" on="0"/>
        <pt x="527" y="207" on="1"/>
        <pt x="527" y="155" on="0"/>
        <pt x="487" y="73" on="0"/>
        <pt x="419" y="17" on="0"/>
        <pt x="332" y="-12" on="0"/>
        <pt x="284" y="-12" on="1"/>
        <pt x="200" y="-12" on="0"/>
        <pt x="89" y="41" on="0"/>
        <pt x="51" y="76" on="1"/>
      </contour>
    </TTGlyph>
    <TTGlyph name="five.dnom" xMin="168" yMin="-12" xMax="430" yMax="308">
      <contour>
        <pt x="205" y="89" on="1"/>
        <pt x="222" y="74" on="0"/>
        <pt x="266" y="52" on="0"/>
        <pt x="292" y="52" on="1"/>
        <pt x="315" y="52" on="0"/>
        <pt x="346" y="76" on="0"/>
        <pt x="346" y="98" on="1"/>
        <pt x="346" y="122" on="0"/>
        <pt x="316" y="146" on="0"/>
        <pt x="292" y="146" on="1"/>
        <pt x="275" y="146" on="0"/>
        <pt x="248" y="135" on="0"/>
        <pt x="234" y="126" on="1"/>
        <pt x="197" y="151" on="1"/>
        <pt x="212" y="308" on="1"/>
        <pt x="414" y="308" on="1"/>
        <pt x="414" y="237" on="1"/>
        <pt x="278" y="237" on="1"/>
        <pt x="271" y="185" on="1"/>
        <pt x="281" y="190" on="0"/>
        <pt x="307" y="194" on="0"/>
        <pt x="320" y="194" on="1"/>
        <pt x="370" y="194" on="0"/>
        <pt x="430" y="143" on="0"/>
        <pt x="430" y="96" on="1"/>
        <pt x="430" y="49" on="0"/>
        <pt x="358" y="-12" on="0"/>
        <pt x="301" y="-12" on="1"/>
        <pt x="263" y="-12" on="0"/>
        <pt x="200" y="10" on="0"/>
        <pt x="168" y="36" on="1"/>
      </contour>
    </TTGlyph>
    <TTGlyph name="five.numr" xMin="168" yMin="316" xMax="430" yMax="636">
      <component glyphName="five.dnom" x="0" y="328" flags="0x204"/>
    </TTGlyph>
    <TTGlyph name="five.onum" xMin="51" yMin="-88" xMax="527" yMax="576">
      <contour>
        <pt x="104" y="74" on="1"/>
        <pt x="136" y="47" on="0"/>
        <pt x="215" y="6" on="0"/>
        <pt x="270" y="6" on="1"/>
        <pt x="330" y="6" on="0"/>
        <pt x="411" y="73" on="0"/>
        <pt x="411" y="134" on="1"/>
        <pt x="411" y="194" on="0"/>
        <pt x="336" y="256" on="0"/>
        <pt x="275" y="256" on="1"/>
        <pt x="240" y="256" on="0"/>
        <pt x="190" y="240" on="0"/>
        <pt x="157" y="221" on="1"/>
        <pt x="102" y="256" on="1"/>
        <pt x="122" y="576" on="1"/>
        <pt x="497" y="576" on="1"/>
        <pt x="497" y="478" on="1"/>
        <pt x="222" y="478" on="1"/>
        <pt x="208" y="319" on="1"/>
        <pt x="233" y="330" on="0"/>
        <pt x="279" y="339" on="0"/>
        <pt x="308" y="339" on="1"/>
        <pt x="353" y="339" on="0"/>
        <pt x="433" y="316" on="0"/>
        <pt x="492" y="266" on="0"/>
        <pt x="527" y="190" on="0"/>
        <pt x="527" y="137" on="1"/>
        <pt x="527" y="83" on="0"/>
        <pt x="487" y="0" on="0"/>
        <pt x="419" y="-58" on="0"/>
        <pt x="332" y="-88" on="0"/>
        <pt x="284" y="-88" on="1"/>
        <pt x="200" y="-88" on="0"/>
        <pt x="89" y="-35" on="0"/>
        <pt x="51" y="0" on="1"/>
      </contour>
    </TTGlyph>
    <TTGlyph name="five.subs" xMin="168" yMin="-181" xMax="430" yMax="139">
      <component glyphName="five.dnom" x="0" y="-169" flags="0x204"/>
    </TTGlyph>
    <TTGlyph name="five.sups" xMin="168" yMin="428" xMax="430" yMax="748">
      <component glyphName="five.dnom" x="0" y="440" flags="0x204"/>
    </TTGlyph>
    <TTGlyph name="fiveeighths" xMin="22" yMin="-12" xMax="578" yMax="636">
      <component glyphName="five.dnom" x="-129" y="328" flags="0x204"/>
      <component glyphName="fraction" x="0" y="0" flags="0x4"/>
      <component glyphName="eight.dnom" x="132" y="0" flags="0x4"/>
    </TTGlyph>
    <TTGlyph name="fl" xMin="34" yMin="-12" xMax="569" yMax="718">
      <contour>
        <pt x="100" y="542" on="1"/>
        <pt x="100" y="580" on="0"/>
        <pt x="118" y="645" on="0"/>
        <pt x="157" y="692" on="0"/>
        <pt x="218" y="718" on="0"/>
        <pt x="262" y="718" on="1"/>
        <pt x="289" y="718" on="0"/>
        <pt x="335" y="708" on="0"/>
        <pt x="352" y="701" on="1"/>
        <pt x="330" y="615" on="1"/>
        <pt x="304" y="627" on="0"/>
        <pt x="277" y="627" on="1"/>
        <pt x="215" y="627" on="0"/>
        <pt x="215" y="544" on="1"/>
        <pt x="215" y="491" on="1"/>
        <pt x="311" y="491" on="1"/>
        <pt x="311" y="400" on="1"/>
        <pt x="215" y="400" on="1"/>
        <pt x="215" y="0" on="1"/>
        <pt x="100" y="0" on="1"/>
        <pt x="100" y="400" on="1"/>
        <pt x="34" y="400" on="1"/>
        <pt x="34" y="486" on="1"/>
        <pt x="100" y="491" on="1"/>
      </contour>
      <contour>
        <pt x="569" y="-2" on="1"/>
        <pt x="558" y="-7" on="0"/>
        <pt x="529" y="-12" on="0"/>
        <pt x="508" y="-12" on="1"/>
        <pt x="447" y="-12" on="0"/>
        <pt x="397" y="62" on="0"/>
        <pt x="397" y="126" on="1"/>
        <pt x="397" y="706" on="1"/>
        <pt x="512" y="706" on="1"/>
        <pt x="512" y="120" on="1"/>
        <pt x="512" y="99" on="0"/>
        <pt x="528" y="82" on="0"/>
        <pt x="537" y="82" on="1"/>
        <pt x="541" y="82" on="0"/>
        <pt x="548" y="82" on="0"/>
        <pt x="555" y="84" on="1"/>
      </contour>
    </TTGlyph>
    <TTGlyph name="four" xMin="37" yMin="0" xMax="552" yMax="637">
      <contour>
        <pt x="354" y="253" on="1"/>
        <pt x="354" y="405" on="1"/>
        <pt x="355" y="434" on="0"/>
        <pt x="358" y="502" on="0"/>
        <pt x="360" y="531" on="1"/>
        <pt x="355" y="531" on="1"/>
        <pt x="339" y="506" on="0"/>
        <pt x="305" y="456" on="0"/>
        <pt x="288" y="430" on="1"/>
        <pt x="154" y="253" on="1"/>
      </contour>
      <contour>
        <pt x="552" y="164" on="1"/>
        <pt x="462" y="164" on="1"/>
        <pt x="462" y="0" on="1"/>
        <pt x="354" y="0" on="1"/>
        <pt x="354" y="164" on="1"/>
        <pt x="37" y="164" on="1"/>
        <pt x="37" y="242" on="1"/>
        <pt x="329" y="637" on="1"/>
        <pt x="462" y="637" on="1"/>
        <pt x="462" y="253" on="1"/>
        <pt x="552" y="253" on="1"/>
      </contour>
    </TTGlyph>
    <TTGlyph name="four.dnom" xMin="166" yMin="0" xMax="454" yMax="308">
      <contour>
        <pt x="327" y="121" on="1"/>
        <pt x="327" y="160" on="1"/>
        <pt x="332" y="251" on="1"/>
        <pt x="329" y="251" on="1"/>
        <pt x="290" y="188" on="1"/>
        <pt x="246" y="121" on="1"/>
      </contour>
      <contour>
        <pt x="454" y="67" on="1"/>
        <pt x="403" y="67" on="1"/>
        <pt x="403" y="0" on="1"/>
        <pt x="327" y="0" on="1"/>
        <pt x="327" y="67" on="1"/>
        <pt x="166" y="67" on="1"/>
        <pt x="166" y="108" on="1"/>
        <pt x="300" y="308" on="1"/>
        <pt x="403" y="308" on="1"/>
        <pt x="403" y="121" on="1"/>
        <pt x="454" y="121" on="1"/>
      </contour>
    </TTGlyph>
    <TTGlyph name="four.numr" xMin="166" yMin="328" xMax="454" yMax="636">
      <component glyphName="four.dnom" x="0" y="328" flags="0x204"/>
    </TTGlyph>
    <TTGlyph name="four.onum" xMin="37" yMin="-76" xMax="552" yMax="576">
      <contour>
        <pt x="354" y="178" on="1"/>
        <pt x="354" y="344" on="1"/>
        <pt x="355" y="373" on="0"/>
        <pt x="358" y="442" on="0"/>
        <pt x="360" y="471" on="1"/>
        <pt x="355" y="471" on="1"/>
        <pt x="340" y="445" on="0"/>
        <pt x="306" y="393" on="0"/>
        <pt x="289" y="368" on="1"/>
        <pt x="153" y="178" on="1"/>
      </contour>
      <contour>
        <pt x="552" y="88" on="1"/>
        <pt x="462" y="88" on="1"/>
        <pt x="462" y="-76" on="1"/>
        <pt x="354" y="-76" on="1"/>
        <pt x="354" y="88" on="1"/>
        <pt x="37" y="88" on="1"/>
        <pt x="37" y="167" on="1"/>
        <pt x="329" y="576" on="1"/>
        <pt x="462" y="576" on="1"/>
        <pt x="462" y="178" on="1"/>
        <pt x="552" y="178" on="1"/>
      </contour>
    </TTGlyph>
    <TTGlyph name="four.subs" xMin="166" yMin="-169" xMax="454" yMax="139">
      <component glyphName="four.dnom" x="0" y="-169" flags="0x204"/>
    </TTGlyph>
    <TTGlyph name="four.sups" xMin="166" yMin="440" xMax="454" yMax="748">
      <component glyphName="four.dnom" x="0" y="440" flags="0x204"/>
    </TTGlyph>
    <TTGlyph name="fraction" xMin="22" yMin="30" xMax="578" yMax="624">
      <contour>
        <pt x="22" y="89" on="1"/>
        <pt x="207" y="270" on="1"/>
        <pt x="249" y="231" on="1"/>
        <pt x="84" y="30" on="1"/>
      </contour>
      <contour>
        <pt x="578" y="565" on="1"/>
        <pt x="393" y="384" on="1"/>
        <pt x="351" y="423" on="1"/>
        <pt x="516" y="624" on="1"/>
      </contour>
    </TTGlyph>
    <TTGlyph name="g" xMin="62" yMin="-217" xMax="569" yMax="503">
      <contour>
        <pt x="158" y="-71" on="1"/>
        <pt x="158" y="-104" on="0"/>
        <pt x="231" y="-142" on="0"/>
        <pt x="300" y="-142" on="1"/>
        <pt x="336" y="-142" on="0"/>
        <pt x="394" y="-129" on="0"/>
        <pt x="436" y="-107" on="0"/>
        <pt x="458" y="-78" on="0"/>
        <pt x="458" y="-62" on="1"/>
        <pt x="458" y="-33" on="0"/>
        <pt x="408" y="-14" on="0"/>
        <pt x="359" y="-14" on="1"/>
        <pt x="281" y="-14" on="1"/>
        <pt x="257" y="-14" on="0"/>
        <pt x="220" y="-11" on="0"/>
        <pt x="206" y="-6" on="1"/>
        <pt x="180" y="-22" on="0"/>
        <pt x="158" y="-54" on="0"/>
      </contour>
      <contour>
        <pt x="62" y="-86" on="1"/>
        <pt x="62" y="-57" on="0"/>
        <pt x="102" y="-3" on="0"/>
        <pt x="140" y="17" on="1"/>
        <pt x="140" y="21" on="1"/>
        <pt x="120" y="32" on="0"/>
        <pt x="90" y="72" on="0"/>
        <pt x="90" y="103" on="1"/>
        <pt x="90" y="128" on="0"/>
        <pt x="122" y="177" on="0"/>
        <pt x="149" y="196" on="1"/>
        <pt x="149" y="200" on="1"/>
        <pt x="123" y="218" on="0"/>
        <pt x="86" y="282" on="0"/>
        <pt x="86" y="326" on="1"/>
        <pt x="86" y="368" on="0"/>
        <pt x="119" y="434" on="0"/>
        <pt x="174" y="479" on="0"/>
        <pt x="247" y="503" on="0"/>
        <pt x="288" y="503" on="1"/>
        <pt x="332" y="503" on="0"/>
        <pt x="365" y="491" on="1"/>
        <pt x="566" y="491" on="1"/>
        <pt x="566" y="406" on="1"/>
        <pt x="451" y="406" on="1"/>
        <pt x="464" y="391" on="0"/>
        <pt x="484" y="348" on="0"/>
        <pt x="484" y="322" on="1"/>
        <pt x="484" y="281" on="0"/>
        <pt x="454" y="219" on="0"/>
        <pt x="401" y="177" on="0"/>
        <pt x="329" y="156" on="0"/>
        <pt x="288" y="156" on="1"/>
        <pt x="251" y="156" on="0"/>
        <pt x="213" y="169" on="1"/>
        <pt x="183" y="150" on="0"/>
        <pt x="183" y="124" on="1"/>
        <pt x="183" y="77" on="0"/>
        <pt x="276" y="77" on="1"/>
        <pt x="376" y="77" on="1"/>
        <pt x="472" y="77" on="0"/>
        <pt x="569" y="21" on="0"/>
        <pt x="569" y="-43" on="1"/>
        <pt x="569" y="-79" on="0"/>
        <pt x="529" y="-143" on="0"/>
        <pt x="456" y="-190" on="0"/>
        <pt x="351" y="-217" on="0"/>
        <pt x="286" y="-217" on="1"/>
        <pt x="235" y="-217" on="0"/>
        <pt x="153" y="-201" on="0"/>
        <pt x="94" y="-168" on="0"/>
        <pt x="62" y="-119" on="0"/>
      </contour>
      <contour>
        <pt x="288" y="228" on="1"/>
        <pt x="326" y="228" on="0"/>
        <pt x="382" y="279" on="0"/>
        <pt x="382" y="326" on="1"/>
        <pt x="382" y="371" on="0"/>
        <pt x="326" y="424" on="0"/>
        <pt x="288" y="424" on="1"/>
        <pt x="250" y="424" on="0"/>
        <pt x="195" y="371" on="0"/>
        <pt x="195" y="326" on="1"/>
        <pt x="195" y="279" on="0"/>
        <pt x="250" y="228" on="0"/>
      </contour>
    </TTGlyph>
    <TTGlyph name="g.a" xMin="53" yMin="-206" xMax="518" yMax="503">
      <component glyphName="uni0261" x="0" y="0" flags="0x204"/>
    </TTGlyph>
    <TTGlyph name="g.supa" xMin="133" yMin="127" xMax="445" yMax="593">
      <contour>
        <pt x="184" y="219" on="1"/>
        <pt x="207" y="205" on="0"/>
        <pt x="258" y="192" on="0"/>
        <pt x="280" y="192" on="1"/>
        <pt x="321" y="192" on="0"/>
        <pt x="360" y="227" on="0"/>
        <pt x="361" y="256" on="1"/>
        <pt x="363" y="303" on="1"/>
        <pt x="345" y="287" on="0"/>
        <pt x="298" y="267" on="0"/>
        <pt x="272" y="267" on="1"/>
        <pt x="209" y="267" on="0"/>
        <pt x="133" y="355" on="0"/>
        <pt x="133" y="428" on="1"/>
        <pt x="133" y="465" on="0"/>
        <pt x="158" y="526" on="0"/>
        <pt x="198" y="570" on="0"/>
        <pt x="250" y="593" on="0"/>
        <pt x="277" y="593" on="1"/>
        <pt x="330" y="593" on="0"/>
        <pt x="368" y="555" on="1"/>
        <pt x="370" y="555" on="1"/>
        <pt x="377" y="585" on="1"/>
        <pt x="445" y="585" on="1"/>
        <pt x="445" y="257" on="1"/>
        <pt x="445" y="194" on="0"/>
        <pt x="359" y="127" on="0"/>
        <pt x="280" y="127" on="1"/>
        <pt x="251" y="127" on="0"/>
        <pt x="183" y="145" on="0"/>
        <pt x="155" y="163" on="1"/>
      </contour>
      <contour>
        <pt x="293" y="334" on="1"/>
        <pt x="312" y="334" on="0"/>
        <pt x="345" y="350" on="0"/>
        <pt x="361" y="369" on="1"/>
        <pt x="361" y="500" on="1"/>
        <pt x="344" y="514" on="0"/>
        <pt x="310" y="525" on="0"/>
        <pt x="294" y="525" on="1"/>
        <pt x="263" y="525" on="0"/>
        <pt x="218" y="474" on="0"/>
        <pt x="218" y="429" on="1"/>
        <pt x="218" y="384" on="0"/>
        <pt x="259" y="334" on="0"/>
      </contour>
    </TTGlyph>
    <TTGlyph name="g.sups" xMin="141" yMin="118" xMax="483" yMax="593">
      <contour>
        <pt x="211" y="216" on="1"/>
        <pt x="211" y="195" on="0"/>
        <pt x="258" y="171" on="0"/>
        <pt x="301" y="171" on="1"/>
        <pt x="347" y="171" on="0"/>
        <pt x="403" y="200" on="0"/>
        <pt x="403" y="220" on="1"/>
        <pt x="403" y="238" on="0"/>
        <pt x="370" y="249" on="0"/>
        <pt x="339" y="249" on="1"/>
        <pt x="289" y="249" on="1"/>
        <pt x="272" y="249" on="0"/>
        <pt x="250" y="252" on="0"/>
        <pt x="240" y="254" on="1"/>
        <pt x="211" y="237" on="0"/>
      </contour>
      <contour>
        <pt x="141" y="204" on="1"/>
        <pt x="141" y="243" on="0"/>
        <pt x="193" y="271" on="1"/>
        <pt x="193" y="274" on="1"/>
        <pt x="179" y="282" on="0"/>
        <pt x="160" y="308" on="0"/>
        <pt x="160" y="328" on="1"/>
        <pt x="160" y="345" on="0"/>
        <pt x="181" y="377" on="0"/>
        <pt x="200" y="389" on="1"/>
        <pt x="200" y="392" on="1"/>
        <pt x="182" y="404" on="0"/>
        <pt x="157" y="447" on="0"/>
        <pt x="157" y="476" on="1"/>
        <pt x="157" y="504" on="0"/>
        <pt x="179" y="548" on="0"/>
        <pt x="216" y="578" on="0"/>
        <pt x="266" y="593" on="0"/>
        <pt x="294" y="593" on="1"/>
        <pt x="308" y="593" on="0"/>
        <pt x="335" y="590" on="0"/>
        <pt x="346" y="585" on="1"/>
        <pt x="481" y="585" on="1"/>
        <pt x="481" y="524" on="1"/>
        <pt x="407" y="524" on="1"/>
        <pt x="415" y="515" on="0"/>
        <pt x="426" y="489" on="0"/>
        <pt x="426" y="473" on="1"/>
        <pt x="426" y="417" on="0"/>
        <pt x="350" y="363" on="0"/>
        <pt x="294" y="363" on="1"/>
        <pt x="282" y="363" on="0"/>
        <pt x="259" y="367" on="0"/>
        <pt x="245" y="371" on="1"/>
        <pt x="236" y="365" on="0"/>
        <pt x="227" y="353" on="0"/>
        <pt x="227" y="343" on="1"/>
        <pt x="227" y="315" on="0"/>
        <pt x="286" y="315" on="1"/>
        <pt x="352" y="315" on="1"/>
        <pt x="417" y="315" on="0"/>
        <pt x="483" y="277" on="0"/>
        <pt x="483" y="234" on="1"/>
        <pt x="483" y="209" on="0"/>
        <pt x="456" y="167" on="0"/>
        <pt x="406" y="136" on="0"/>
        <pt x="335" y="118" on="0"/>
        <pt x="291" y="118" on="1"/>
        <pt x="224" y="118" on="0"/>
        <pt x="141" y="160" on="0"/>
      </contour>
      <contour>
        <pt x="294" y="415" on="1"/>
        <pt x="317" y="415" on="0"/>
        <pt x="351" y="447" on="0"/>
        <pt x="351" y="476" on="1"/>
        <pt x="351" y="504" on="0"/>
        <pt x="317" y="537" on="0"/>
        <pt x="294" y="537" on="1"/>
        <pt x="269" y="537" on="0"/>
        <pt x="236" y="504" on="0"/>
        <pt x="236" y="476" on="1"/>
        <pt x="236" y="447" on="0"/>
        <pt x="269" y="415" on="0"/>
      </contour>
    </TTGlyph>
    <TTGlyph name="gbreve" xMin="62" yMin="-217" xMax="569" yMax="720">
      <component glyphName="g" x="0" y="0" flags="0x204"/>
      <component glyphName="uni0306" x="6" y="0" flags="0x4"/>
    </TTGlyph>
    <TTGlyph name="gbreve.a" xMin="53" yMin="-206" xMax="518" yMax="720">
      <component glyphName="uni0261" x="0" y="0" flags="0x204"/>
      <component glyphName="uni0306" x="8" y="0" flags="0x4"/>
    </TTGlyph>
    <TTGlyph name="gcaron" xMin="62" yMin="-217" xMax="569" yMax="731">
      <component glyphName="g" x="0" y="0" flags="0x204"/>
      <component glyphName="uni030C" x="6" y="0" flags="0x4"/>
    </TTGlyph>
    <TTGlyph name="gcaron.a" xMin="53" yMin="-206" xMax="518" yMax="731">
      <component glyphName="uni0261" x="0" y="0" flags="0x204"/>
      <component glyphName="uni030C" x="8" y="0" flags="0x4"/>
    </TTGlyph>
    <TTGlyph name="gcircumflex" xMin="62" yMin="-217" xMax="569" yMax="731">
      <component glyphName="g" x="0" y="0" flags="0x204"/>
      <component glyphName="uni0302" x="6" y="0" flags="0x4"/>
    </TTGlyph>
    <TTGlyph name="gcircumflex.a" xMin="53" yMin="-206" xMax="518" yMax="731">
      <component glyphName="uni0261" x="0" y="0" flags="0x204"/>
      <component glyphName="uni0302" x="8" y="0" flags="0x4"/>
    </TTGlyph>
    <TTGlyph name="gdotaccent" xMin="62" yMin="-217" xMax="569" yMax="732">
      <component glyphName="g" x="0" y="0" flags="0x204"/>
      <component glyphName="uni0307" x="6" y="0" flags="0x4"/>
    </TTGlyph>
    <TTGlyph name="gdotaccent.a" xMin="53" yMin="-206" xMax="518" yMax="732">
      <component glyphName="uni0261" x="0" y="0" flags="0x204"/>
      <component glyphName="uni0307" x="8" y="0" flags="0x4"/>
    </TTGlyph>
    <TTGlyph name="germandbls" xMin="74" yMin="-12" xMax="568" yMax="718">
      <contour>
        <pt x="74" y="507" on="1"/>
        <pt x="74" y="553" on="0"/>
        <pt x="102" y="631" on="0"/>
        <pt x="156" y="687" on="0"/>
        <pt x="236" y="718" on="0"/>
        <pt x="288" y="718" on="1"/>
        <pt x="332" y="718" on="0"/>
        <pt x="399" y="692" on="0"/>
        <pt x="443" y="648" on="0"/>
        <pt x="465" y="591" on="0"/>
        <pt x="465" y="560" on="1"/>
        <pt x="465" y="523" on="0"/>
        <pt x="442" y="472" on="0"/>
        <pt x="413" y="431" on="0"/>
        <pt x="390" y="393" on="0"/>
        <pt x="390" y="371" on="1"/>
        <pt x="390" y="351" on="0"/>
        <pt x="416" y="322" on="0"/>
        <pt x="456" y="297" on="0"/>
        <pt x="502" y="271" on="0"/>
        <pt x="542" y="234" on="0"/>
        <pt x="568" y="182" on="0"/>
        <pt x="568" y="144" on="1"/>
        <pt x="568" y="111" on="0"/>
        <pt x="545" y="54" on="0"/>
        <pt x="501" y="12" on="0"/>
        <pt x="439" y="-12" on="0"/>
        <pt x="399" y="-12" on="1"/>
        <pt x="357" y="-12" on="0"/>
        <pt x="290" y="9" on="0"/>
        <pt x="258" y="29" on="1"/>
        <pt x="299" y="108" on="1"/>
        <pt x="324" y="91" on="0"/>
        <pt x="371" y="75" on="0"/>
        <pt x="395" y="75" on="1"/>
        <pt x="426" y="75" on="0"/>
        <pt x="460" y="110" on="0"/>
        <pt x="460" y="135" on="1"/>
        <pt x="460" y="159" on="0"/>
        <pt x="434" y="191" on="0"/>
        <pt x="394" y="218" on="0"/>
        <pt x="348" y="244" on="0"/>
        <pt x="308" y="277" on="0"/>
        <pt x="282" y="323" on="0"/>
        <pt x="282" y="357" on="1"/>
        <pt x="282" y="389" on="0"/>
        <pt x="305" y="435" on="0"/>
        <pt x="334" y="478" on="0"/>
        <pt x="357" y="523" on="0"/>
        <pt x="357" y="553" on="1"/>
        <pt x="357" y="585" on="0"/>
        <pt x="320" y="627" on="0"/>
        <pt x="287" y="627" on="1"/>
        <pt x="239" y="627" on="0"/>
        <pt x="189" y="559" on="0"/>
        <pt x="189" y="496" on="1"/>
        <pt x="189" y="0" on="1"/>
        <pt x="74" y="0" on="1"/>
      </contour>
    </TTGlyph>
    <TTGlyph name="grave" xMin="164" yMin="573" xMax="374" yMax="731">
      <component glyphName="uni0300" x="0" y="0" flags="0x204"/>
    </TTGlyph>
    <TTGlyph name="greater" xMin="102" yMin="39" xMax="482" yMax="625">
      <contour>
        <pt x="482" y="291" on="1"/>
        <pt x="102" y="39" on="1"/>
        <pt x="102" y="146" on="1"/>
        <pt x="385" y="330" on="1"/>
        <pt x="385" y="334" on="1"/>
        <pt x="102" y="518" on="1"/>
        <pt x="102" y="625" on="1"/>
        <pt x="482" y="373" on="1"/>
      </contour>
    </TTGlyph>
    <TTGlyph name="greaterequal" xMin="78" yMin="0" xMax="522" yMax="547">
      <contour>
        <pt x="78" y="83" on="1"/>
        <pt x="522" y="83" on="1"/>
        <pt x="522" y="0" on="1"/>
        <pt x="78" y="0" on="1"/>
      </contour>
      <contour>
        <pt x="522" y="301" on="1"/>
        <pt x="78" y="153" on="1"/>
        <pt x="78" y="250" on="1"/>
        <pt x="268" y="309" on="1"/>
        <pt x="405" y="348" on="1"/>
        <pt x="405" y="352" on="1"/>
        <pt x="268" y="391" on="1"/>
        <pt x="78" y="450" on="1"/>
        <pt x="78" y="547" on="1"/>
        <pt x="522" y="399" on="1"/>
      </contour>
    </TTGlyph>
    <TTGlyph name="guillemotleft" xMin="63" yMin="38" xMax="523" yMax="466">
      <component glyphName="guilsinglleft" x="-123" y="0" flags="0x204"/>
      <component glyphName="guilsinglleft" x="124" y="0" flags="0x4"/>
    </TTGlyph>
    <TTGlyph name="guillemotright" xMin="78" yMin="38" xMax="538" yMax="466">
      <component glyphName="guilsinglright" x="-123" y="0" flags="0x204"/>
      <component glyphName="guilsinglright" x="124" y="0" flags="0x4"/>
    </TTGlyph>
    <TTGlyph name="guilsinglleft" xMin="186" yMin="38" xMax="399" yMax="466">
      <contour>
        <pt x="186" y="195" on="1"/>
        <pt x="186" y="309" on="1"/>
        <pt x="348" y="466" on="1"/>
        <pt x="399" y="420" on="1"/>
        <pt x="272" y="252" on="1"/>
        <pt x="399" y="83" on="1"/>
        <pt x="348" y="38" on="1"/>
      </contour>
    </TTGlyph>
    <TTGlyph name="guilsinglright" xMin="201" yMin="38" xMax="414" yMax="466">
      <contour>
        <pt x="328" y="252" on="1"/>
        <pt x="201" y="420" on="1"/>
        <pt x="252" y="466" on="1"/>
        <pt x="414" y="309" on="1"/>
        <pt x="414" y="195" on="1"/>
        <pt x="252" y="38" on="1"/>
        <pt x="201" y="83" on="1"/>
      </contour>
    </TTGlyph>
    <TTGlyph name="h" xMin="82" yMin="0" xMax="532" yMax="706">
      <contour>
        <pt x="82" y="706" on="1"/>
        <pt x="198" y="706" on="1"/>
        <pt x="198" y="524" on="1"/>
        <pt x="191" y="419" on="1"/>
        <pt x="225" y="453" on="0"/>
        <pt x="310" y="503" on="0"/>
        <pt x="367" y="503" on="1"/>
        <pt x="452" y="503" on="0"/>
        <pt x="532" y="400" on="0"/>
        <pt x="532" y="304" on="1"/>
        <pt x="532" y="0" on="1"/>
        <pt x="416" y="0" on="1"/>
        <pt x="416" y="289" on="1"/>
        <pt x="416" y="349" on="0"/>
        <pt x="375" y="404" on="0"/>
        <pt x="324" y="404" on="1"/>
        <pt x="288" y="404" on="0"/>
        <pt x="232" y="370" on="0"/>
        <pt x="198" y="335" on="1"/>
        <pt x="198" y="0" on="1"/>
        <pt x="82" y="0" on="1"/>
      </contour>
    </TTGlyph>
    <TTGlyph name="h.sups" xMin="165" yMin="260" xMax="464" yMax="725">
      <contour>
        <pt x="165" y="725" on="1"/>
        <pt x="250" y="725" on="1"/>
        <pt x="250" y="607" on="1"/>
        <pt x="245" y="542" on="1"/>
        <pt x="266" y="562" on="0"/>
        <pt x="320" y="593" on="0"/>
        <pt x="357" y="593" on="1"/>
        <pt x="413" y="593" on="0"/>
        <pt x="464" y="525" on="0"/>
        <pt x="464" y="463" on="1"/>
        <pt x="464" y="260" on="1"/>
        <pt x="380" y="260" on="1"/>
        <pt x="380" y="452" on="1"/>
        <pt x="380" y="488" on="0"/>
        <pt x="355" y="522" on="0"/>
        <pt x="324" y="522" on="1"/>
        <pt x="303" y="522" on="0"/>
        <pt x="270" y="502" on="0"/>
        <pt x="250" y="483" on="1"/>
        <pt x="250" y="260" on="1"/>
        <pt x="165" y="260" on="1"/>
      </contour>
    </TTGlyph>
    <TTGlyph name="hbar" xMin="13" yMin="0" xMax="532" yMax="706">
      <contour>
        <pt x="191" y="399" on="1"/>
        <pt x="225" y="433" on="0"/>
        <pt x="310" y="483" on="0"/>
        <pt x="367" y="483" on="1"/>
        <pt x="452" y="483" on="0"/>
        <pt x="532" y="380" on="0"/>
        <pt x="532" y="284" on="1"/>
        <pt x="532" y="0" on="1"/>
        <pt x="416" y="0" on="1"/>
        <pt x="416" y="269" on="1"/>
        <pt x="416" y="329" on="0"/>
        <pt x="375" y="384" on="0"/>
        <pt x="324" y="384" on="1"/>
        <pt x="288" y="384" on="0"/>
        <pt x="232" y="350" on="0"/>
        <pt x="198" y="315" on="1"/>
        <pt x="198" y="0" on="1"/>
        <pt x="82" y="0" on="1"/>
        <pt x="82" y="564" on="1"/>
        <pt x="13" y="564" on="1"/>
        <pt x="13" y="618" on="1"/>
        <pt x="82" y="622" on="1"/>
        <pt x="82" y="706" on="1"/>
        <pt x="198" y="706" on="1"/>
        <pt x="198" y="623" on="1"/>
        <pt x="394" y="623" on="1"/>
        <pt x="394" y="564" on="1"/>
        <pt x="198" y="564" on="1"/>
        <pt x="198" y="504" on="1"/>
      </contour>
    </TTGlyph>
    <TTGlyph name="hcircumflex" xMin="-4" yMin="0" xMax="532" yMax="865">
      <component glyphName="h" x="0" y="0" flags="0x204"/>
      <component glyphName="uni0302.cap" x="-152" y="45" flags="0x4"/>
    </TTGlyph>
    <TTGlyph name="hungarumlaut" xMin="188" yMin="572" xMax="512" yMax="719">
      <component glyphName="uni030B" x="0" y="0" flags="0x204"/>
    </TTGlyph>
    <TTGlyph name="hyphen" xMin="78" yMin="288" xMax="522" yMax="372">
      <component glyphName="minus" x="0" y="0" flags="0x204"/>
    </TTGlyph>
    <TTGlyph name="hyphen.a" xMin="129" yMin="207" xMax="471" yMax="299">
      <contour>
        <pt x="129" y="299" on="1"/>
        <pt x="471" y="299" on="1"/>
        <pt x="471" y="207" on="1"/>
        <pt x="129" y="207" on="1"/>
      </contour>
    </TTGlyph>
    <TTGlyph name="i" xMin="84" yMin="0" xMax="428" yMax="732">
      <contour>
        <pt x="84" y="491" on="1"/>
        <pt x="412" y="491" on="1"/>
        <pt x="412" y="0" on="1"/>
        <pt x="297" y="0" on="1"/>
        <pt x="297" y="400" on="1"/>
        <pt x="84" y="400" on="1"/>
      </contour>
      <contour>
        <pt x="346" y="577" on="1"/>
        <pt x="311" y="577" on="0"/>
        <pt x="264" y="619" on="0"/>
        <pt x="264" y="654" on="1"/>
        <pt x="264" y="689" on="0"/>
        <pt x="311" y="732" on="0"/>
        <pt x="346" y="732" on="1"/>
        <pt x="382" y="732" on="0"/>
        <pt x="428" y="689" on="0"/>
        <pt x="428" y="654" on="1"/>
        <pt x="428" y="619" on="0"/>
        <pt x="382" y="577" on="0"/>
      </contour>
    </TTGlyph>
    <TTGlyph name="i.sups" xMin="172" yMin="260" xMax="404" yMax="747">
      <contour>
        <pt x="172" y="585" on="1"/>
        <pt x="389" y="585" on="1"/>
        <pt x="389" y="260" on="1"/>
        <pt x="305" y="260" on="1"/>
        <pt x="305" y="519" on="1"/>
        <pt x="172" y="519" on="1"/>
      </contour>
      <contour>
        <pt x="346" y="639" on="1"/>
        <pt x="320" y="639" on="0"/>
        <pt x="288" y="668" on="0"/>
        <pt x="288" y="693" on="1"/>
        <pt x="288" y="717" on="0"/>
        <pt x="320" y="747" on="0"/>
        <pt x="346" y="747" on="1"/>
        <pt x="372" y="747" on="0"/>
        <pt x="404" y="717" on="0"/>
        <pt x="404" y="693" on="1"/>
        <pt x="404" y="668" on="0"/>
        <pt x="372" y="639" on="0"/>
      </contour>
    </TTGlyph>
    <TTGlyph name="iacute" xMin="84" yMin="0" xMax="482" yMax="731">
      <component glyphName="dotlessi" x="0" y="0" flags="0x204"/>
      <component glyphName="uni0301" x="46" y="0" flags="0x4"/>
    </TTGlyph>
    <TTGlyph name="icircumflex" xMin="84" yMin="0" xMax="494" yMax="731">
      <component glyphName="dotlessi" x="0" y="0" flags="0x204"/>
      <component glyphName="uni0302" x="46" y="0" flags="0x4"/>
    </TTGlyph>
    <TTGlyph name="idieresis" xMin="84" yMin="0" xMax="515" yMax="714">
      <component glyphName="dotlessi" x="0" y="0" flags="0x204"/>
      <component glyphName="uni0308" x="46" y="0" flags="0x4"/>
    </TTGlyph>
    <TTGlyph name="igrave" xMin="84" yMin="0" xMax="420" yMax="731">
      <component glyphName="dotlessi" x="0" y="0" flags="0x204"/>
      <component glyphName="uni0300" x="46" y="0" flags="0x4"/>
    </TTGlyph>
    <TTGlyph name="imacron" xMin="84" yMin="0" xMax="476" yMax="672">
      <component glyphName="dotlessi" x="0" y="0" flags="0x204"/>
      <component glyphName="uni0304" x="46" y="0" flags="0x4"/>
    </TTGlyph>
    <TTGlyph name="infinity" xMin="-9" yMin="136" xMax="609" yMax="519">
      <contour>
        <pt x="130" y="158" on="1"/>
        <pt x="101" y="158" on="0"/>
        <pt x="50" y="184" on="0"/>
        <pt x="13" y="228" on="0"/>
        <pt x="-9" y="287" on="0"/>
        <pt x="-9" y="320" on="1"/>
        <pt x="-9" y="363" on="0"/>
        <pt x="14" y="431" on="0"/>
        <pt x="56" y="478" on="0"/>
        <pt x="113" y="503" on="0"/>
        <pt x="146" y="503" on="1"/>
        <pt x="194" y="503" on="0"/>
        <pt x="260" y="452" on="0"/>
        <pt x="283" y="411" on="1"/>
        <pt x="287" y="411" on="1"/>
        <pt x="319" y="464" on="0"/>
        <pt x="397" y="519" on="0"/>
        <pt x="450" y="519" on="1"/>
        <pt x="484" y="519" on="0"/>
        <pt x="542" y="492" on="0"/>
        <pt x="585" y="444" on="0"/>
        <pt x="609" y="377" on="0"/>
        <pt x="609" y="338" on="1"/>
        <pt x="609" y="291" on="0"/>
        <pt x="584" y="216" on="0"/>
        <pt x="541" y="164" on="0"/>
        <pt x="481" y="136" on="0"/>
        <pt x="446" y="136" on="1"/>
        <pt x="391" y="136" on="0"/>
        <pt x="312" y="187" on="0"/>
        <pt x="273" y="250" on="1"/>
        <pt x="269" y="250" on="1"/>
        <pt x="246" y="213" on="0"/>
        <pt x="179" y="158" on="0"/>
      </contour>
      <contour>
        <pt x="321" y="345" on="1"/>
        <pt x="349" y="291" on="0"/>
        <pt x="404" y="243" on="0"/>
        <pt x="440" y="243" on="1"/>
        <pt x="479" y="243" on="0"/>
        <pt x="522" y="297" on="0"/>
        <pt x="522" y="335" on="1"/>
        <pt x="522" y="380" on="0"/>
        <pt x="475" y="434" on="0"/>
        <pt x="433" y="434" on="1"/>
        <pt x="402" y="434" on="0"/>
        <pt x="347" y="392" on="0"/>
      </contour>
      <contour>
        <pt x="147" y="244" on="1"/>
        <pt x="200" y="244" on="0"/>
        <pt x="235" y="316" on="1"/>
        <pt x="214" y="359" on="0"/>
        <pt x="169" y="396" on="0"/>
        <pt x="143" y="396" on="1"/>
        <pt x="112" y="396" on="0"/>
        <pt x="78" y="356" on="0"/>
        <pt x="78" y="324" on="1"/>
        <pt x="78" y="290" on="0"/>
        <pt x="117" y="244" on="0"/>
      </contour>
    </TTGlyph>
    <TTGlyph name="integral" xMin="166" yMin="-158" xMax="454" yMax="790">
      <contour>
        <pt x="178" y="-66" on="1"/>
        <pt x="190" y="-70" on="0"/>
        <pt x="213" y="-70" on="1"/>
        <pt x="254" y="-70" on="0"/>
        <pt x="278" y="1" on="0"/>
        <pt x="278" y="76" on="1"/>
        <pt x="278" y="132" on="0"/>
        <pt x="265" y="251" on="0"/>
        <pt x="250" y="372" on="0"/>
        <pt x="238" y="493" on="0"/>
        <pt x="238" y="552" on="1"/>
        <pt x="238" y="603" on="0"/>
        <pt x="251" y="690" on="0"/>
        <pt x="287" y="754" on="0"/>
        <pt x="352" y="790" on="0"/>
        <pt x="403" y="790" on="1"/>
        <pt x="419" y="790" on="0"/>
        <pt x="447" y="786" on="0"/>
        <pt x="454" y="783" on="1"/>
        <pt x="442" y="698" on="1"/>
        <pt x="430" y="702" on="0"/>
        <pt x="407" y="702" on="1"/>
        <pt x="367" y="702" on="0"/>
        <pt x="343" y="630" on="0"/>
        <pt x="343" y="556" on="1"/>
        <pt x="343" y="500" on="0"/>
        <pt x="355" y="381" on="0"/>
        <pt x="370" y="260" on="0"/>
        <pt x="382" y="139" on="0"/>
        <pt x="382" y="80" on="1"/>
        <pt x="382" y="29" on="0"/>
        <pt x="369" y="-58" on="0"/>
        <pt x="333" y="-122" on="0"/>
        <pt x="270" y="-158" on="0"/>
        <pt x="219" y="-158" on="1"/>
        <pt x="202" y="-158" on="0"/>
        <pt x="174" y="-153" on="0"/>
        <pt x="166" y="-151" on="1"/>
        <pt x="178" y="-66" on="1"/>
      </contour>
    </TTGlyph>
    <TTGlyph name="iogonek" xMin="84" yMin="-208" xMax="452" yMax="732">
      <contour>
        <pt x="297" y="400" on="1"/>
        <pt x="84" y="400" on="1"/>
        <pt x="84" y="491" on="1"/>
        <pt x="412" y="491" on="1"/>
        <pt x="412" y="0" on="1"/>
        <pt x="377" y="-18" on="0"/>
        <pt x="344" y="-69" on="0"/>
        <pt x="344" y="-95" on="1"/>
        <pt x="344" y="-116" on="0"/>
        <pt x="371" y="-137" on="0"/>
        <pt x="388" y="-137" on="1"/>
        <pt x="399" y="-137" on="0"/>
        <pt x="416" y="-130" on="0"/>
        <pt x="426" y="-124" on="1"/>
        <pt x="452" y="-178" on="1"/>
        <pt x="435" y="-192" on="0"/>
        <pt x="383" y="-208" on="0"/>
        <pt x="362" y="-208" on="1"/>
        <pt x="320" y="-208" on="0"/>
        <pt x="263" y="-164" on="0"/>
        <pt x="263" y="-120" on="1"/>
        <pt x="263" y="-99" on="0"/>
        <pt x="276" y="-63" on="0"/>
        <pt x="295" y="-33" on="0"/>
        <pt x="318" y="-9" on="0"/>
        <pt x="328" y="0" on="1"/>
        <pt x="297" y="0" on="1"/>
      </contour>
      <contour>
        <pt x="346" y="577" on="1"/>
        <pt x="311" y="577" on="0"/>
        <pt x="264" y="619" on="0"/>
        <pt x="264" y="654" on="1"/>
        <pt x="264" y="689" on="0"/>
        <pt x="311" y="732" on="0"/>
        <pt x="346" y="732" on="1"/>
        <pt x="382" y="732" on="0"/>
        <pt x="428" y="689" on="0"/>
        <pt x="428" y="654" on="1"/>
        <pt x="428" y="619" on="0"/>
        <pt x="382" y="577" on="0"/>
      </contour>
    </TTGlyph>
    <TTGlyph name="iogonek.d" xMin="84" yMin="-208" xMax="452" yMax="491">
      <contour>
        <pt x="297" y="400" on="1"/>
        <pt x="84" y="400" on="1"/>
        <pt x="84" y="491" on="1"/>
        <pt x="412" y="491" on="1"/>
        <pt x="412" y="0" on="1"/>
        <pt x="377" y="-18" on="0"/>
        <pt x="344" y="-69" on="0"/>
        <pt x="344" y="-95" on="1"/>
        <pt x="344" y="-116" on="0"/>
        <pt x="371" y="-137" on="0"/>
        <pt x="388" y="-137" on="1"/>
        <pt x="399" y="-137" on="0"/>
        <pt x="416" y="-130" on="0"/>
        <pt x="426" y="-124" on="1"/>
        <pt x="452" y="-178" on="1"/>
        <pt x="435" y="-192" on="0"/>
        <pt x="383" y="-208" on="0"/>
        <pt x="362" y="-208" on="1"/>
        <pt x="320" y="-208" on="0"/>
        <pt x="263" y="-164" on="0"/>
        <pt x="263" y="-120" on="1"/>
        <pt x="263" y="-99" on="0"/>
        <pt x="276" y="-63" on="0"/>
        <pt x="295" y="-33" on="0"/>
        <pt x="318" y="-9" on="0"/>
        <pt x="328" y="0" on="1"/>
        <pt x="297" y="0" on="1"/>
      </contour>
    </TTGlyph>
    <TTGlyph name="itilde" xMin="84" yMin="0" xMax="502" yMax="704">
      <component glyphName="dotlessi" x="0" y="0" flags="0x204"/>
      <component glyphName="uni0303" x="46" y="0" flags="0x4"/>
    </TTGlyph>
    <TTGlyph name="j" xMin="49" yMin="-206" xMax="428" yMax="732">
      <contour>
        <pt x="84" y="491" on="1"/>
        <pt x="412" y="491" on="1"/>
        <pt x="412" y="9" on="1"/>
        <pt x="412" y="-36" on="0"/>
        <pt x="391" y="-114" on="0"/>
        <pt x="342" y="-173" on="0"/>
        <pt x="258" y="-206" on="0"/>
        <pt x="195" y="-206" on="1"/>
        <pt x="152" y="-206" on="0"/>
        <pt x="79" y="-187" on="0"/>
        <pt x="49" y="-173" on="1"/>
        <pt x="84" y="-90" on="1"/>
        <pt x="112" y="-103" on="0"/>
        <pt x="165" y="-115" on="0"/>
        <pt x="189" y="-115" on="1"/>
        <pt x="252" y="-115" on="0"/>
        <pt x="297" y="-55" on="0"/>
        <pt x="297" y="3" on="1"/>
        <pt x="297" y="400" on="1"/>
        <pt x="84" y="400" on="1"/>
      </contour>
      <contour>
        <pt x="346" y="577" on="1"/>
        <pt x="311" y="577" on="0"/>
        <pt x="264" y="619" on="0"/>
        <pt x="264" y="654" on="1"/>
        <pt x="264" y="689" on="0"/>
        <pt x="311" y="732" on="0"/>
        <pt x="346" y="732" on="1"/>
        <pt x="382" y="732" on="0"/>
        <pt x="428" y="689" on="0"/>
        <pt x="428" y="654" on="1"/>
        <pt x="428" y="619" on="0"/>
        <pt x="382" y="577" on="0"/>
      </contour>
    </TTGlyph>
    <TTGlyph name="j.sups" xMin="136" yMin="126" xMax="393" yMax="747">
      <contour>
        <pt x="161" y="585" on="1"/>
        <pt x="377" y="585" on="1"/>
        <pt x="377" y="271" on="1"/>
        <pt x="377" y="241" on="0"/>
        <pt x="363" y="188" on="0"/>
        <pt x="329" y="149" on="0"/>
        <pt x="272" y="126" on="0"/>
        <pt x="229" y="126" on="1"/>
        <pt x="202" y="126" on="0"/>
        <pt x="156" y="139" on="0"/>
        <pt x="136" y="148" on="1"/>
        <pt x="162" y="208" on="1"/>
        <pt x="195" y="192" on="0"/>
        <pt x="225" y="192" on="1"/>
        <pt x="265" y="192" on="0"/>
        <pt x="294" y="229" on="0"/>
        <pt x="294" y="267" on="1"/>
        <pt x="294" y="519" on="1"/>
        <pt x="161" y="519" on="1"/>
      </contour>
      <contour>
        <pt x="334" y="639" on="1"/>
        <pt x="308" y="639" on="0"/>
        <pt x="276" y="668" on="0"/>
        <pt x="276" y="693" on="1"/>
        <pt x="276" y="717" on="0"/>
        <pt x="308" y="747" on="0"/>
        <pt x="334" y="747" on="1"/>
        <pt x="360" y="747" on="0"/>
        <pt x="393" y="717" on="0"/>
        <pt x="393" y="693" on="1"/>
        <pt x="393" y="668" on="0"/>
        <pt x="360" y="639" on="0"/>
      </contour>
    </TTGlyph>
    <TTGlyph name="jcircumflex" xMin="49" yMin="-206" xMax="494" yMax="731">
      <component glyphName="uni0237" x="0" y="0" flags="0x204"/>
      <component glyphName="uni0302" x="46" y="0" flags="0x4"/>
    </TTGlyph>
    <TTGlyph name="k" xMin="90" yMin="0" xMax="580" yMax="706">
      <contour>
        <pt x="90" y="706" on="1"/>
        <pt x="206" y="706" on="1"/>
        <pt x="206" y="264" on="1"/>
        <pt x="210" y="264" on="1"/>
        <pt x="431" y="491" on="1"/>
        <pt x="559" y="491" on="1"/>
        <pt x="369" y="293" on="1"/>
        <pt x="580" y="0" on="1"/>
        <pt x="454" y="0" on="1"/>
        <pt x="300" y="222" on="1"/>
        <pt x="206" y="128" on="1"/>
        <pt x="206" y="0" on="1"/>
        <pt x="90" y="0" on="1"/>
      </contour>
    </TTGlyph>
    <TTGlyph name="k.sups" xMin="174" yMin="260" xMax="502" yMax="725">
      <contour>
        <pt x="174" y="725" on="1"/>
        <pt x="258" y="725" on="1"/>
        <pt x="258" y="444" on="1"/>
        <pt x="261" y="444" on="1"/>
        <pt x="397" y="585" on="1"/>
        <pt x="489" y="585" on="1"/>
        <pt x="365" y="453" on="1"/>
        <pt x="502" y="260" on="1"/>
        <pt x="410" y="260" on="1"/>
        <pt x="316" y="398" on="1"/>
        <pt x="258" y="343" on="1"/>
        <pt x="258" y="260" on="1"/>
        <pt x="174" y="260" on="1"/>
      </contour>
    </TTGlyph>
    <TTGlyph name="kgreenlandic" xMin="90" yMin="0" xMax="580" yMax="491">
      <contour>
        <pt x="90" y="491" on="1"/>
        <pt x="206" y="491" on="1"/>
        <pt x="206" y="265" on="1"/>
        <pt x="209" y="266" on="1"/>
        <pt x="431" y="491" on="1"/>
        <pt x="559" y="491" on="1"/>
        <pt x="369" y="293" on="1"/>
        <pt x="580" y="0" on="1"/>
        <pt x="454" y="0" on="1"/>
        <pt x="300" y="217" on="1"/>
        <pt x="206" y="126" on="1"/>
        <pt x="206" y="0" on="1"/>
        <pt x="90" y="0" on="1"/>
      </contour>
    </TTGlyph>
    <TTGlyph name="l" xMin="71" yMin="-12" xMax="540" yMax="706">
      <contour>
        <pt x="71" y="706" on="1"/>
        <pt x="341" y="706" on="1"/>
        <pt x="341" y="173" on="1"/>
        <pt x="341" y="123" on="0"/>
        <pt x="391" y="82" on="0"/>
        <pt x="429" y="82" on="1"/>
        <pt x="465" y="82" on="0"/>
        <pt x="513" y="101" on="1"/>
        <pt x="540" y="16" on="1"/>
        <pt x="505" y="4" on="0"/>
        <pt x="444" y="-12" on="0"/>
        <pt x="401" y="-12" on="1"/>
        <pt x="314" y="-12" on="0"/>
        <pt x="226" y="88" on="0"/>
        <pt x="226" y="179" on="1"/>
        <pt x="226" y="615" on="1"/>
        <pt x="71" y="615" on="1"/>
      </contour>
    </TTGlyph>
    <TTGlyph name="l.sups" xMin="189" yMin="252" xMax="462" yMax="725">
      <contour>
        <pt x="189" y="725" on="1"/>
        <pt x="348" y="725" on="1"/>
        <pt x="348" y="375" on="1"/>
        <pt x="348" y="344" on="0"/>
        <pt x="375" y="320" on="0"/>
        <pt x="401" y="320" on="1"/>
        <pt x="420" y="320" on="0"/>
        <pt x="447" y="330" on="1"/>
        <pt x="462" y="265" on="1"/>
        <pt x="441" y="260" on="0"/>
        <pt x="405" y="252" on="0"/>
        <pt x="379" y="252" on="1"/>
        <pt x="319" y="252" on="0"/>
        <pt x="264" y="319" on="0"/>
        <pt x="264" y="379" on="1"/>
        <pt x="264" y="659" on="1"/>
        <pt x="189" y="659" on="1"/>
      </contour>
    </TTGlyph>
</ttFont>
